<svg width="40" height="40" viewBox="0 0 40 40" fill="none" xmlns="http://www.w3.org/2000/svg">
<g clip-path="url(#clip0)">
<path d="M38.3333 18.3239V20.0106C38.331 23.964 37.0509 27.8108 34.6837 30.9772C32.3166 34.1437 28.9893 36.4601 25.1981 37.581C21.4069 38.702 17.3549 38.5674 13.6465 37.1973C9.93804 35.8272 6.77182 33.2951 4.62005 29.9785C2.46828 26.662 1.44624 22.7387 1.70637 18.7938C1.96649 14.8489 3.49484 11.0938 6.06347 8.08854C8.6321 5.08324 12.1034 2.98878 15.9596 2.11751C19.8159 1.24624 23.8504 1.64486 27.4616 3.25391" stroke="currentColor" stroke-width="1.66667" stroke-linecap="round" stroke-linejoin="round"/>
<path d="M38.3333 5.34399L20 23.6957L14.5 18.1957" stroke="currentColor" stroke-width="1.66667" stroke-linecap="round" stroke-linejoin="round"/>
</g>
<defs>
<clipPath id="clip0">
<rect width="40" height="40" fill="white" transform="translate(0 0.00012207)"/>
</clipPath>
</defs>
</svg>
