<svg width="40" height="40" viewBox="0 0 40 40" fill="none" xmlns="http://www.w3.org/2000/svg">
<g clip-path="url(#clip0)">
<path d="M19.2426 0V40" stroke="currentColor" stroke-width="1.66667" stroke-linecap="round" stroke-linejoin="round"/>
<path d="M28.3334 7.27271H14.697C13.0093 7.27271 11.3907 7.94316 10.1972 9.13657C9.00383 10.33 8.33337 11.9486 8.33337 13.6363C8.33337 15.3241 9.00383 16.9427 10.1972 18.1361C11.3907 19.3295 13.0093 20 14.697 20H23.7879C25.4757 20 27.0943 20.6704 28.2877 21.8638C29.4811 23.0573 30.1516 24.6759 30.1516 26.3636C30.1516 28.0514 29.4811 29.67 28.2877 30.8634C27.0943 32.0568 25.4757 32.7272 23.7879 32.7272H8.33337" stroke="currentColor" stroke-width="1.66667" stroke-linecap="round" stroke-linejoin="round"/>
</g>
<defs>
<clipPath id="clip0">
<rect width="40" height="40" fill="white"/>
</clipPath>
</defs>
</svg>
