<svg width="16" height="16" viewBox="0 0 16 16" fill="none" xmlns="http://www.w3.org/2000/svg">
<path d="M12.6667 7.26672H3.33333C2.59695 7.26672 2 7.92337 2 8.73339V13.8667C2 14.6767 2.59695 15.3334 3.33333 15.3334H12.6667C13.403 15.3334 14 14.6767 14 13.8667V8.73339C14 7.92337 13.403 7.26672 12.6667 7.26672Z" stroke="currentColor" stroke-linecap="round" stroke-linejoin="round"/>
<path d="M4.66669 7.26669V4.33335C4.66669 3.36089 5.01788 2.42826 5.643 1.74063C6.26812 1.053 7.11597 0.666687 8.00002 0.666687C8.88408 0.666687 9.73192 1.053 10.357 1.74063C10.9822 2.42826 11.3334 3.36089 11.3334 4.33335V7.26669" stroke="currentColor" stroke-linecap="round" stroke-linejoin="round"/>
</svg>
