<svg width="24" height="24" viewBox="0 0 24 24" fill="none" xmlns="http://www.w3.org/2000/svg">
<path d="M12 24C18.6274 24 24 18.6274 24 12C24 5.37258 18.6274 0 12 0C5.37258 0 0 5.37258 0 12C0 18.6274 5.37258 24 12 24Z" fill="#6441A5"/>
<path fill-rule="evenodd" clip-rule="evenodd" d="M14.8784 16.8752H12.2956L10.5752 18.6H8.85475V16.8752H5.69995V7.69682L6.55795 5.40002H18.3192V13.4344L14.8784 16.8752ZM17.1752 12.8624V6.54842H7.70635V14.8688H10.2892V16.5892L12.0096 14.8688H15.1644L17.1752 12.8624Z" fill="white"/>
<path d="M14.0159 8.84521V12.2905H15.1643V8.84521H14.0159ZM10.8611 12.2861H12.0095V8.84521H10.8611V12.2861Z" fill="white"/>
</svg>
