<svg width="24" height="24" viewBox="0 0 24 24" fill="none" xmlns="http://www.w3.org/2000/svg">
<path fill-rule="evenodd" clip-rule="evenodd" d="M11.6672 1.10495C11.8476 0.965015 12.0998 0.965015 12.2802 1.10495L21.7539 8.45505C21.876 8.54976 21.9474 8.69559 21.9474 8.85009V20.4002C21.9474 21.0902 21.6726 21.7517 21.1839 22.2392C20.6952 22.7266 20.0327 23.0003 19.3421 23.0003H14.8154V23.0002C14.5393 23.0002 14.3154 22.7763 14.3154 22.5002V13.8696H9.63121V22.5002C9.63121 22.7763 9.40735 23.0002 9.13121 23.0002V23.0003H4.60527C3.91471 23.0003 3.25218 22.7266 2.76351 22.2392C2.27479 21.7517 2 21.0902 2 20.4002V8.85009C2 8.69559 2.07143 8.54976 2.19351 8.45505L11.6672 1.10495ZM8.63121 22.0003V13.3696C8.63121 13.0934 8.85506 12.8696 9.13121 12.8696H14.8154C15.0916 12.8696 15.3154 13.0934 15.3154 13.3696V22.0003H19.3421C19.7683 22.0003 20.1767 21.8314 20.4777 21.5312C20.7786 21.231 20.9474 20.8242 20.9474 20.4002V9.09501L11.9737 2.13284L3 9.09501V20.4002C3 20.8242 3.16882 21.231 3.46973 21.5312C3.77068 21.8314 4.17912 22.0003 4.60527 22.0003H8.63121Z" fill="currentColor"/>
</svg>
