<svg width="40" height="40" viewBox="0 0 40 40" fill="none" xmlns="http://www.w3.org/2000/svg">
<g clip-path="url(#clip0)">
<path d="M20 40.0002C31.0457 40.0002 40 31.0458 40 20.0001C40 8.95437 31.0457 4.57764e-05 20 4.57764e-05C8.95432 4.57764e-05 0 8.95437 0 20.0001C0 31.0458 8.95432 40.0002 20 40.0002Z" fill="#EB922F"/>
<path d="M32.8241 12.0443C31.8807 12.4629 30.8675 12.7459 29.8021 12.8731C30.8894 12.222 31.7223 11.1903 32.1156 9.96244C31.0828 10.5759 29.9525 11.0077 28.7738 11.2392C27.8145 10.2168 26.4466 9.5784 24.9333 9.5784C22.0285 9.5784 19.6727 11.9332 19.6727 14.8397C19.6727 15.2515 19.7191 15.6532 19.8083 16.039C15.4355 15.8192 11.5588 13.7246 8.96391 10.5419C8.51081 11.3192 8.25146 12.223 8.25146 13.1873C8.25146 15.0124 9.18042 16.6227 10.592 17.566C9.75635 17.5401 8.93908 17.3145 8.20847 16.9082V16.9747C8.20847 19.524 10.0218 21.6498 12.4288 22.1333C11.9867 22.2544 11.5226 22.3177 11.0425 22.3177C10.7031 22.3177 10.3738 22.2856 10.0521 22.2251C10.7217 24.3146 12.6647 25.8356 14.9664 25.8786C13.1657 27.2901 10.8968 28.1316 8.43251 28.1316C8.00806 28.1316 7.58857 28.1062 7.17676 28.0566C9.50551 29.5498 12.2705 30.4215 15.2419 30.4215C24.919 30.4215 30.2114 22.4045 30.2114 15.452C30.2114 15.2238 30.2064 14.9972 30.1954 14.7715C31.2265 14.0257 32.1167 13.1022 32.8241 12.0443Z" fill="white"/>
</g>
<defs>
<clipPath id="clip0">
<path d="M0 0H40V40H0V0Z" fill="white"/>
</clipPath>
</defs>
</svg>
