<svg width="40" height="40" viewBox="0 0 40 40" fill="none" xmlns="http://www.w3.org/2000/svg">
<g clip-path="url(#clip0)">
<path d="M20 39.9975C31.0457 39.9975 40 31.0432 40 19.9975C40 8.9518 31.0457 -0.00250244 20 -0.00250244C8.95431 -0.00250244 0 8.9518 0 19.9975C0 31.0432 8.95431 39.9975 20 39.9975Z" fill="#FF9500"/>
<path d="M31.9499 21.609V29.8545H27.1694V22.1616C27.1694 20.23 26.4792 18.9108 24.7483 18.9108C23.4274 18.9108 22.6427 19.7989 22.2961 20.6588C22.1703 20.9662 22.1378 21.3929 22.1378 21.824V29.8542H17.3569C17.3569 29.8542 17.4211 16.8248 17.3569 15.4761H22.1382V17.5136C22.1286 17.5297 22.115 17.5454 22.1065 17.5607H22.1382V17.5136C22.7735 16.5361 23.9065 15.1385 26.4467 15.1385C29.5919 15.1385 31.9499 17.1935 31.9499 21.609ZM12.3557 8.54539C10.7203 8.54539 9.65039 9.61887 9.65039 11.0293C9.65039 12.4097 10.6893 13.5142 12.2929 13.5142H12.3239C13.9914 13.5142 15.0281 12.4097 15.0281 11.0293C14.9964 9.61887 13.9914 8.54539 12.3557 8.54539ZM9.93454 29.8545H14.7137V15.4761H9.93454V29.8545Z" fill="white"/>
<path d="M20 40C31.0457 40 40 31.0457 40 20C40 8.95431 31.0457 0 20 0C8.95431 0 0 8.95431 0 20C0 31.0457 8.95431 40 20 40Z" fill="#FF9500"/>
<g clip-path="url(#clip1)">
<path d="M24.6875 7.5H15.3125C10.9984 7.5 7.5 10.9984 7.5 15.3125V24.6875C7.5 29.0016 10.9984 32.5 15.3125 32.5H24.6875C29.0016 32.5 32.5 29.0016 32.5 24.6875V15.3125C32.5 10.9984 29.0016 7.5 24.6875 7.5ZM30.1562 24.6875C30.1562 27.7031 27.7031 30.1562 24.6875 30.1562H15.3125C12.2969 30.1562 9.84375 27.7031 9.84375 24.6875V15.3125C9.84375 12.2969 12.2969 9.84375 15.3125 9.84375H24.6875C27.7031 9.84375 30.1562 12.2969 30.1562 15.3125V24.6875Z" fill="white"/>
<path d="M20 13.75C16.5484 13.75 13.75 16.5484 13.75 20C13.75 23.4516 16.5484 26.25 20 26.25C23.4516 26.25 26.25 23.4516 26.25 20C26.25 16.5484 23.4516 13.75 20 13.75ZM20 23.9062C17.8469 23.9062 16.0938 22.1531 16.0938 20C16.0938 17.8453 17.8469 16.0938 20 16.0938C22.1531 16.0938 23.9062 17.8453 23.9062 20C23.9062 22.1531 22.1531 23.9062 20 23.9062Z" fill="white"/>
<path d="M26.7186 14.1141C27.1785 14.1141 27.5514 13.7412 27.5514 13.2813C27.5514 12.8213 27.1785 12.4484 26.7186 12.4484C26.2586 12.4484 25.8857 12.8213 25.8857 13.2813C25.8857 13.7412 26.2586 14.1141 26.7186 14.1141Z" fill="white"/>
</g>
</g>
<defs>
<clipPath id="clip0">
<path d="M0 0H40V40H0V0Z" fill="white"/>
</clipPath>
<clipPath id="clip1">
<rect x="7.5" y="7.5" width="25" height="25" fill="white"/>
</clipPath>
</defs>
</svg>
