<svg width="789" height="428" viewBox="0 0 789 428" fill="none" xmlns="http://www.w3.org/2000/svg">
<path d="M397.068 428C610.492 428 783.507 416.546 783.507 402.417C783.507 388.288 610.492 376.834 397.068 376.834C183.643 376.834 10.628 388.288 10.628 402.417C10.628 416.546 183.643 428 397.068 428Z" fill="#F2F2F2"/>
<path d="M382.256 122.349C319.295 122.349 274.089 162.744 274.089 256.997C274.089 363.818 319.295 392.094 382.256 392.094C445.218 392.094 493.117 361.125 493.117 256.997C493.116 145.688 445.218 122.349 382.256 122.349ZM382.67 356.637C339.062 356.637 316.279 331.053 316.279 257.066C316.279 191.784 339.994 157.358 383.603 157.358C427.212 157.358 450.927 179.971 450.927 257.066C450.927 329.187 426.279 356.637 382.67 356.637Z" fill="#2F2E41"/>
<path d="M236.388 317.589H210.356V240.931C210.356 236.86 208.738 232.955 205.859 230.076C202.98 227.197 199.076 225.579 195.004 225.579H188.904C186.888 225.579 184.892 225.976 183.029 226.748C181.167 227.519 179.474 228.65 178.049 230.076C176.623 231.501 175.492 233.194 174.721 235.056C173.949 236.919 173.552 238.915 173.552 240.931V317.589H100.125C98.6143 317.589 97.1294 317.198 95.8142 316.455C94.499 315.712 93.3981 314.642 92.6185 313.348C91.8388 312.054 91.4067 310.581 91.3642 309.071C91.3217 307.561 91.6702 306.066 92.3758 304.73L170.09 157.641C171.059 155.807 171.647 153.796 171.817 151.729C171.987 149.662 171.737 147.582 171.081 145.614C170.425 143.647 169.377 141.833 168 140.281C166.624 138.73 164.947 137.473 163.072 136.588L158.484 134.421C154.922 132.739 150.849 132.491 147.109 133.727C143.369 134.964 140.247 137.592 138.39 141.066L43.6068 318.376C41.9927 321.395 41.1483 324.766 41.1483 328.189C41.1483 330.923 41.6868 333.63 42.7329 336.156C43.7791 338.681 45.3125 340.976 47.2455 342.909C49.1785 344.842 51.4734 346.376 53.999 347.422C56.5247 348.468 59.2316 349.006 61.9654 349.006H173.552V397.48C173.552 399.896 174.028 402.289 174.953 404.522C175.878 406.754 177.233 408.783 178.942 410.492C180.651 412.201 182.679 413.556 184.912 414.481C187.145 415.406 189.537 415.882 191.954 415.882H191.954C194.371 415.882 196.763 415.406 198.996 414.481C201.229 413.556 203.257 412.201 204.966 410.492C206.675 408.783 208.03 406.754 208.955 404.522C209.88 402.289 210.356 399.896 210.356 397.48V349.007H236.388C240.554 349.007 244.55 347.351 247.496 344.405C250.442 341.459 252.097 337.464 252.097 333.298C252.097 329.131 250.442 325.136 247.496 322.19C244.55 319.244 240.554 317.589 236.388 317.589Z" fill="#EB922F"/>
<path d="M718.427 317.589H692.395V240.931C692.395 236.86 690.778 232.955 687.899 230.076C685.02 227.197 681.115 225.579 677.043 225.579H670.944C668.928 225.579 666.931 225.976 665.069 226.748C663.206 227.519 661.514 228.65 660.088 230.076C658.663 231.501 657.532 233.194 656.76 235.056C655.989 236.919 655.592 238.915 655.592 240.931V317.589H582.164C580.654 317.589 579.169 317.198 577.854 316.455C576.539 315.712 575.438 314.642 574.658 313.348C573.878 312.054 573.446 310.581 573.404 309.071C573.361 307.561 573.71 306.066 574.415 304.73L652.13 157.641C653.099 155.807 653.686 153.796 653.856 151.729C654.026 149.662 653.776 147.582 653.12 145.614C652.464 143.647 651.416 141.833 650.04 140.281C648.663 138.73 646.987 137.473 645.111 136.588L640.524 134.421C636.962 132.739 632.889 132.491 629.149 133.727C625.408 134.964 622.287 137.592 620.429 141.066L525.646 318.376C524.032 321.395 523.188 324.766 523.188 328.189C523.188 333.71 525.381 339.005 529.285 342.909C533.189 346.813 538.484 349.006 544.005 349.006H655.592V397.48C655.592 402.36 657.53 407.041 660.981 410.492C664.432 413.943 669.113 415.882 673.993 415.882C678.874 415.882 683.555 413.943 687.006 410.492C690.457 407.041 692.395 402.36 692.395 397.48V349.007H718.427C722.594 349.007 726.589 347.351 729.535 344.405C732.481 341.459 734.136 337.464 734.136 333.298C734.136 329.131 732.481 325.136 729.535 322.19C726.589 319.244 722.594 317.589 718.427 317.589Z" fill="#EB922F"/>
<path d="M243.569 308.612H217.537V231.955C217.537 229.939 217.14 227.942 216.369 226.08C215.597 224.217 214.466 222.525 213.041 221.099C211.615 219.674 209.923 218.543 208.06 217.771C206.198 217 204.201 216.603 202.185 216.603H196.085C192.014 216.603 188.109 218.22 185.23 221.099C182.351 223.978 180.733 227.883 180.733 231.955V308.612H107.306C105.796 308.612 104.311 308.222 102.995 307.479C101.68 306.736 100.579 305.665 99.7997 304.372C99.02 303.078 98.588 301.605 98.5455 300.095C98.503 298.585 98.8515 297.089 99.5571 295.754L177.272 148.665C178.241 146.831 178.828 144.82 178.998 142.753C179.168 140.686 178.918 138.606 178.262 136.638C177.606 134.67 176.558 132.856 175.182 131.305C173.805 129.753 172.129 128.497 170.253 127.611L165.666 125.445C162.103 123.762 158.031 123.514 154.29 124.751C150.55 125.988 147.428 128.615 145.571 132.089L50.788 309.399C49.174 312.418 48.3296 315.789 48.3296 319.213V319.213C48.3296 324.734 50.5228 330.029 54.4268 333.933C58.3307 337.837 63.6256 340.03 69.1466 340.03H180.733V388.503C180.733 390.92 181.209 393.313 182.134 395.545C183.059 397.778 184.414 399.807 186.123 401.515C187.832 403.224 189.861 404.58 192.093 405.504C194.326 406.429 196.719 406.905 199.135 406.905H199.135C204.016 406.905 208.696 404.966 212.147 401.515C215.598 398.064 217.537 393.384 217.537 388.503V340.03H243.569C245.632 340.03 247.675 339.624 249.581 338.834C251.487 338.045 253.218 336.888 254.677 335.429C256.136 333.97 257.293 332.239 258.082 330.333C258.872 328.427 259.278 326.384 259.278 324.321V324.321C259.278 322.258 258.872 320.215 258.082 318.309C257.293 316.404 256.136 314.672 254.677 313.213C253.218 311.754 251.487 310.597 249.581 309.808C247.675 309.018 245.632 308.612 243.569 308.612V308.612Z" stroke="#3F3D56" stroke-miterlimit="10"/>
<path d="M731.892 308.612H705.86V231.955C705.86 227.883 704.243 223.978 701.364 221.099C698.485 218.22 694.58 216.603 690.508 216.603H684.408C682.392 216.603 680.396 217 678.533 217.771C676.671 218.543 674.978 219.674 673.553 221.099C672.127 222.525 670.996 224.217 670.225 226.08C669.453 227.942 669.056 229.939 669.056 231.955V308.612H595.629C594.119 308.612 592.634 308.222 591.318 307.479C590.003 306.736 588.902 305.665 588.123 304.372C587.343 303.078 586.911 301.605 586.868 300.095C586.826 298.585 587.174 297.089 587.88 295.754L665.595 148.665C666.564 146.831 667.151 144.82 667.321 142.753C667.491 140.686 667.241 138.606 666.585 136.638C665.929 134.67 664.881 132.856 663.505 131.305C662.128 129.753 660.452 128.497 658.576 127.611L653.988 125.445C650.426 123.762 646.354 123.514 642.613 124.751C638.873 125.988 635.751 128.615 633.894 132.089L539.111 309.399C537.497 312.418 536.653 315.789 536.653 319.213C536.653 324.734 538.846 330.029 542.75 333.933C546.654 337.837 551.949 340.03 557.47 340.03H669.056V388.503C669.056 393.384 670.995 398.064 674.446 401.515C677.897 404.966 682.578 406.905 687.458 406.905V406.905C692.339 406.905 697.019 404.966 700.47 401.515C703.921 398.064 705.86 393.384 705.86 388.503V340.03H731.892C733.955 340.03 735.998 339.624 737.903 338.834C739.809 338.045 741.541 336.888 743 335.429C744.459 333.97 745.616 332.239 746.405 330.333C747.195 328.427 747.601 326.384 747.601 324.321V324.321C747.601 320.155 745.946 316.159 743 313.213C740.054 310.267 736.058 308.612 731.892 308.612V308.612Z" stroke="#3F3D56" stroke-miterlimit="10"/>
<path d="M396.619 114.27C333.657 114.27 288.452 154.665 288.452 248.918C288.452 355.739 333.657 384.015 396.619 384.015C459.58 384.015 507.479 353.046 507.479 248.918C507.479 137.609 459.58 114.27 396.619 114.27ZM397.033 348.558C353.424 348.558 330.641 322.974 330.641 248.987C330.641 183.705 354.357 149.279 397.965 149.279C441.574 149.279 465.289 171.892 465.289 248.987C465.289 321.108 440.641 348.558 397.033 348.558V348.558Z" stroke="#3F3D56" stroke-miterlimit="10"/>
<path d="M346.151 22.8212C351.371 22.8212 355.602 18.5898 355.602 13.37C355.602 8.15024 351.371 3.91878 346.151 3.91878C340.931 3.91878 336.7 8.15024 336.7 13.37C336.7 18.5898 340.931 22.8212 346.151 22.8212Z" fill="#2F2E41"/>
<path d="M369.203 68.6943C383.843 68.6943 395.712 53.3166 395.712 34.3472C395.712 15.3777 383.843 0 369.203 0C354.562 0 342.693 15.3777 342.693 34.3472C342.693 53.3166 354.562 68.6943 369.203 68.6943Z" fill="#2F2E41"/>
<path opacity="0.1" d="M369.203 58.321C355.923 58.321 344.924 45.6689 342.994 29.1605C342.793 30.8821 342.693 32.6139 342.693 34.3472C342.693 53.3166 354.562 68.6943 369.203 68.6943C383.844 68.6943 395.713 53.3166 395.713 34.3472C395.713 32.6139 395.613 30.8821 395.412 29.1605C393.482 45.6689 382.483 58.321 369.203 58.321Z" fill="black"/>
<path d="M423.147 134.934C422.577 137.274 420.123 139.147 417.404 140.456C411.688 143.209 404.638 144.03 397.8 144.306C396.056 144.412 394.306 144.379 392.566 144.209C389.196 143.883 386.034 142.429 383.592 140.083C383.417 139.97 383.275 139.814 383.177 139.63C383.079 139.446 383.03 139.241 383.033 139.033C383.036 138.825 383.092 138.621 383.195 138.44C383.298 138.26 383.446 138.108 383.624 138C387.264 134.001 393.339 131.549 399.459 129.783C404.1 128.444 412.193 124.977 417.254 125.445C422.156 125.898 423.865 131.98 423.147 134.934Z" fill="#3F3D56"/>
<path opacity="0.1" d="M423.147 134.934C422.577 137.274 420.123 139.147 417.404 140.456C411.688 143.209 404.638 144.03 397.8 144.306C396.056 144.412 394.306 144.379 392.566 144.209C389.196 143.883 386.034 142.429 383.592 140.083C383.417 139.97 383.275 139.814 383.177 139.63C383.079 139.446 383.03 139.241 383.033 139.033C383.036 138.825 383.092 138.621 383.195 138.44C383.298 138.26 383.446 138.108 383.624 138C387.264 134.001 393.339 131.549 399.459 129.783C404.1 128.444 412.193 124.977 417.254 125.445C422.156 125.898 423.865 131.98 423.147 134.934Z" fill="black"/>
<path d="M350.475 117.449C348.73 120.869 348.415 124.841 349.597 128.493C350.8 132.117 353.051 135.304 356.065 137.648C363.46 143.576 373.638 144.391 383.116 144.309C391.422 144.237 399.716 143.668 407.954 142.607C410.715 142.362 413.428 141.732 416.014 140.735C419.107 139.397 421.825 136.942 422.927 133.757C424.028 130.572 423.246 126.671 420.631 124.545C418.333 122.677 415.164 122.42 412.208 122.243L395.294 121.226C396.965 119.535 399.19 118.579 401.225 117.349C403.925 115.718 405.718 112.98 407.681 110.511C410.706 106.896 413.997 103.513 417.526 100.389C418.077 103.547 420.074 106.14 422.425 108.318C424.776 110.497 427.486 112.251 429.93 114.326C435.848 119.35 440.11 126.169 446.334 130.809C450.616 129.684 454.619 127.686 458.091 124.94L455.672 120.558C455.47 120.107 455.156 119.715 454.76 119.42C454.075 118.999 453.193 119.216 452.398 119.097C450.272 118.778 449.344 116.325 448.51 114.344C446.221 108.907 441.838 104.689 438.095 100.129C435.332 96.7634 432.881 93.1532 430.772 89.3434C429.514 87.0712 428.363 84.7053 426.657 82.7477C424.95 80.7902 422.559 79.2511 419.962 79.2456C417.667 79.2407 415.551 80.4057 413.578 81.5775C407.569 85.1467 401.788 89.0855 396.267 93.3713C393.378 95.6143 390.506 97.984 387.117 99.3595C385.691 99.9385 384.187 100.334 382.818 101.039C380.42 102.273 378.6 104.361 376.641 106.214C369.654 112.824 360.088 117.107 350.475 117.449Z" fill="#3F3D56"/>
<path d="M385.842 70.4002C385.763 72.4207 385.334 74.4122 384.572 76.2853C384.186 77.2195 383.611 78.0641 382.884 78.7665C382.157 79.4689 381.293 80.014 380.346 80.3678C379.002 80.728 377.592 80.7737 376.227 80.5014C375.037 80.3771 373.889 79.9863 372.871 79.3581C371.285 78.2677 370.494 76.3222 370.206 74.4181C369.918 72.5163 370.047 70.573 369.862 68.6574C369.683 67.1102 369.388 65.5784 368.982 64.0748C368.857 63.5745 368.731 63.0766 368.606 62.5787C368.484 62.0808 368.364 61.5829 368.253 61.085C368.152 60.617 368.057 60.1467 367.977 59.6742C367.91 59.2754 367.85 58.8743 367.806 58.4709C367.766 57.2749 367.567 56.0897 367.214 54.9463C366.883 54.2047 366.468 53.5032 365.978 52.8555C365.768 52.5558 365.566 52.2561 365.379 51.9449C364.839 51.1362 364.588 50.1687 364.667 49.1994C364.689 49.0496 364.725 48.9022 364.775 48.7592C364.793 48.7038 364.814 48.6485 364.837 48.5955C365.045 48.5392 365.235 48.4331 365.392 48.2865C365.549 48.1398 365.668 47.9571 365.738 47.7541C365.818 47.318 365.78 46.8687 365.63 46.4516C365.458 45.8689 365.222 45.3069 364.927 44.7758C364.733 44.4254 364.076 43.7938 364.072 43.3926C364.063 42.5858 365.639 41.9358 366.278 41.6177C368.227 40.6417 370.4 40.2009 372.576 40.3406C373.97 40.4351 375.482 40.8639 376.252 42.0326C376.944 43.086 376.852 44.4507 377.147 45.6748C377.178 45.8527 377.253 46.02 377.366 46.1612C377.516 46.2982 377.705 46.3852 377.907 46.4101C378.249 46.478 378.599 46.4921 378.945 46.4516H378.947C379.039 46.4444 379.129 46.4313 379.219 46.4124C379.758 46.3131 380.267 46.0932 380.708 45.7693C380.994 45.6932 381.282 45.631 381.573 45.5826C381.584 45.5814 381.596 45.5791 381.607 45.5756C382.762 49.2201 382.912 53.1274 383.857 56.8388C384.325 58.6852 384.996 60.5086 385.09 62.4081C385.097 62.491 385.1 62.5763 385.102 62.6616C385.116 63.2725 385.067 63.888 385.093 64.4965C385.102 64.7706 385.132 65.0435 385.185 65.3126C385.288 65.7454 385.417 66.1718 385.57 66.5897L385.577 66.6104C385.621 66.7441 385.662 66.8801 385.697 67.0161C385.722 67.1152 385.745 67.2121 385.764 67.3112L385.766 67.3181C385.937 68.3367 385.962 69.3744 385.842 70.4002Z" fill="#FBBEBE"/>
<path d="M369.664 46.5646C377.175 46.5646 383.264 40.4754 383.264 32.964C383.264 25.4527 377.175 19.3635 369.664 19.3635C362.153 19.3635 356.063 25.4527 356.063 32.964C356.063 40.4754 362.153 46.5646 369.664 46.5646Z" fill="#FBBEBE"/>
<path d="M456.011 107.066C455.617 103.356 454.298 99.8033 452.175 96.7345C452.528 98.8322 452.881 100.929 453.236 103.025C452.795 103.153 452.327 103.149 451.889 103.014C451.451 102.879 451.062 102.62 450.769 102.267C450.196 101.552 449.758 100.739 449.476 99.8672C447.931 96.0314 445.91 92.4047 443.462 89.0721C434.803 88.3506 426.244 84.7614 418.63 80.5775C411.014 76.3959 403.886 71.3821 396.371 67.023C395.069 66.2355 393.711 65.5422 392.31 64.9484C389.958 64.0055 387.319 63.5168 385.09 62.4081C384.94 62.3343 384.79 62.2559 384.643 62.1752C384.139 61.9014 383.662 61.5811 383.218 61.2186C382.978 61.0237 382.75 60.8143 382.536 60.5916C381.424 59.2977 380.542 57.8225 379.929 56.2302C378.732 53.5838 378.306 50.3912 377.112 47.7448C377.661 47.2319 378.277 46.7968 378.944 46.4516H378.947C379.043 46.4009 379.14 46.3525 379.239 46.3064C379.712 46.0839 380.203 45.9041 380.708 45.7693C380.994 45.6932 381.282 45.631 381.572 45.5826C381.584 45.5814 381.596 45.579 381.607 45.5756C382.954 45.3562 384.334 45.4653 385.629 45.8937C387.524 46.5346 389.122 47.814 390.715 49.0242C393.302 50.8473 395.784 52.816 398.149 54.9208C399.463 56.1794 400.661 57.5625 402.074 58.7059C403.249 59.6122 404.487 60.4327 405.779 61.161C413.425 65.716 421.072 70.2702 428.72 74.8237C431.309 76.3659 433.9 77.9081 436.431 79.5401C440.276 82.0205 443.983 84.7083 447.687 87.3939C449.87 88.9752 452.052 90.5574 454.234 92.1402C454.95 92.5968 455.578 93.1776 456.089 93.8553C456.541 94.6247 456.822 95.4825 456.912 96.3703C457.46 99.9568 457.151 103.622 456.011 107.066Z" fill="#FBBEBE"/>
<path d="M389.214 80.6282C388.297 84.743 384.138 87.2303 381.964 90.8448C379.263 95.3307 380.364 100.545 381.379 105.683C379.525 107.281 377.671 108.878 375.816 110.476C374.793 111.354 373.769 112.237 372.667 113.014C371.061 114.09 369.382 115.055 367.642 115.9C366.001 116.743 364.36 117.588 362.718 118.433C361.193 119.291 359.576 119.976 357.898 120.476C354.664 121.305 351.229 120.724 348.03 119.763C347.652 119.664 347.29 119.516 346.951 119.323C346.751 119.204 346.577 119.046 346.439 118.86C346.124 118.294 346.009 117.638 346.114 116.999C346.439 111.614 347.755 106.342 349.067 101.11C349.768 97.9704 350.711 94.89 351.886 91.8959C353.039 89.3304 354.365 86.8459 355.854 84.4594C357.497 81.4568 359.443 78.6304 361.663 76.0248C362.743 75.0219 363.653 73.8492 364.355 72.5532C365.173 70.686 364.858 68.5445 365.023 66.5113C365.15 64.9837 365.556 63.4923 366.22 62.1107V62.1084C366.575 61.3642 367.003 60.657 367.497 59.9969C367.721 60.5178 367.944 61.038 368.168 61.5575C368.315 61.8986 368.461 62.239 368.606 62.5787C368.795 63.0167 368.982 63.4531 369.168 63.888C369.705 65.1375 370.242 66.3861 370.777 67.6339C371.356 69.2057 372.181 70.6755 373.221 71.9885C373.696 72.6608 374.338 73.1983 375.083 73.5486C375.828 73.8989 376.651 74.0499 377.472 73.987C378.293 73.924 379.084 73.6493 379.767 73.1895C380.45 72.7297 381.002 72.1007 381.37 71.3637C382.144 69.9882 382.706 68.5028 383.034 66.9585C383.489 65.0782 383.552 63.1243 383.218 61.2187C382.663 57.5488 381.102 53.8006 379.968 50.3912C379.506 49.2545 379.239 48.0482 379.177 46.8228C379.18 46.6851 379.193 46.5478 379.219 46.4125C379.226 46.3779 379.233 46.341 379.24 46.3064C379.712 46.0839 380.203 45.9042 380.708 45.7693C380.994 45.6933 381.282 45.631 381.572 45.5826C382.571 50.986 383.57 56.3893 384.571 61.7926C384.594 61.9194 384.62 62.0462 384.643 62.1753C384.786 62.9498 384.931 63.7244 385.092 64.4966C385.238 65.1974 385.394 65.8958 385.57 66.5897L385.576 66.6104C385.636 66.8456 385.699 67.0784 385.763 67.3112L385.765 67.3181C385.943 67.9544 386.141 68.586 386.365 69.2084C387.72 72.9589 390.083 76.7348 389.214 80.6282Z" fill="#EB922F"/>
<path d="M444.41 138.453C444.367 139.246 444.521 140.037 444.857 140.756C445.708 142.312 447.751 142.666 449.518 142.811C459.842 143.66 470.228 143.343 480.481 141.868C481.038 141.83 481.577 141.662 482.057 141.378C483.515 140.356 482.617 137.866 481.025 137.068C479.433 136.271 477.544 136.463 475.798 136.118C474.063 135.681 472.41 134.964 470.906 133.996C467.364 131.961 463.873 129.84 460.435 127.631C458.387 126.317 455.971 124.913 453.666 125.693C447.42 127.806 444.369 131.716 444.41 138.453Z" fill="#3F3D56"/>
<path d="M368.306 60.7968V60.7991C368.29 60.8959 368.274 60.9904 368.253 61.0849C368.227 61.2417 368.198 61.4007 368.168 61.5575C367.882 63.0213 367.531 64.4781 367.128 65.9258C366.021 69.9253 364.539 73.8602 363.069 77.7375C359.122 88.1339 355.175 98.531 351.227 108.929C350.231 111.548 349.237 114.169 348.106 116.734C347.728 117.589 347.338 118.452 346.951 119.323C345.563 122.442 344.231 125.662 343.788 128.982C343.375 131.166 343.328 133.404 343.647 135.604C344.09 137.78 345.411 139.906 347.479 140.71C348.488 141.105 349.934 141.632 349.657 142.681C349.507 143.258 348.852 143.539 348.265 143.636C347.488 143.759 346.694 143.711 345.939 143.493C345.184 143.276 344.486 142.895 343.894 142.377C342.79 141.397 341.942 139.874 340.473 139.71C339.457 139.599 338.521 140.208 337.589 140.634C333.79 142.37 329.364 141.155 325.374 139.922C325.688 138.306 327.311 137.241 328.922 136.918C330.533 136.593 332.2 136.824 333.843 136.78C334.37 136.808 334.892 136.674 335.339 136.395C335.741 136.027 336.022 135.547 336.146 135.017C337.205 131.88 337.992 128.657 338.5 125.386C339.03 121.967 339.251 118.495 340.007 115.118C340.595 112.483 341.504 109.932 342.283 107.345C343.789 102.02 345.027 96.622 345.989 91.1721C346.476 88.9079 346.825 86.6161 347.034 84.3096C347.165 82.3963 347.103 80.4738 347.287 78.5674C347.597 76.0872 348.114 73.6374 348.834 71.2438C349.539 68.6321 350.244 66.0218 350.948 63.4131C351.992 59.552 353.112 55.541 355.759 52.5396C356.678 51.483 357.804 50.6264 359.068 50.0229C360.332 49.4194 361.706 49.0818 363.105 49.0311C363.63 49.0305 364.153 49.0869 364.666 49.1994C364.751 49.2202 364.837 49.2409 364.922 49.2639C365.48 49.41 366.016 49.6318 366.515 49.9233C367.331 49.4046 367.746 49.5867 368.287 50.3866C368.762 51.2331 368.986 52.1974 368.933 53.1666C368.979 55.7246 368.768 58.2806 368.306 60.7968Z" fill="#FBBEBE"/>
<path d="M369.203 63.8534L369.169 63.888L368.982 64.0747L367.129 65.9258L366.22 62.1107L363.106 49.0311C363.631 49.0305 364.154 49.0869 364.667 49.1994C364.689 49.0495 364.725 48.9021 364.775 48.7591L364.922 49.2639L365.978 52.8554L367.977 59.6741L368.306 60.7968V60.7991L369.203 63.8534Z" fill="#EB922F"/>
<path d="M380.964 22.1262C380.962 23.3373 380.722 24.5362 380.257 25.6545C379.792 26.7727 379.111 27.7883 378.253 28.6432C377.942 28.9543 377.609 29.2423 377.257 29.5049C375.666 30.7041 373.728 31.3532 371.736 31.3541H360.677C358.233 31.3503 355.891 30.3769 354.164 28.6476C352.438 26.9183 351.468 24.5744 351.468 22.1307C351.468 19.687 352.438 17.3431 354.164 15.6138C355.891 13.8845 358.233 12.9111 360.677 12.9073H371.736C374.18 12.9137 376.522 13.8867 378.251 15.6139C379.98 17.3412 380.955 19.6823 380.964 22.1262Z" fill="#2F2E41"/>
<path d="M391.333 22.8212C396.553 22.8212 400.784 18.5898 400.784 13.37C400.784 8.15024 396.553 3.91878 391.333 3.91878C386.113 3.91878 381.882 8.15024 381.882 13.37C381.882 18.5898 386.113 22.8212 391.333 22.8212Z" fill="#2F2E41"/>
<path opacity="0.1" d="M391.102 3.91878C390.986 3.91878 390.871 3.92338 390.756 3.92752C393.201 4.0164 395.516 5.05014 397.215 6.81124C398.913 8.57234 399.862 10.9235 399.862 13.37C399.862 15.8165 398.913 18.1677 397.215 19.9288C395.516 21.6899 393.201 22.7236 390.756 22.8125C390.871 22.8166 390.986 22.8212 391.102 22.8212C393.609 22.8212 396.013 21.8255 397.785 20.053C399.558 18.2806 400.553 15.8766 400.553 13.37C400.553 10.8634 399.558 8.45943 397.785 6.68698C396.013 4.91453 393.609 3.91878 391.102 3.91878Z" fill="black"/>
<path opacity="0.1" d="M346.151 3.91878C346.267 3.91878 346.382 3.92338 346.497 3.92752C344.052 4.0164 341.737 5.05014 340.039 6.81124C338.341 8.57234 337.392 10.9235 337.392 13.37C337.392 15.8165 338.341 18.1677 340.039 19.9288C341.737 21.6899 344.052 22.7236 346.497 22.8125C346.382 22.8166 346.267 22.8212 346.151 22.8212C343.646 22.819 341.244 21.8223 339.474 20.0501C337.703 18.2779 336.708 15.8752 336.708 13.37C336.708 10.8648 337.703 8.46213 339.474 6.68992C341.244 4.91771 343.646 3.92098 346.151 3.91878Z" fill="black"/>
<path opacity="0.1" d="M377.256 29.5049C375.666 30.7041 373.728 31.3531 371.736 31.3541H360.677C358.684 31.3531 356.747 30.7041 355.156 29.5049H377.256Z" fill="black"/>
<path d="M448.673 97.9878C448.673 97.9878 451.055 104.853 453.236 103.025L451.498 94.0513L448.673 97.9878Z" fill="#FBBEBE"/>
<path d="M738.614 307.357C740.834 308.163 743.21 308.444 745.556 308.175C747.902 307.907 750.154 307.098 752.133 305.811C754.113 304.524 755.767 302.795 756.964 300.759C758.162 298.724 758.87 296.439 759.034 294.083C759.198 291.728 758.812 289.366 757.907 287.185C757.002 285.004 755.603 283.063 753.82 281.515C752.037 279.966 749.919 278.853 747.633 278.264C745.346 277.674 742.954 277.623 740.645 278.115L741.026 285.963L737.314 279.237C733.67 280.949 730.854 284.038 729.487 287.825C729.001 289.152 728.706 290.54 728.61 291.949C728.375 295.256 729.225 298.549 731.031 301.329C732.836 304.109 735.498 306.225 738.614 307.357Z" fill="#57B894"/>
<path d="M756.986 398.376C755.675 391.702 761.355 385.785 766.965 381.939C772.574 378.093 779.129 374.314 781.043 367.788C783.794 358.408 775.6 349.818 769.222 342.41C764.491 336.912 760.428 330.873 757.118 324.419C755.791 321.831 754.571 319.126 754.222 316.239C753.719 312.081 755.055 307.944 756.401 303.978C760.884 290.766 765.677 277.665 770.78 264.675" stroke="#3F3D56" stroke-miterlimit="10"/>
<path d="M739.242 305.336C741.461 306.143 743.838 306.423 746.184 306.155C748.53 305.887 750.781 305.077 752.761 303.79C754.741 302.503 756.395 300.774 757.592 298.739C758.79 296.704 759.498 294.418 759.662 292.063C759.825 289.707 759.44 287.346 758.535 285.165C757.63 282.984 756.231 281.042 754.448 279.494C752.665 277.946 750.547 276.833 748.261 276.243C745.974 275.653 743.582 275.602 741.273 276.095L741.654 283.942L737.941 277.217C734.297 278.929 731.482 282.018 730.115 285.805C729.629 287.131 729.334 288.52 729.238 289.929C729.003 293.236 729.853 296.529 731.658 299.309C733.464 302.089 736.126 304.205 739.242 305.336V305.336Z" stroke="#3F3D56" stroke-miterlimit="10"/>
<path d="M755.122 261.964C755.993 259.561 757.455 257.416 759.373 255.727C761.291 254.037 763.603 252.857 766.096 252.296L767.352 259.756L769.679 251.921C772.911 251.969 776.044 253.043 778.625 254.987C781.207 256.931 783.103 259.646 784.042 262.739C784.98 265.831 784.911 269.142 783.845 272.193C782.779 275.244 780.771 277.877 778.111 279.713C775.451 281.548 772.276 282.491 769.045 282.404C765.814 282.318 762.695 281.207 760.137 279.232C757.578 277.257 755.714 274.52 754.813 271.416C753.912 268.312 754.02 265.002 755.122 261.964H755.122Z" fill="#57B894"/>
<path d="M755.96 259.271C756.83 256.868 758.292 254.722 760.21 253.033C762.128 251.343 764.44 250.163 766.934 249.602L768.189 257.063L770.516 249.227C773.748 249.275 776.881 250.349 779.462 252.293C782.044 254.237 783.941 256.952 784.879 260.045C785.817 263.137 785.748 266.448 784.682 269.499C783.616 272.55 781.608 275.184 778.948 277.019C776.288 278.854 773.113 279.797 769.882 279.71C766.652 279.624 763.532 278.513 760.974 276.538C758.416 274.563 756.551 271.826 755.65 268.722C754.749 265.618 754.857 262.309 755.959 259.271H755.96Z" stroke="#3F3D56" stroke-miterlimit="10"/>
<path d="M766.546 342.561C770.065 343.837 773.931 343.774 777.407 342.384C780.883 340.993 783.726 338.372 785.394 335.02C787.061 331.668 787.437 327.82 786.45 324.208C785.462 320.597 783.18 317.476 780.039 315.439L778.251 321.46L776.983 313.911C776.97 313.905 776.957 313.901 776.944 313.897C775.061 313.213 773.063 312.906 771.062 312.995C769.061 313.083 767.097 313.565 765.282 314.413C763.468 315.261 761.838 316.458 760.486 317.936C759.135 319.414 758.087 321.144 757.404 323.027C756.721 324.909 756.416 326.908 756.506 328.909C756.595 330.91 757.079 332.874 757.928 334.688C758.776 336.502 759.975 338.131 761.453 339.482C762.932 340.833 764.662 341.879 766.546 342.561H766.546Z" fill="#57B894"/>
<path d="M767.271 339.832C770.791 341.109 774.657 341.046 778.133 339.655C781.609 338.264 784.451 335.643 786.119 332.291C787.786 328.939 788.162 325.091 787.175 321.48C786.187 317.869 783.906 314.747 780.765 312.71L778.976 318.731L777.708 311.183C777.696 311.177 777.683 311.172 777.669 311.168C775.787 310.484 773.788 310.177 771.787 310.266C769.786 310.355 767.822 310.837 766.008 311.684C764.193 312.532 762.563 313.729 761.212 315.207C759.86 316.685 758.813 318.415 758.13 320.298C757.447 322.181 757.141 324.18 757.231 326.181C757.321 328.181 757.804 330.145 758.653 331.959C759.502 333.773 760.7 335.402 762.179 336.753C763.657 338.104 765.388 339.15 767.271 339.832H767.271Z" stroke="#3F3D56" stroke-miterlimit="10"/>
<path d="M750.673 367.881C751.278 371.324 753.049 374.455 755.688 376.747C758.327 379.04 761.675 380.356 765.169 380.473C768.663 380.591 772.091 379.504 774.879 377.394C777.666 375.284 779.644 372.279 780.479 368.885C781.314 365.49 780.957 361.911 779.467 358.748C777.977 355.586 775.445 353.032 772.295 351.514C769.146 349.997 765.57 349.609 762.168 350.415C758.766 351.221 755.745 353.172 753.611 355.942L760.404 366.166L751.122 360.739C750.403 363.05 750.249 365.499 750.673 367.881Z" fill="#57B894"/>
<path d="M751.301 365.861C751.906 369.304 753.677 372.434 756.316 374.727C758.955 377.02 762.303 378.335 765.797 378.453C769.291 378.571 772.719 377.483 775.507 375.373C778.294 373.263 780.271 370.259 781.107 366.864C781.942 363.469 781.585 359.891 780.095 356.728C778.605 353.565 776.073 351.011 772.923 349.494C769.773 347.977 766.198 347.589 762.796 348.395C759.394 349.201 756.373 351.152 754.239 353.921L761.032 364.146L751.75 358.719C751.03 361.029 750.876 363.478 751.301 365.861V365.861Z" stroke="#3F3D56" stroke-miterlimit="10"/>
<path d="M7.59821 344.498C9.05627 345.028 10.6175 345.212 12.1589 345.036C13.7003 344.86 15.1797 344.328 16.4804 343.482C17.7812 342.637 18.8678 341.501 19.6546 340.164C20.4414 338.827 20.9069 337.325 21.0144 335.777C21.1218 334.23 20.8684 332.678 20.2739 331.245C19.6795 329.812 18.7603 328.537 17.5889 327.519C16.4174 326.502 15.0258 325.771 13.5235 325.383C12.0213 324.996 10.4496 324.963 8.93225 325.286L9.18299 330.442L6.74357 326.023C4.34942 327.148 2.49984 329.178 1.60128 331.666C1.28216 332.537 1.08816 333.449 1.02507 334.375C0.871092 336.548 1.42948 338.711 2.6156 340.538C3.80173 342.365 5.55095 343.755 7.59821 344.498Z" fill="#57B894"/>
<path d="M19.6681 404.299C18.807 399.914 22.5384 396.027 26.2241 393.5C29.9099 390.973 34.2165 388.491 35.4741 384.202C37.2815 378.04 31.8978 372.396 27.7076 367.529C24.5989 363.917 21.9292 359.949 19.7544 355.709C18.809 354.043 18.165 352.223 17.8522 350.334C17.5218 347.602 18.3994 344.884 19.2836 342.278C22.229 333.598 25.3782 324.99 28.7312 316.455" stroke="#3F3D56" stroke-miterlimit="10"/>
<path d="M8.01063 343.171C9.46869 343.701 11.0299 343.885 12.5713 343.709C14.1127 343.532 15.5921 343.001 16.8929 342.155C18.1936 341.309 19.2802 340.173 20.067 338.836C20.8538 337.499 21.3193 335.998 21.4268 334.45C21.5342 332.902 21.2807 331.351 20.6863 329.918C20.0919 328.485 19.1727 327.209 18.0013 326.192C16.8299 325.175 15.4382 324.444 13.9359 324.056C12.4337 323.668 10.862 323.635 9.34467 323.959L9.59541 329.115L7.15599 324.696C4.76184 325.821 2.91225 327.85 2.01369 330.338C1.69458 331.21 1.50058 332.122 1.43749 333.048C1.2835 335.22 1.84188 337.384 3.02801 339.211C4.21414 341.037 5.96337 342.427 8.01063 343.171V343.171Z" stroke="#3F3D56" stroke-miterlimit="10"/>
<path d="M18.4443 314.675C19.0165 313.096 19.9769 311.686 21.2369 310.576C22.497 309.466 24.0162 308.691 25.6545 308.322L26.4793 313.224L28.0085 308.076C30.1316 308.107 32.1899 308.813 33.886 310.09C35.5821 311.368 36.8284 313.151 37.4449 315.183C38.0613 317.215 38.0161 319.39 37.3157 321.395C36.6152 323.4 35.2959 325.13 33.5481 326.336C31.8003 327.541 29.7146 328.161 27.5919 328.104C25.4693 328.047 23.4196 327.317 21.7388 326.019C20.0581 324.722 18.8332 322.924 18.241 320.884C17.6488 318.845 17.72 316.671 18.4443 314.675Z" fill="#57B894"/>
<path d="M18.9939 312.905C19.5661 311.326 20.5265 309.916 21.7865 308.806C23.0466 307.696 24.5657 306.921 26.2041 306.552L27.0289 311.454L28.5581 306.306C30.6812 306.337 32.7395 307.043 34.4356 308.32C36.1317 309.598 37.378 311.381 37.9944 313.413C38.6109 315.445 38.5656 317.62 37.8652 319.625C37.1648 321.63 35.8455 323.36 34.0977 324.566C32.3499 325.771 30.2641 326.391 28.1415 326.334C26.0188 326.277 23.9692 325.547 22.2884 324.249C20.6076 322.952 19.3828 321.154 18.7906 319.114C18.1984 317.075 18.2696 314.901 18.9939 312.905V312.905Z" stroke="#3F3D56" stroke-miterlimit="10"/>
<path d="M25.9493 367.628C28.2617 368.467 30.8018 368.425 33.0856 367.512C35.3694 366.598 37.2371 364.876 38.3327 362.673C39.4284 360.471 39.6753 357.943 39.0266 355.57C38.3778 353.197 36.8786 351.146 34.8148 349.808L33.6398 353.764L32.8066 348.805C32.7984 348.801 32.7899 348.798 32.7811 348.795C31.5443 348.345 30.2309 348.144 28.9161 348.202C27.6013 348.26 26.3108 348.576 25.1184 349.133C23.926 349.69 22.8551 350.477 21.9668 351.448C21.0785 352.419 20.3903 353.556 19.9415 354.793C19.4927 356.03 19.2921 357.344 19.3512 358.658C19.4102 359.973 19.7278 361.263 20.2857 362.455C20.8437 363.647 21.6311 364.718 22.6028 365.605C23.5746 366.493 24.7118 367.18 25.9493 367.628Z" fill="#57B894"/>
<path d="M26.4261 365.835C28.7384 366.674 31.2786 366.633 33.5623 365.719C35.8461 364.805 37.7138 363.083 38.8095 360.881C39.9051 358.678 40.1521 356.15 39.5033 353.777C38.8545 351.405 37.3554 349.354 35.2916 348.015L34.1166 351.971L33.2834 347.012C33.2752 347.008 33.2666 347.005 33.2579 347.002C32.0213 346.554 30.7085 346.353 29.3944 346.412C28.0802 346.471 26.7906 346.788 25.599 347.345C23.1924 348.47 21.3315 350.505 20.4256 353.003C19.5196 355.5 19.6428 358.255 20.7682 360.662C21.8935 363.068 23.9287 364.929 26.4261 365.835V365.835Z" stroke="#3F3D56" stroke-miterlimit="10"/>
<path d="M15.5206 384.264C15.9182 386.526 17.0816 388.583 18.8157 390.089C20.5497 391.596 22.749 392.46 25.0447 392.537C27.3404 392.614 29.5928 391.9 31.4243 390.514C33.2558 389.128 34.5549 387.154 35.1038 384.923C35.6526 382.693 35.4179 380.341 34.4389 378.264C33.4599 376.186 31.7963 374.508 29.7269 373.511C27.6575 372.514 25.3083 372.259 23.0732 372.788C20.8381 373.318 18.8531 374.6 17.451 376.419L21.9142 383.137L15.8158 379.572C15.343 381.089 15.2418 382.699 15.5206 384.264Z" fill="#57B894"/>
<path d="M15.9335 382.936C16.3311 385.199 17.4945 387.255 19.2286 388.762C20.9626 390.268 23.1619 391.132 25.4576 391.21C27.7533 391.287 30.0057 390.573 31.8372 389.186C33.6687 387.8 34.9678 385.826 35.5167 383.596C36.0655 381.365 35.8308 379.014 34.8518 376.936C33.8728 374.858 32.2091 373.18 30.1398 372.183C28.0704 371.186 25.7211 370.931 23.4861 371.461C21.251 371.99 19.2659 373.272 17.8639 375.092L22.3271 381.81L16.2287 378.244C15.7559 379.762 15.6546 381.371 15.9335 382.936V382.936Z" stroke="#3F3D56" stroke-miterlimit="10"/>
<path d="M353.334 249.897C360.212 249.897 365.788 242.681 365.788 233.78C365.788 224.879 360.212 217.663 353.334 217.663C346.456 217.663 340.88 224.879 340.88 233.78C340.88 242.681 346.456 249.897 353.334 249.897Z" fill="#2F2E41"/>
<path d="M421.098 250.263C427.976 250.263 433.552 243.047 433.552 234.146C433.552 225.245 427.976 218.029 421.098 218.029C414.22 218.029 408.644 225.245 408.644 234.146C408.644 243.047 414.22 250.263 421.098 250.263Z" fill="#2F2E41"/>
<path d="M411.575 281.764C411.575 289.046 401.406 294.951 388.864 294.951C376.322 294.951 366.154 289.046 366.154 281.764C366.154 275.457 373.78 270.182 383.971 268.893C385.593 268.679 387.228 268.574 388.864 268.578C391.606 268.569 394.341 268.864 397.018 269.457C405.531 271.354 411.575 276.153 411.575 281.764Z" fill="#2F2E41"/>
<path d="M356.264 246.234C363.143 246.234 368.718 239.018 368.718 230.117C368.718 221.216 363.143 214 356.264 214C349.386 214 343.81 221.216 343.81 230.117C343.81 239.018 349.386 246.234 356.264 246.234Z" stroke="#3F3D56" stroke-miterlimit="10"/>
<path d="M424.028 246.6C430.906 246.6 436.482 239.384 436.482 230.483C436.482 221.582 430.906 214.366 424.028 214.366C417.15 214.366 411.574 221.582 411.574 230.483C411.574 239.384 417.15 246.6 424.028 246.6Z" stroke="#3F3D56" stroke-miterlimit="10"/>
<path d="M391.795 291.288C404.337 291.288 414.505 285.384 414.505 278.101C414.505 270.819 404.337 264.915 391.795 264.915C379.252 264.915 369.084 270.819 369.084 278.101C369.084 285.384 379.252 291.288 391.795 291.288Z" stroke="#3F3D56" stroke-miterlimit="10"/>
<path d="M397.289 270.556C397.295 271.477 396.949 272.366 396.322 273.041C396.026 273.364 395.666 273.622 395.265 273.8C394.864 273.977 394.431 274.07 393.993 274.072H386.667C385.764 274.041 384.911 273.653 384.293 272.994C383.675 272.335 383.343 271.459 383.37 270.556C383.366 269.841 383.576 269.142 383.971 268.547C385.592 268.319 387.227 268.207 388.865 268.211C391.61 268.202 394.347 268.517 397.018 269.149C397.199 269.596 397.291 270.074 397.289 270.556Z" fill="white"/>
<path d="M356.264 229.384C358.287 229.384 359.927 227.744 359.927 225.721C359.927 223.698 358.287 222.058 356.264 222.058C354.241 222.058 352.601 223.698 352.601 225.721C352.601 227.744 354.241 229.384 356.264 229.384Z" fill="white"/>
<path d="M424.395 229.384C426.418 229.384 428.058 227.744 428.058 225.721C428.058 223.698 426.418 222.058 424.395 222.058C422.372 222.058 420.732 223.698 420.732 225.721C420.732 227.744 422.372 229.384 424.395 229.384Z" fill="white"/>
<path opacity="0.3" d="M428.058 263.816C430.081 263.816 431.721 262.176 431.721 260.153C431.721 258.13 430.081 256.49 428.058 256.49C426.035 256.49 424.395 258.13 424.395 260.153C424.395 262.176 426.035 263.816 428.058 263.816Z" fill="#EB922F"/>
<path opacity="0.3" d="M338.682 263.816C340.705 263.816 342.345 262.176 342.345 260.153C342.345 258.13 340.705 256.49 338.682 256.49C336.659 256.49 335.019 258.13 335.019 260.153C335.019 262.176 336.659 263.816 338.682 263.816Z" fill="#EB922F"/>
</svg>
