<svg width="788" height="474" viewBox="0 0 788 474" fill="none" xmlns="http://www.w3.org/2000/svg">
<path d="M54.4747 444.737L100.949 377.962L54.4511 452L54.424 459.597C51.1098 459.569 47.829 459.462 44.5818 459.274C44.567 457.549 48.5171 362.635 48.3492 360.918C48.5785 360.853 48.7071 351.941 48.798 351.551L0.245956 278.581L48.8502 344.645L48.9951 346.598L51.8785 272.856L10.1428 197.341L52.2087 259.899C52.2243 258.895 54.1997 107.486 54.2191 106.552C54.231 107.048 55.1377 227.044 55.1443 227.549L95.0596 179.25L55.106 237.928L54.902 303.927L91.9429 240.105C45.7162 333.179 55.9464 300.609 54.7658 350.328L108.57 261.461L54.7197 363.131L54.4747 444.737Z" fill="#D0CDE1"/>
<path d="M765.457 453.802L784.824 425.976L765.447 456.829L765.436 459.995C764.055 459.983 762.688 459.938 761.335 459.86C761.328 459.141 762.974 419.588 762.905 418.873C763 418.846 763.054 415.132 763.092 414.969L742.859 384.561L763.113 412.091L763.174 412.905L764.375 382.175L746.983 350.706L764.513 376.776C764.519 376.357 765.343 313.262 765.351 312.872C765.356 313.079 765.733 363.084 765.736 363.295L782.37 343.167L765.72 367.62L765.635 395.123L781.071 368.527C761.807 407.313 766.071 393.741 765.579 414.46L788 377.427L765.559 419.795L765.457 453.802Z" fill="#D0CDE1"/>
<path d="M392.712 473.965C609.601 473.965 785.424 467.076 785.424 458.579C785.424 450.081 609.601 443.192 392.712 443.192C175.823 443.192 0 450.081 0 458.579C0 467.076 175.823 473.965 392.712 473.965Z" fill="#D0CDE1"/>
<path d="M583.207 181.725H134.812V449.055H583.207V181.725Z" fill="#3F3D56"/>
<path d="M245.782 181.725C245.324 209.856 233.828 236.68 213.773 256.412C193.719 276.145 166.712 287.205 138.578 287.208C137.317 287.208 136.064 287.186 134.812 287.142V181.725H245.782Z" fill="#EB922F"/>
<path d="M380.943 449.055H338.297C339.901 444.691 342.806 440.924 346.619 438.263C350.433 435.603 354.97 434.176 359.62 434.176C364.27 434.176 368.807 435.603 372.62 438.263C376.434 440.924 379.338 444.691 380.943 449.055Z" fill="#EB922F"/>
<path d="M583.207 310.778V400.823C571.646 400.258 560.746 395.268 552.765 386.886C544.783 378.505 540.331 367.374 540.331 355.8C540.331 344.226 544.783 333.096 552.765 324.714C560.746 316.333 571.646 311.343 583.207 310.778Z" fill="#EB922F"/>
<path d="M500.832 278.866H217.963C210.667 278.866 204.752 284.78 204.752 292.077V292.077C204.752 299.373 210.667 305.288 217.963 305.288H500.832C508.129 305.288 514.043 299.373 514.043 292.077C514.043 284.78 508.129 278.866 500.832 278.866Z" fill="white"/>
<path d="M500.832 330.932H217.963C210.667 330.932 204.752 336.847 204.752 344.143V344.143C204.752 351.44 210.667 357.354 217.963 357.354H500.832C508.129 357.354 514.043 351.44 514.043 344.143C514.043 336.847 508.129 330.932 500.832 330.932Z" fill="white"/>
<path d="M500.833 382.999H418.816C411.52 382.999 405.605 388.914 405.605 396.21C405.605 403.506 411.52 409.421 418.816 409.421H500.833C508.129 409.421 514.044 403.506 514.044 396.21C514.044 388.914 508.129 382.999 500.833 382.999Z" fill="white"/>
<path d="M654.314 82.1469C654.314 82.1469 666.644 86.9419 667.329 102.697C668.014 118.452 663.904 162.292 663.904 162.292C663.904 162.292 678.974 184.211 667.329 190.376C655.684 196.541 654.314 165.717 654.314 165.717L640.614 100.642C640.614 100.642 648.834 81.4619 654.314 82.1469Z" fill="#A0616A"/>
<path d="M528.274 132.837C528.274 132.837 498.819 152.017 497.449 136.947C496.079 121.877 506.354 62.9669 506.354 62.9669C506.354 62.9669 507.724 37.6221 522.109 43.7871C536.494 49.9521 517.999 71.1869 517.999 71.1869L520.054 119.137L533.754 118.452L528.274 132.837Z" fill="#A0616A"/>
<path d="M575.539 150.647C575.539 150.647 485.119 117.082 489.914 156.127C494.709 195.171 517.999 244.491 517.999 244.491L526.219 257.506H543.344L532.384 186.951C532.384 186.951 571.429 208.871 583.074 205.446C583.074 205.446 598.144 306.141 603.624 313.676C609.104 321.211 618.694 412.315 618.694 412.315L627.599 423.275H644.724V269.151C644.724 269.151 674.179 173.251 651.574 168.456C628.969 163.661 575.539 150.647 575.539 150.647Z" fill="#2F2E41"/>
<path d="M524.164 248.601C524.164 248.601 520.054 241.066 513.204 248.601C506.354 256.136 489.914 265.041 489.914 265.041C489.914 265.041 454.295 273.261 483.065 280.111C511.834 286.961 515.259 280.111 515.259 280.111C515.259 280.111 520.054 281.481 524.164 282.851C528.274 284.221 554.989 279.426 554.989 275.316C554.989 271.206 545.92 246.644 542.235 250.362C538.549 254.081 524.164 248.601 524.164 248.601Z" fill="#2F2E41"/>
<path d="M628.911 416.495C628.911 416.495 618.812 408.177 616.435 410.554C614.059 412.93 601.582 428.971 601.582 428.971C601.582 428.971 568.312 454.518 598.612 458.677C628.911 462.836 627.129 451.548 627.129 451.548H636.635C637.823 451.548 653.864 444.418 653.27 441.448C652.676 438.477 645.547 414.254 643.17 415.969C640.794 417.683 628.911 416.495 628.911 416.495Z" fill="#2F2E41"/>
<path d="M537.179 56.117C550.042 56.117 560.469 45.6898 560.469 32.8271C560.469 19.9645 550.042 9.53723 537.179 9.53723C524.317 9.53723 513.889 19.9645 513.889 32.8271C513.889 45.6898 524.317 56.117 537.179 56.117Z" fill="#A0616A"/>
<path d="M553.619 30.0872C553.619 30.0872 571.429 45.1571 583.759 45.1571C596.089 45.1571 565.949 73.242 565.949 73.242L539.234 49.2671L553.619 30.0872Z" fill="#A0616A"/>
<path d="M560.469 73.2419L559.936 67.8453C559.936 67.8453 573.484 43.787 577.594 41.732C581.704 39.677 584.444 39.677 584.444 39.677C584.444 39.677 598.144 25.2921 613.214 32.8271C628.284 40.362 663.904 88.3118 663.904 88.3118C663.904 88.3118 638.559 90.3668 641.984 110.232C641.984 110.232 667.329 175.306 660.479 175.991C653.629 176.676 633.079 171.881 611.844 181.471C590.609 191.061 581.019 184.896 581.019 184.896L570.059 149.277C570.059 149.277 549.509 137.632 550.194 127.357L520.397 140.714L523.137 115.369L541.289 94.4768C541.289 94.4768 537.864 91.7368 560.469 73.2419Z" fill="#575A89"/>
<path d="M515.756 35.345C514.83 36.3737 513.67 37.1639 512.374 37.6483C511.047 38.0224 509.376 37.5637 508.847 36.2908L509.832 35.0091L506.88 33.1745L508.166 31.6652L505.788 29.083L507.665 27.5939L504.092 25.0383C508.723 17.4811 513.732 9.8292 521.044 4.81947C528.355 -0.19026 538.572 -1.97039 546.063 2.76813C549.952 5.22831 552.702 9.13302 554.905 13.1733C559.335 21.2988 563.24 29.2194 563.816 38.4561C561.034 35.7462 556.971 34.2191 554.188 31.5091C552.956 30.2015 551.56 29.0587 550.034 28.109C547.124 26.4677 543.641 26.3225 540.383 25.5821C537.643 24.9595 535.865 23.7245 533.792 21.959C531.326 19.8587 531.226 20.6708 528.736 23.0354C524.412 27.1415 520.085 31.2447 515.756 35.345Z" fill="#2F2E41"/>
</svg>
