<svg width="96" height="24" viewBox="0 0 96 24" fill="none" xmlns="http://www.w3.org/2000/svg">
<path d="M2.88109 3.97754C4.5464 3.16558 6.49463 3.14028 8.27956 3.506C9.63205 3.83033 11.0673 4.59628 11.578 5.97177C12.0886 7.55658 11.9782 9.2472 11.9805 10.8872C10.3589 10.8803 8.73729 10.8872 7.11798 10.8849C7.0837 9.52322 7.19158 8.15462 7.05127 6.79753C7.08117 5.85907 5.41816 5.86597 5.44116 6.80443C5.26635 8.93898 5.39976 11.0873 5.35859 13.2288C5.39769 14.5948 5.25945 15.9798 5.47589 17.3346C5.6093 17.8774 6.29015 17.9188 6.72028 17.7348C7.05127 17.4979 7.0584 17.0631 7.09291 16.6974C7.14581 15.6807 7.10441 14.6641 7.11821 13.6474C8.74189 13.6428 10.3635 13.6451 11.9874 13.6451C11.9391 15.1885 12.0771 16.8308 11.4285 18.273C10.352 20.0556 8.10704 20.725 6.12891 20.6631C4.38539 20.647 2.38885 20.2445 1.30548 18.7423C0.530324 17.5278 0.557926 16.0143 0.495822 14.6252C0.507323 12.1615 0.413016 9.69343 0.583228 7.23456C0.654533 5.81996 1.6252 4.57098 2.88109 3.97754ZM14.5981 3.58881C16.9535 3.55661 19.3111 3.55891 21.6665 3.58881C22.5612 9.16899 23.5181 14.74 24.429 20.3179C22.9132 20.313 21.3974 20.3179 19.8816 20.313C19.7481 19.2688 19.6492 18.2197 19.4859 17.1779C18.9452 17.1871 18.4026 17.1871 17.8618 17.1846C17.9584 16.2507 18.0642 15.3171 18.1654 14.383C18.4989 14.383 18.8302 14.3807 19.1637 14.3807C18.8601 11.9908 18.6323 9.58946 18.2666 7.2088C17.7928 11.5837 17.2223 15.9473 16.7025 20.3176C15.1823 20.3156 13.6596 20.3156 12.1392 20.3156C12.9489 14.7402 13.8045 9.16899 14.5981 3.58881ZM25.2616 3.57271C26.874 3.56811 28.4887 3.57041 30.1035 3.57041C30.1058 8.03271 30.1035 12.4927 30.1058 16.9548C31.0925 16.9596 32.0793 16.9573 33.0661 16.9573C33.0707 18.0775 33.0684 19.1952 33.0684 20.3156C30.4669 20.3181 27.8654 20.3133 25.2639 20.3156C25.2593 14.7354 25.2639 9.15289 25.2616 3.57271ZM34.2184 3.57271C35.8354 3.56811 37.4548 3.57041 39.0741 3.57041C39.0787 8.03271 39.0741 12.4927 39.0764 16.9548C40.0539 16.9596 41.0315 16.9573 42.0091 16.9573C42.0114 18.0775 42.0114 19.1952 42.0114 20.3156H34.2207C34.2161 14.7354 34.2207 9.15289 34.2184 3.57271ZM48.0332 3.57271C50.1723 3.55661 52.3138 3.57271 54.4504 3.66701C55.5754 3.74752 56.7529 3.82573 57.756 4.39386C58.6599 4.9367 59.2143 5.96487 59.2232 7.01604C59.3707 9.92804 59.2856 12.8492 59.2948 15.7635C59.2373 16.9665 59.3638 18.3653 58.492 19.3242C57.5211 20.2118 56.1277 20.2558 54.8833 20.3064C52.6015 20.3317 50.3175 20.3064 48.0332 20.3156C48.0309 14.7354 48.0332 9.15289 48.0332 3.57271ZM52.8888 6.45251C52.8911 10.1282 52.8911 13.8017 52.8888 17.4772C53.3512 17.376 54.055 17.4703 54.2595 16.9228C54.5447 15.7152 54.3929 14.455 54.432 13.2219C54.3929 11.2069 54.5173 9.18279 54.3607 7.17016C54.2942 6.44561 53.425 6.47551 52.8888 6.45251ZM60.5069 3.57271C62.1171 3.56788 63.7272 3.57271 65.3373 3.57041C65.3396 7.63709 65.3373 11.7038 65.3373 15.7704C65.3467 16.3087 65.335 16.8515 65.4362 17.3829C65.5098 17.9924 66.584 17.9648 66.6302 17.353C66.7381 16.8287 66.7268 16.2903 66.7335 15.7589C66.7289 11.6969 66.7358 7.63479 66.7289 3.57271C68.339 3.56581 69.9491 3.57271 71.5615 3.57041C71.5569 7.48068 71.5755 11.3909 71.5523 15.2989C71.5017 16.3754 71.6213 17.56 70.9821 18.4961C70.2205 19.7725 68.7417 20.4211 67.3108 20.5729C65.4985 20.78 63.5273 20.5663 62.0092 19.4758C61.0546 18.7972 60.5555 17.6287 60.5667 16.4738C60.4515 12.1753 60.5322 7.874 60.5069 3.57271ZM72.6032 3.57041H83.2369C83.2392 4.69059 83.2369 5.80846 83.2392 6.92864C82.2777 6.92864 81.3165 6.92634 80.3573 6.93094V20.3156C78.7332 20.3156 77.1093 20.3181 75.4856 20.3133V6.93094C74.5287 6.92864 73.5718 6.92634 72.615 6.93094C72.5943 5.81076 72.6055 4.69059 72.6032 3.57041ZM84.1089 3.57041C85.5991 3.58881 87.0899 3.53131 88.5804 3.60031C89.4956 6.60662 90.4964 9.58532 91.4438 12.5824C91.6626 13.3233 92.0212 14.0476 91.9982 14.8368C91.9867 16.6928 91.9959 18.5493 91.9915 20.4053C90.4987 20.4078 89.008 20.4078 87.5152 20.4053C87.5152 18.6252 87.5085 16.8448 87.52 15.0622C87.5248 14.6622 87.4991 14.2549 87.3728 13.8705C86.2781 10.441 85.1989 7.00454 84.1089 3.57041ZM91.076 3.57271C92.5571 3.56788 94.0387 3.57271 95.52 3.57041C94.4754 6.74003 93.4452 9.91424 92.4007 13.0836C91.7383 10.9677 90.9955 8.87204 90.395 6.7398C90.5355 5.67045 90.8601 4.63078 91.076 3.57271Z" fill="white"/>
<path d="M41.4593 7.58656C42.3103 7.21163 43.5846 7.57506 43.7249 8.60093C43.8192 9.83841 43.8284 11.0943 43.7157 12.3318C43.4581 13.7554 41.0775 13.8223 40.7025 12.4422C40.5185 11.3358 40.622 10.1972 40.6174 9.07936C40.5898 8.47442 40.8727 7.82348 41.4593 7.58656ZM42.0389 8.37781C41.9377 9.74641 41.9791 11.1219 42.0136 12.4928L42.3379 12.387C42.4829 11.1242 42.4392 9.82921 42.3678 8.56183C42.2873 8.51582 42.1217 8.42382 42.0389 8.37781ZM44.2287 7.57506C44.9624 7.57276 45.6939 7.57046 46.4253 7.57506C46.423 7.95458 46.4207 8.33641 46.4207 8.71824L45.5306 8.72514C45.5306 9.09086 45.5283 9.45659 45.5283 9.82231C45.7928 9.82461 46.0596 9.82691 46.3287 9.83151C46.3287 10.1811 46.3287 10.5308 46.331 10.8804L45.5306 10.8873C45.5306 11.6992 45.5283 12.5087 45.5306 13.3211C45.0958 13.3211 44.6634 13.3234 44.2312 13.3257C44.2287 11.4071 44.231 9.49109 44.2287 7.57506Z" fill="white"/>
<path d="M93.737 18.8194C94.0491 18.8194 94.3063 18.9174 94.5078 19.1136C94.7095 19.31 94.8102 19.5416 94.8102 19.8087C94.8102 20.0808 94.7079 20.3138 94.5029 20.5075C94.298 20.7011 94.0519 20.7982 93.7641 20.7982C93.4745 20.7982 93.228 20.7016 93.0239 20.5082C92.8199 20.3147 92.718 20.0817 92.718 19.8087C92.718 19.6166 92.7718 19.4402 92.8797 19.2796C92.9878 19.1189 93.1228 19.002 93.285 18.9289C93.4469 18.8557 93.5978 18.8194 93.737 18.8194ZM93.7887 19.0117C93.5323 19.0117 93.3241 19.092 93.1647 19.252C93.0055 19.4121 92.9257 19.598 92.9257 19.8089C92.9257 20.0274 93.0081 20.2149 93.173 20.3706C93.3377 20.5266 93.5357 20.6048 93.7669 20.6048C93.9971 20.6048 94.1947 20.5266 94.3596 20.3706C94.5243 20.2147 94.6067 20.0274 94.6067 19.8089C94.6067 19.6582 94.5653 19.5193 94.4825 19.3921C94.3997 19.2649 94.2932 19.1699 94.1627 19.1067C94.0328 19.0436 93.9081 19.0117 93.7887 19.0117ZM93.3041 20.3373V19.2872H93.8299C93.9599 19.2872 94.0549 19.3158 94.114 19.373C94.1731 19.4303 94.2025 19.5007 94.2025 19.5842C94.2025 19.6652 94.1779 19.7302 94.1282 19.7792C94.0786 19.8285 94.0038 19.8614 93.9035 19.8791C93.9491 19.8952 93.9852 19.9175 94.0121 19.9455C94.039 19.9734 94.0818 20.0341 94.14 20.127L94.2695 20.3375H93.9923L93.8996 20.1684C93.8442 20.0677 93.7952 19.9991 93.7529 19.9623C93.7103 19.926 93.6549 19.9076 93.5868 19.9076H93.5281V20.3377H93.3041V20.3373ZM93.5281 19.7404H93.711C93.803 19.7404 93.8683 19.7289 93.907 19.7063C93.9456 19.6833 93.9649 19.6461 93.9649 19.5945C93.966 19.5735 93.9612 19.5526 93.9511 19.5342C93.9411 19.5157 93.9261 19.5004 93.9079 19.4899C93.8695 19.4664 93.8117 19.4551 93.7345 19.4551H93.5284V19.7404H93.5281Z" fill="white"/>
</svg>
