<svg width="48" height="32" viewBox="0 0 48 32" fill="none" xmlns="http://www.w3.org/2000/svg">
<rect width="48" height="32" rx="2.87452" fill="#016FD0"/>
<path d="M12.9698 22V16.8059H18.9395L19.58 17.5751L20.2416 16.8059H41.91V21.6418C41.91 21.6418 41.3433 21.9948 40.6879 22H28.6897L27.9676 21.1812V22H25.6013V20.6023C25.6013 20.6023 25.2781 20.7974 24.5792 20.7974H23.7738V22H20.191L19.5514 21.2143L18.902 22H12.9698Z" fill="white"/>
<path d="M5.99915 12.8913L7.34532 10H9.6734L10.4374 11.6196V10H13.3314L13.7862 11.1706L14.2271 10H27.2182V10.5885C27.2182 10.5885 27.9011 10 29.0235 10L33.2386 10.0136L33.9894 11.612V10H36.4113L37.0778 10.9181V10H39.5219V15.1941H37.0778L36.4391 14.273V15.1941H32.8808L32.523 14.3753H31.5664L31.2144 15.1941H28.8013C27.8356 15.1941 27.2182 14.6176 27.2182 14.6176V15.1941H23.5799L22.8577 14.3753V15.1941H9.32851L8.97092 14.3753H8.0174L7.66234 15.1941H5.99915V12.8913Z" fill="white"/>
<path d="M7.82071 10.64L6.005 14.5292H7.18712L7.52214 13.7504H9.46977L9.80305 14.5292H11.0112L9.19724 10.64H7.82071ZM8.49248 11.5451L9.08614 12.906H7.89708L8.49248 11.5451Z" fill="#016FD0"/>
<path d="M11.1359 14.5288V10.6396L12.8157 10.6454L13.7928 13.1529L14.7464 10.6396H16.4129V14.5288H15.3575V11.6631L14.2387 14.5288H13.3131L12.1913 11.6631V14.5288H11.1359Z" fill="#016FD0"/>
<path d="M17.1359 14.5288V10.6396H20.5798V11.5096H18.2024V12.1748H20.5242V12.9936H18.2024V13.6845H20.5798V14.5288H17.1359Z" fill="#016FD0"/>
<path d="M21.1906 10.64V14.5292H22.246V13.1475H22.6903L23.9558 14.5292H25.2455L23.8568 13.0963C24.4267 13.052 25.0146 12.6014 25.0146 11.9018C25.0146 11.0833 24.3174 10.64 23.5392 10.64H21.1906ZM22.246 11.51H23.4524C23.7418 11.51 23.9523 11.7185 23.9523 11.9193C23.9523 12.1777 23.6795 12.3287 23.468 12.3287H22.246V11.51Z" fill="#016FD0"/>
<path d="M26.5221 14.5288H25.4445V10.6396H26.5221V14.5288Z" fill="#016FD0"/>
<path d="M29.0776 14.5288H28.845C27.7196 14.5288 27.0363 13.712 27.0363 12.6002C27.0363 11.461 27.7119 10.6396 29.1332 10.6396H30.2997V11.5608H29.0905C28.5136 11.5608 28.1055 11.9756 28.1055 12.6098C28.1055 13.363 28.5721 13.6793 29.2443 13.6793H29.522L29.0776 14.5288Z" fill="#016FD0"/>
<path d="M31.3734 10.64L29.5577 14.5292H30.7399L31.0749 13.7504H33.0225L33.3558 14.5292H34.5639L32.75 10.64H31.3734ZM32.0452 11.5451L32.6389 12.906H31.4498L32.0452 11.5451Z" fill="#016FD0"/>
<path d="M34.6886 14.5288V10.6396H36.0304L37.7437 13.0832V10.6396H38.7991V14.5288H37.5007L35.744 12.0213V14.5288H34.6886Z" fill="#016FD0"/>
<path d="M13.6925 21.3346V17.4454H17.1364V18.3154H14.759V18.9806H17.0809V19.7994H14.759V20.4902H17.1364V21.3346H13.6925Z" fill="#016FD0"/>
<path d="M30.5675 21.3346V17.4454H34.0114V18.3154H31.634V18.9806H33.9448V19.7994H31.634V20.4902H34.0114V21.3346H30.5675Z" fill="#016FD0"/>
<path d="M17.2695 21.3346L18.9464 19.414L17.2296 17.4454H18.5593L19.5817 18.6624L20.6076 17.4454H21.8852L20.191 19.39L21.8709 21.3346H20.5414L19.5487 20.1368L18.5801 21.3346H17.2695Z" fill="#016FD0"/>
<path d="M21.9952 17.4459V21.3351H23.0784V20.1069H24.1894C25.1294 20.1069 25.8419 19.6475 25.8419 18.754C25.8419 18.0139 25.2831 17.4459 24.3265 17.4459H21.9952ZM23.0784 18.3255H24.2484C24.5521 18.3255 24.7691 18.4969 24.7691 18.7732C24.7691 19.0328 24.5532 19.221 24.2449 19.221H23.0784V18.3255Z" fill="#016FD0"/>
<path d="M26.2999 17.4454V21.3346H27.3553V19.9529H27.7997L29.0651 21.3346H30.3549L28.9662 19.9017C29.5361 19.8574 30.124 19.4068 30.124 18.7072C30.124 17.8888 29.4267 17.4454 28.6485 17.4454H26.2999ZM27.3553 18.3154H28.5617C28.8511 18.3154 29.0617 18.5239 29.0617 18.7248C29.0617 18.9831 28.7889 19.1342 28.5774 19.1342H27.3553V18.3154Z" fill="#016FD0"/>
<path d="M34.5003 21.3346V20.4902H36.6125C36.9251 20.4902 37.0604 20.3347 37.0604 20.164C37.0604 20.0005 36.9255 19.8352 36.6125 19.8352H35.6581C34.8284 19.8352 34.3663 19.3695 34.3663 18.6704C34.3663 18.0468 34.7895 17.4454 36.0223 17.4454H38.0776L37.6332 18.3205H35.8557C35.5159 18.3205 35.4113 18.4848 35.4113 18.6416C35.4113 18.8028 35.5406 18.9806 35.8001 18.9806H36.8C37.7249 18.9806 38.1262 19.4639 38.1262 20.0968C38.1262 20.7773 37.679 21.3346 36.7497 21.3346H34.5003Z" fill="#016FD0"/>
<path d="M38.3734 21.3346V20.4902H40.4856C40.7981 20.4902 40.9334 20.3347 40.9334 20.164C40.9334 20.0005 40.7985 19.8352 40.4856 19.8352H39.5311C38.7014 19.8352 38.2394 19.3695 38.2394 18.6704C38.2394 18.0468 38.6625 17.4454 39.8954 17.4454H41.9506L41.5063 18.3205H39.7287C39.389 18.3205 39.2844 18.4848 39.2844 18.6416C39.2844 18.8028 39.4136 18.9806 39.6732 18.9806H40.673C41.5979 18.9806 41.9992 19.4639 41.9992 20.0968C41.9992 20.7773 41.552 21.3346 40.6227 21.3346H38.3734Z" fill="#016FD0"/>
</svg>
