<svg width="48" height="32" viewBox="0 0 48 32" fill="none" xmlns="http://www.w3.org/2000/svg">
<rect x="0.5" y="0.5" width="47" height="31" rx="2.06271" fill="white" stroke="#E2E2E2"/>
<path d="M28.3271 23.8609H19.6746V8.13721H28.3272L28.3271 23.8609Z" fill="#FF5F00"/>
<path d="M20.2222 16C20.2222 12.8105 21.6991 9.96922 23.9989 8.13819C22.2581 6.75016 20.1049 5.99682 17.888 6.00013C12.4269 6.00013 8 10.4772 8 16C8 21.5229 12.4269 25.9999 17.888 25.9999C20.105 26.0033 22.2582 25.2499 23.9991 23.8618C21.6994 22.0311 20.2222 19.1897 20.2222 16Z" fill="#EB001B"/>
<path d="M39.9995 15.9999C39.9995 21.5228 35.5727 25.9998 30.1115 25.9998C27.8943 26.0031 25.7409 25.2498 23.9996 23.8617C26.3001 22.0307 27.777 19.1896 27.777 15.9999C27.777 12.8102 26.3001 9.9691 23.9996 8.13807C25.7408 6.75008 27.8942 5.99676 30.1114 6.00001C35.5725 6.00001 39.9994 10.477 39.9994 15.9999" fill="#F79E1B"/>
</svg>
