<svg width="48" height="32" viewBox="0 0 48 32" fill="none" xmlns="http://www.w3.org/2000/svg">
<rect width="48" height="32" rx="2.73356" fill="white"/>
<path fill-rule="evenodd" clip-rule="evenodd" d="M2.05576 0C1.20585 0 0.671936 0.153332 0.375502 0.482299C0.118462 0.854942 0 1.46858 0 2.3672V8.48221H48V2.3672C48 0.767281 47.2878 0 45.8646 0H2.05576Z" fill="#315881"/>
<path fill-rule="evenodd" clip-rule="evenodd" d="M0 29.5455C0 31.1668 0.691773 32 2.05576 32H45.8646C47.2878 32 48 31.1671 48 29.5455V23.4302H0V29.5455Z" fill="#DFA43B"/>
<path fill-rule="evenodd" clip-rule="evenodd" d="M16.9935 12.1517C16.9935 12.3894 16.9553 12.5721 16.8605 12.7002L13.533 18.2759L13.3237 11.4754H8L9.7872 12.298C10.3004 12.6088 10.5667 13.0107 10.5667 13.5228L11.0609 20.744H13.6658L19.9026 11.4754H16.7084C16.8984 11.6399 16.9935 11.8957 16.9935 12.1517ZM38.5173 11.7495L38.726 11.4751H35.4746C35.5886 11.5846 35.6267 11.6397 35.6267 11.6761C35.5883 11.8221 35.5123 11.9138 35.4746 12.0233L30.7402 20.3226C30.6263 20.4688 30.5118 20.597 30.3791 20.7435H33.06L32.9267 20.4691C32.9267 20.2314 33.06 19.793 33.3451 19.1714L33.9156 18.1475H36.6726C36.787 19.0068 36.8631 19.7199 36.901 20.2503L36.6726 20.7437H40L39.5056 20.049L38.5173 11.7495ZM36.5395 16.8498H34.5621L36.2542 13.7238L36.5395 16.8498ZM28.3256 11C27.2991 11 26.4242 11.2744 25.6446 11.8226C24.7888 12.298 24.3707 12.9012 24.3707 13.6509C24.3707 14.5102 24.6749 15.2597 25.2832 15.8263L27.1279 17.0508C27.7935 17.5081 28.1168 17.9101 28.1168 18.2759C28.1168 18.6232 27.9451 18.934 27.6224 19.1716C27.2991 19.4093 26.9374 19.5189 26.4814 19.5189C25.8158 19.5189 24.6751 19.0621 23.097 18.2212V19.9211C24.3328 20.6342 25.531 21 26.6905 21C27.7935 21 28.7251 20.7073 29.524 20.0493C30.3796 19.4458 30.7977 18.7332 30.7977 17.9471C30.7977 17.2885 30.4933 16.6855 29.8089 16.0456L28.0402 14.8208C27.4515 14.3637 27.1279 13.9615 27.1279 13.6509C27.1279 12.9382 27.5651 12.5723 28.4589 12.5723C29.0672 12.5723 29.961 12.9015 31.1586 13.5962L31.5203 11.8228C30.5121 11.2741 29.4665 11 28.3256 11ZM21.2526 20.7437C21.2144 20.3598 21.1384 20.0126 21.1002 19.6468L23.5151 12.1517L24.0856 11.4754H20.606C20.6442 11.6399 20.6821 11.8593 20.7202 12.0238C20.7202 12.1884 20.7202 12.3897 20.6821 12.5723L18.2675 19.9942L17.773 20.744H21.2526V20.7437Z" fill="#315881"/>
</svg>
