<svg width="779" height="352" viewBox="0 0 779 352" fill="none" xmlns="http://www.w3.org/2000/svg">
<path d="M704.077 141.696H680.539V223.173H704.077V141.696Z" fill="#F2F2F2"/>
<path d="M719.623 207.846L662.375 139.74L547.462 140.791L477.754 208.688L479.163 209.593H478.659V350.82H719.469V209.593L719.623 207.846Z" fill="#F2F2F2"/>
<path d="M662.434 139.886L590.916 223.734V350.82H719.469V207.783L662.434 139.886Z" fill="#E6E6E6"/>
<path d="M668.773 280.539H642.52V303.745H668.773V280.539Z" fill="#3F3D56"/>
<path d="M668.773 240.374H642.52V263.211H668.773V240.374Z" fill="#3F3D56"/>
<path d="M668.773 280.539H642.52V303.745H668.773V280.539Z" fill="white"/>
<path d="M668.773 240.374H642.52V263.211H668.773V240.374Z" fill="white"/>
<path d="M552.099 274.382H525.846V297.587H552.099V274.382Z" fill="white"/>
<path d="M552.099 234.216H525.846V257.054H552.099V234.216Z" fill="white"/>
<path d="M518.333 141.696H494.795V223.173H518.333V141.696Z" fill="#F2F2F2"/>
<path d="M533.877 207.846L476.629 139.74L361.716 140.791L292.008 208.688L293.417 209.593H292.913V350.82H533.723V209.593L533.877 207.846Z" fill="#F2F2F2"/>
<path d="M476.688 139.886L405.17 223.734V350.82H533.723V207.783L476.688 139.886Z" fill="#E6E6E6"/>
<path d="M483.027 280.539H456.773V303.745H483.027V280.539Z" fill="#3F3D56"/>
<path d="M483.027 240.374H456.773V263.211H483.027V240.374Z" fill="#3F3D56"/>
<path d="M483.027 280.539H456.773V303.745H483.027V280.539Z" fill="white"/>
<path d="M483.027 240.374H456.773V263.211H483.027V240.374Z" fill="white"/>
<path d="M366.351 274.382H340.098V297.587H366.351V274.382Z" fill="white"/>
<path d="M366.351 234.216H340.098V257.054H366.351V234.216Z" fill="white"/>
<path d="M328.142 71.3799H296.689V180.253H328.142V71.3799Z" fill="#F2F2F2"/>
<path d="M348.912 159.771L272.416 68.7667L118.864 70.17L25.7168 160.897L27.5985 162.107H26.9265V350.82H348.706V162.107L348.912 159.771Z" fill="#F2F2F2"/>
<path d="M272.494 68.9601L176.928 181.002V350.82H348.705V159.688L272.494 68.9601Z" fill="#E6E6E6"/>
<path d="M280.962 256.908H245.881V287.916H280.962V256.908Z" fill="#3F3D56"/>
<path d="M280.962 203.237H245.881V233.753H280.962V203.237Z" fill="#3F3D56"/>
<path d="M280.962 256.908H245.881V287.916H280.962V256.908Z" fill="white"/>
<path d="M280.962 203.237H245.881V233.753H280.962V203.237Z" fill="white"/>
<path d="M125.06 248.68H89.9785V279.688H125.06V248.68Z" fill="white"/>
<path d="M125.06 195.009H89.9785V225.525H125.06V195.009Z" fill="white"/>
<path d="M752.311 350.123H0V351.684H752.311V350.123Z" fill="#3F3D56"/>
<path d="M118.527 321.424C131.069 321.424 141.237 300.677 141.237 275.085C141.237 249.493 131.069 228.747 118.527 228.747C105.984 228.747 95.8164 249.493 95.8164 275.085C95.8164 300.677 105.984 321.424 118.527 321.424Z" fill="#3F3D56"/>
<path d="M120.625 350.934C111.53 296.361 120.534 241.985 120.626 241.443L122.395 241.743C122.304 242.283 113.351 296.373 122.396 350.64L120.625 350.934Z" fill="#EB922F"/>
<path d="M138.525 265.121L117.988 276.106L118.835 277.688L139.371 266.704L138.525 265.121Z" fill="#EB922F"/>
<path d="M97.1595 270.623L96.3125 272.206L116.846 283.197L117.693 281.614L97.1595 270.623Z" fill="#EB922F"/>
<path d="M63.9619 294.254C88.4938 294.254 108.381 253.676 108.381 203.621C108.381 153.566 88.4938 112.989 63.9619 112.989C39.43 112.989 19.543 153.566 19.543 203.621C19.543 253.676 39.43 294.254 63.9619 294.254Z" fill="#EB922F"/>
<path d="M68.9088 351.831C51.1423 245.234 68.7296 139.025 68.9093 137.965L70.6786 138.264C70.4993 139.322 52.9637 245.245 70.679 351.537L68.9088 351.831Z" fill="#3F3D56"/>
<path d="M103.472 184.888L63.3047 206.373L64.1512 207.955L104.319 186.47L103.472 184.888Z" fill="#3F3D56"/>
<path d="M21.7591 195.651L20.9121 197.233L61.0738 218.729L61.9208 217.147L21.7591 195.651Z" fill="#3F3D56"/>
<path d="M169.163 273.095C202.733 273.095 229.946 217.568 229.946 149.072C229.946 80.5753 202.733 25.0481 169.163 25.0481C135.593 25.0481 108.379 80.5753 108.379 149.072C108.379 217.568 135.593 273.095 169.163 273.095Z" fill="#EB922F"/>
<path d="M176.262 351.831C151.959 206.015 176.017 60.7313 176.263 59.2809L178.032 59.5806C177.787 61.0283 153.781 206.026 178.032 351.537L176.262 351.831Z" fill="#3F3D56"/>
<path d="M223.39 123.728L168.424 153.129L169.27 154.712L224.237 125.311L223.39 123.728Z" fill="#3F3D56"/>
<path d="M111.259 138.457L110.412 140.039L165.371 169.454L166.217 167.872L111.259 138.457Z" fill="#3F3D56"/>
<path d="M679.791 321.424C692.333 321.424 702.501 300.677 702.501 275.085C702.501 249.493 692.333 228.747 679.791 228.747C667.248 228.747 657.08 249.493 657.08 275.085C657.08 300.677 667.248 321.424 679.791 321.424Z" fill="#3F3D56"/>
<path d="M677.692 350.934C686.788 296.361 677.784 241.985 677.692 241.443L675.922 241.743C676.014 242.283 684.966 296.373 675.922 350.64L677.692 350.934Z" fill="#EB922F"/>
<path d="M659.796 265.121L658.949 266.704L679.486 277.688L680.332 276.106L659.796 265.121Z" fill="#EB922F"/>
<path d="M701.161 270.624L680.627 281.615L681.474 283.197L702.008 272.206L701.161 270.624Z" fill="#EB922F"/>
<path d="M734.36 294.254C758.892 294.254 778.779 253.676 778.779 203.621C778.779 153.566 758.892 112.989 734.36 112.989C709.828 112.989 689.941 153.566 689.941 203.621C689.941 253.676 709.828 294.254 734.36 294.254Z" fill="#EB922F"/>
<path d="M729.409 351.831C747.175 245.234 729.588 139.025 729.408 137.965L727.639 138.264C727.818 139.322 745.354 245.245 727.639 351.537L729.409 351.831Z" fill="#3F3D56"/>
<path d="M694.847 184.888L694 186.471L734.168 207.956L735.014 206.373L694.847 184.888Z" fill="#3F3D56"/>
<path d="M776.556 195.651L736.395 217.147L737.241 218.729L777.403 197.233L776.556 195.651Z" fill="#3F3D56"/>
<path d="M629.153 273.095C662.723 273.095 689.937 217.568 689.937 149.072C689.937 80.5753 662.723 25.0481 629.153 25.0481C595.583 25.0481 568.369 80.5753 568.369 149.072C568.369 217.568 595.583 273.095 629.153 273.095Z" fill="#EB922F"/>
<path d="M622.057 351.831C646.36 206.015 622.303 60.7313 622.057 59.2809L620.288 59.5806C620.533 61.0283 644.539 206.026 620.287 351.537L622.057 351.831Z" fill="#3F3D56"/>
<path d="M574.929 123.728L574.082 125.311L629.048 154.711L629.895 153.129L574.929 123.728Z" fill="#3F3D56"/>
<path d="M687.06 138.457L632.102 167.872L632.949 169.454L687.907 140.039L687.06 138.457Z" fill="#3F3D56"/>
<path d="M460.154 79.1888L467.338 73.4425C461.757 72.8268 459.464 75.8707 458.525 78.28C454.165 76.4694 449.418 78.8423 449.418 78.8423L463.793 84.0609C463.068 82.1239 461.805 80.4338 460.154 79.1888Z" fill="#3F3D56"/>
<path d="M284.554 28.4595L291.739 22.7133C286.157 22.0975 283.864 25.1415 282.926 27.5508C278.565 25.7401 273.818 28.113 273.818 28.113L288.193 33.3317C287.468 31.3947 286.206 29.7046 284.554 28.4595Z" fill="#3F3D56"/>
<path d="M570.976 5.82673L578.161 0.0804732C572.579 -0.535298 570.286 2.50864 569.347 4.91796C564.987 3.10732 560.24 5.48024 560.24 5.48024L574.615 10.6988C573.89 8.76186 572.628 7.07177 570.976 5.82673Z" fill="#3F3D56"/>
<path d="M585.482 341.095C583.572 341.095 581.696 341.598 580.043 342.555C578.364 341.036 576.28 340.038 574.045 339.681C571.809 339.324 569.518 339.623 567.45 340.543C565.381 341.463 563.624 342.963 562.392 344.862C561.16 346.761 560.505 348.977 560.508 351.241H596.369C596.173 348.487 594.942 345.909 592.922 344.026C590.902 342.144 588.243 341.096 585.482 341.095Z" fill="#3F3D56"/>
<path d="M221.015 341.095C219.105 341.095 217.229 341.598 215.576 342.555C213.897 341.036 211.813 340.038 209.578 339.681C207.342 339.324 205.051 339.623 202.983 340.543C200.914 341.463 199.157 342.963 197.925 344.862C196.693 346.761 196.038 348.977 196.041 351.241H231.902C231.707 348.487 230.475 345.909 228.455 344.026C226.435 342.144 223.777 341.096 221.015 341.095Z" fill="#3F3D56"/>
<path d="M407.541 341.095C405.631 341.095 403.755 341.598 402.101 342.555C400.422 341.036 398.339 340.038 396.103 339.681C393.868 339.324 391.577 339.623 389.508 340.543C387.44 341.463 385.683 342.963 384.45 344.862C383.218 346.761 382.564 348.977 382.566 351.241H418.428C418.232 348.487 417 345.909 414.98 344.026C412.96 342.144 410.302 341.096 407.541 341.095Z" fill="#3F3D56"/>
<path d="M368.183 315.478H264.721V318.815H280.856V350.522H284.194V318.815H347.041V350.522H350.378V318.815H368.183V315.478Z" fill="#3F3D56"/>
<path d="M368.386 305.493H264.924V308.83H368.386V305.493Z" fill="#3F3D56"/>
<path d="M368.386 297.149H264.924V300.487H368.386V297.149Z" fill="#3F3D56"/>
<path d="M368.386 288.805H264.924V292.143H368.386V288.805Z" fill="#3F3D56"/>
<path d="M529.736 315.478H426.273V318.815H442.409V350.522H445.746V318.815H508.593V350.522H511.931V318.815H529.736V315.478Z" fill="#3F3D56"/>
<path d="M529.939 305.493H426.477V308.83H529.939V305.493Z" fill="#3F3D56"/>
<path d="M529.939 297.149H426.477V300.487H529.939V297.149Z" fill="#3F3D56"/>
<path d="M529.939 288.805H426.477V292.143H529.939V288.805Z" fill="#3F3D56"/>
</svg>
