<svg width="96" height="24" viewBox="0 0 96 24" fill="none" xmlns="http://www.w3.org/2000/svg">
<path d="M12 11.9568C12 17.4782 12.0137 21.9936 12.0319 21.9936C12.0592 21.9936 15.7689 21.3063 16.2241 21.2152L16.4608 21.1697V13.8003H19.2829V13.1266C19.2829 12.7579 19.2966 11.7975 19.3148 10.9873L19.3421 9.52156H16.4608V6.28976H18.1222C19.0371 6.28976 19.7836 6.28066 19.7836 6.267C19.7836 6.21693 20.1478 2.32966 20.1705 2.13393L20.1979 1.92H12V11.9568ZM80.0864 2.50719L76.454 2.80761V20.9421L76.6042 20.9649C76.7362 20.9876 83.7688 21.4974 83.9099 21.4929C83.9509 21.4929 83.9645 21.0104 83.9645 19.2397V16.9866H80.8693V13.7093H83.5093V9.79468H80.7782V7.20013L80.8829 7.18192C80.9376 7.16827 81.4018 7.15006 81.9162 7.13185C82.4306 7.1182 83.0997 7.09544 83.4092 7.07723L83.9645 7.04992V2.19311L83.8416 2.19766C83.7688 2.20221 82.0801 2.33877 80.0864 2.50719ZM56.7673 3.13534C56.8128 3.59052 57.3317 10.4501 57.3226 10.4592C57.3181 10.4683 56.649 8.82513 55.8342 6.80867C55.024 4.79221 54.3412 3.12168 54.323 3.08982C54.2957 3.03975 53.0394 3.27189 50.9774 3.70887L50.7816 3.74984V19.399H54.8328L54.81 19.0713C54.7645 18.4614 54.5961 13.4179 54.6143 13.2177C54.6279 13.0401 54.7645 13.3497 56.0572 16.4722C56.8401 18.3703 57.5047 19.9407 57.5229 19.968C57.5502 19.9953 58.1829 19.9544 59.2572 19.8633C60.1903 19.7814 60.955 19.7086 60.955 19.704C60.9595 19.6995 60.9368 16.4176 60.9049 12.412C60.8731 8.40636 60.8458 4.62379 60.8458 4.00019L60.8412 2.87588H56.74L56.7673 3.13534ZM24.7224 3.15355C22.0004 3.33562 20.5028 5.19732 20.0294 8.97534C19.9339 9.75826 19.8929 12.4165 19.9612 13.3451C20.1888 16.3584 21.0035 18.3157 22.451 19.3126C23.2294 19.8451 24.3992 20.1319 25.5554 20.0636C26.8708 19.9908 27.7676 19.6175 28.5732 18.8119C29.2333 18.1518 29.5928 17.5328 29.9388 16.4768C30.4213 15.002 30.6398 12.7989 30.5305 10.5048C30.4076 7.93753 30.0207 6.33983 29.2241 5.11539C28.464 3.95012 27.2623 3.25369 25.8603 3.1672C25.6373 3.15355 25.4006 3.13989 25.3369 3.13079C25.2732 3.12623 25 3.13534 24.7224 3.15355ZM25.3642 6.73129C25.6965 7.09088 25.8376 8.52471 25.8376 11.5927C25.8376 15.3707 25.6009 16.9411 25.082 16.6042C24.8589 16.454 24.6905 15.7212 24.6086 14.5058C24.5494 13.6182 24.5494 9.55343 24.6086 8.70223C24.6951 7.50055 24.8498 6.83598 25.082 6.67667C25.2094 6.58563 25.2322 6.59018 25.3642 6.73129ZM31.1177 11.4288V19.7177H35.2917L35.3191 19.1396C35.3373 18.8164 35.3737 17.7695 35.401 16.8045C35.4283 15.8395 35.4647 14.9929 35.4829 14.9246C35.5057 14.829 35.7014 15.4435 36.3023 17.5191C36.7392 19.0167 37.1079 20.2593 37.1261 20.2776C37.1625 20.3185 41.4322 19.9817 41.4777 19.9362C41.4913 19.918 41.018 18.4295 40.4262 16.6179L39.352 13.3315L39.5796 13.1312C40.3352 12.4712 40.9588 11.1966 41.1363 9.93578C41.2137 9.38501 41.1636 8.01946 41.0453 7.51421C40.5901 5.53416 39.3838 3.99564 37.8453 3.4221C37.1762 3.17631 37.2308 3.18086 34.0673 3.16265L31.1177 3.14444V11.4288ZM35.8107 7.06813C36.1338 7.22744 36.3978 7.6371 36.5389 8.20153C36.6345 8.57933 36.6209 9.77647 36.5162 10.1588C36.3205 10.878 35.9745 11.2968 35.4556 11.4561L35.3509 11.4834V6.92702L35.5011 6.95888C35.5785 6.97254 35.7196 7.02261 35.8107 7.06813ZM41.2683 5.31112V7.42772H43.5897V19.6266H47.9595V8.15601H50.3265V3.92281L50.2263 3.9046C50.1307 3.88184 41.4504 3.18996 41.3275 3.19451C41.282 3.19451 41.2683 3.6497 41.2683 5.31112ZM61.7971 11.9113V20.1729H66.3034V3.6497H61.7971V11.9113ZM71.447 4.22323C68.9799 4.35523 66.927 4.46447 66.886 4.46447C66.8087 4.46903 66.8041 4.60103 66.8041 6.60839V8.74775H69.1255V20.7191H73.5408V8.24705H75.9988V6.10769C75.9988 4.92876 75.9852 3.97288 75.967 3.97288C75.9442 3.97743 73.9141 4.08667 71.447 4.22323Z" fill="white"/>
</svg>
