<svg width="196" height="56" viewBox="0 0 196 56" fill="none" xmlns="http://www.w3.org/2000/svg">
<path d="M60.7349 40.2589C60.7349 40.649 61.0469 41 61.476 41H65.0644C65.4544 41 65.8054 40.649 65.8054 40.2589V31.093H70.681C75.4394 31.093 79.3789 27.1536 79.3789 22.3171C79.3789 17.5976 75.4394 13.6972 70.6419 13.6972H61.476C61.0469 13.6972 60.7349 14.0482 60.7349 14.4382V40.2589ZM65.8054 26.3345V18.4947H70.3299C72.5141 18.4947 74.3473 20.1328 74.3473 22.278C74.3473 24.5793 72.5141 26.3345 70.3299 26.3345H65.8054ZM82.1512 40.2589C82.1512 40.649 82.5022 41 82.8923 41H86.1686C86.5587 41 86.9097 40.649 86.9097 40.2589V14.4382C86.9097 14.0482 86.5587 13.6972 86.1686 13.6972H82.8923C82.5022 13.6972 82.1512 14.0482 82.1512 14.4382V40.2589ZM90.4664 36.0465C90.4664 39.3618 92.6116 41.39 95.7319 41.39C98.1502 41.39 99.5933 40.2199 100.49 39.4008L100.958 40.4539C101.153 40.883 101.349 41 101.622 41H103.026C103.416 41 103.767 40.649 103.767 40.2589V31.795C103.767 27.5436 102.636 25.0083 97.7601 25.0083C95.2639 25.0083 92.7676 25.6324 92.4556 25.7494C92.1045 25.8664 91.7925 26.1395 91.9095 26.7245L92.2606 28.7527C92.3386 29.2598 92.6116 29.6108 93.1577 29.4548C94.0547 29.1818 96.083 28.8697 97.5261 28.8697C98.9693 28.8697 99.5933 29.5718 99.5543 31.561C99.5543 31.561 98.2672 31.132 96.707 31.132C92.7286 31.132 90.4664 33.2772 90.4664 36.0465ZM94.7568 36.0465C94.7568 34.7984 95.7709 33.9403 97.2921 33.9403C98.4232 33.9403 99.4763 34.4083 99.4763 34.4083V36.5535C99.2423 37.0216 98.0332 38.0747 96.785 38.0747C95.5759 38.0747 94.7568 37.2166 94.7568 36.0465ZM112.572 39.9079L107.034 51.6481C106.761 52.1942 107.112 52.7012 107.697 52.7012H111.051C111.363 52.7012 111.597 52.4672 111.714 52.2332L123.649 26.4125C123.922 25.9054 123.61 25.3984 122.986 25.3984H119.866C119.398 25.3984 119.125 25.4374 118.93 25.8274L115.029 34.6423H114.99L111.051 25.8274C110.934 25.5934 110.739 25.3984 110.388 25.3984H106.878C106.293 25.3984 105.981 25.9054 106.215 26.4125L112.572 39.9079ZM126.297 40.2589C126.297 40.649 126.648 41 127.038 41H130.276C130.861 41 131.095 40.688 131.095 40.2589V31.9901C131.485 30.3909 132.694 29.2208 134.488 29.2208C136.36 29.2208 137.57 30.5859 137.57 32.7311V40.2589C137.57 40.649 137.882 41 138.311 41H141.47C141.86 41 142.211 40.649 142.211 40.2589V32.7701C142.211 28.8307 140.183 25.0083 135.229 25.0083C133.396 25.0083 131.875 25.7104 131.095 26.2955V14.4382C131.095 14.0482 130.744 13.6972 130.354 13.6972H127.038C126.648 13.6972 126.297 14.0482 126.297 14.4382V40.2589ZM145.391 33.1992C145.391 37.6847 148.706 41.39 153.387 41.39C155.922 41.39 157.911 40.4539 159.199 39.2448C159.589 38.9328 159.511 38.5037 159.238 38.2307L157.638 36.3975C157.365 36.0855 157.014 36.1635 156.624 36.3975C155.922 36.9046 154.791 37.3726 153.582 37.3726C151.32 37.3726 149.955 35.5784 149.838 33.9793H159.823C160.174 33.9793 160.525 33.7062 160.564 33.3162C160.603 33.0432 160.642 32.5361 160.642 32.2631C160.642 28.0507 157.365 25.0083 153.348 25.0083C148.706 25.0083 145.391 28.7917 145.391 33.1992ZM150.189 31.249C150.384 29.7668 151.671 28.5967 153.231 28.5967C154.713 28.5967 155.961 29.8058 156.078 31.249H150.189ZM163.93 40.2589C163.93 40.649 164.281 41 164.671 41H167.675C168.221 41 168.572 40.805 168.572 40.2589V30.8199C168.845 30.2739 169.781 29.2208 171.341 29.2208C171.77 29.2208 172.355 29.4158 172.472 29.4548C172.784 29.6108 173.174 29.4548 173.369 29.1038L174.812 26.5685C175.28 25.5934 173.642 25.0083 171.809 25.0083C169.391 25.0083 167.948 26.6465 167.402 27.4266L166.856 25.9054C166.739 25.5934 166.504 25.3984 166.153 25.3984H164.671C164.281 25.3984 163.93 25.7104 163.93 26.1395V40.2589ZM175.9 33.1602C175.9 37.6457 179.489 41.39 183.896 41.39C188.303 41.39 191.892 37.6457 191.892 33.1602C191.892 28.7527 188.303 25.0083 183.896 25.0083C179.489 25.0083 175.9 28.7527 175.9 33.1602ZM180.152 33.1602C180.152 30.976 181.79 29.2208 183.896 29.2208C185.963 29.2208 187.64 30.976 187.64 33.1602C187.64 35.3834 185.963 37.1776 183.896 37.1776C181.79 37.1776 180.152 35.3834 180.152 33.1602Z" fill="#2B2B2B"/>
<path fill-rule="evenodd" clip-rule="evenodd" d="M24.4673 6.45405C23.8323 5.42564 22.3368 5.42564 21.7017 6.45405L14.364 18.3372C14.1295 18.717 13.749 18.9837 13.3118 19.0745L1.44821 21.5393C0.153648 21.8083 -0.295022 23.4283 0.676703 24.3249L9.76035 32.7068C10.1537 33.0697 10.3431 33.6031 10.2668 34.1329L8.24939 48.138C8.06119 49.4445 9.42663 50.4185 10.6007 49.8152L22.3418 43.7824C22.808 43.5429 23.3611 43.5429 23.8273 43.7824L35.6797 49.8725C36.8318 50.4644 38.1796 49.5367 38.0379 48.2492L36.4783 34.0761C36.4235 33.5779 36.6016 33.0823 36.9609 32.733L45.6196 24.3159C46.5538 23.4077 46.0931 21.8244 44.8174 21.5594L32.8572 19.0745C32.4201 18.9837 32.0396 18.717 31.805 18.3372L24.4673 6.45405ZM29.4163 30.3563C30.5762 29.7475 30.5762 28.087 29.4163 27.4782L21.1308 23.1295C20.0487 22.5615 18.7504 23.3463 18.7504 24.5685V33.266C18.7504 34.4882 20.0487 35.273 21.1308 34.705L29.4163 30.3563Z" fill="#EB922F"/>
</svg>
