<svg width="812" height="560" viewBox="0 0 812 560" fill="none" xmlns="http://www.w3.org/2000/svg">
<path opacity="0.1" d="M458.842 76.2506C406.845 76.3201 356.795 61.58 308.923 45.2052C261.051 28.8304 213.547 10.494 162.517 2.72398C129.697 -2.27054 92.3777 -1.81144 66.7234 16.3233C42.029 33.7693 34.8781 62.6443 31.4279 89.3212C28.8332 109.39 27.6367 130.453 37.3545 148.81C44.102 161.554 55.6492 172.058 63.7879 184.203C92.1968 226.455 75.1125 280.428 47.5035 323.66C34.5581 343.944 19.3937 363.387 9.60639 384.833C-0.180923 406.278 -4.19463 430.597 5.78746 451.765C15.6791 472.745 38.0223 487.972 62.0002 498.371C110.693 519.532 167.386 524.067 222.555 525.813C344.677 529.688 467.036 521.785 589.068 513.883C634.227 510.962 679.589 508.019 723.816 499.554C748.371 494.858 773.657 487.888 791.068 472.612C813.168 453.219 817.689 421.554 801.607 398.794C774.638 360.618 703.525 353.419 684.187 312.113C673.523 289.373 682.719 263.295 696.263 241.376C725.311 194.345 775.312 152.219 776.154 99.6163C776.731 63.493 750.729 28.2531 711.893 12.553C671.186 -3.89132 615.682 0.338019 587.162 30.9868C557.835 62.5608 504.753 76.2019 458.842 76.2506Z" fill="#EB922F"/>
<path d="M690.419 448.927C690.419 448.927 681.87 443.285 673.398 447.299C673.398 447.299 676.006 452.321 686.733 451.848L690.419 448.927Z" fill="#EB922F"/>
<path d="M691.505 449.226C691.505 449.226 694.106 459.131 687.581 465.872C687.581 465.872 683.658 461.789 687.581 451.786L691.505 449.226Z" fill="#EB922F"/>
<path d="M702.134 439.717C702.134 439.717 701.501 431.293 682.476 434.089C682.476 434.089 682.385 439.522 689.063 442.096C695.741 444.67 698.802 442.499 702.134 439.717Z" fill="#EB922F"/>
<path d="M703.33 439.661C703.33 439.661 711.371 442.242 704.2 460.084C704.2 460.084 698.892 458.902 697.939 451.8C696.986 444.697 699.81 442.249 703.33 439.661Z" fill="#EB922F"/>
<path d="M714.07 427.71C714.07 427.71 715.163 413.847 695.72 415.266C695.72 415.266 694.329 427.787 710.641 431.042L714.07 427.71Z" fill="#EB922F"/>
<path d="M726.918 412.059C726.918 412.059 724.254 396.345 704.819 401.027C704.819 401.027 704.749 414.612 723.746 415.801L726.918 412.059Z" fill="#EB922F"/>
<path d="M736.309 395.879C736.309 395.879 731.843 380.575 712.589 385.153C712.589 385.153 717.173 398.919 735.029 398.703L736.309 395.879Z" fill="#EB922F"/>
<path d="M745.227 380.075C745.227 380.075 740.865 364.194 722.272 368.945C722.272 368.945 728.476 384.033 743.996 382.76L745.227 380.075Z" fill="#EB922F"/>
<path d="M750.973 365.063C750.973 365.063 747.62 345.642 730.285 349.941C730.285 349.941 735.321 367.609 749.7 367.894L750.973 365.063Z" fill="#EB922F"/>
<path d="M756.364 346.929C756.364 346.929 752.336 327.354 734.8 333.016C734.8 333.016 741.672 351.52 755.118 349.607L756.364 346.929Z" fill="#EB922F"/>
<path d="M759.675 330.053C759.675 330.053 753.282 310.471 739.725 311C739.725 311 746.256 331.681 758.541 333.955L759.675 330.053Z" fill="#EB922F"/>
<path d="M761.817 313.581C761.817 313.581 754.861 290.013 743.829 291.829C743.829 291.829 748.643 309.845 761.428 317.254L761.817 313.581Z" fill="#EB922F"/>
<path d="M763.028 293.93C763.028 293.93 756.503 274.292 745.637 273.506C745.637 273.506 750.076 292.831 762.812 299.035L763.028 293.93Z" fill="#EB922F"/>
<path d="M764.342 275.593C764.342 275.593 756.211 255.935 749.039 255.49C749.039 255.49 752.573 274.849 763.647 278.821L764.342 275.593Z" fill="#EB922F"/>
<path d="M765.24 258.537C765.24 258.537 760.238 237.188 753.053 235.414C753.053 235.414 754.034 252.881 764.516 260.137L765.24 258.537Z" fill="#EB922F"/>
<path d="M767.953 236.194C767.953 236.194 762.694 219.172 756.871 216.577C756.871 216.577 758.019 236.646 766.61 240.353L767.953 236.194Z" fill="#EB922F"/>
<path d="M770.199 221.586L771.257 191.577C771.257 191.577 760.37 214.198 769.413 226.851L770.199 221.586Z" fill="#EB922F"/>
<path d="M778.603 191.737C778.603 191.737 786.442 169.825 788.341 168.601C788.341 168.601 772.968 182.819 774.471 201.107L778.603 191.737Z" fill="#EB922F"/>
<path d="M714.599 427.606C714.599 427.606 728.386 425.804 727.976 445.289C727.976 445.289 715.517 447.32 711.448 431.202L714.599 427.606Z" fill="#EB922F"/>
<path d="M727.572 411.53C727.572 411.53 743.502 411.482 742.18 431.425C742.18 431.425 728.803 433.818 724.393 415.301L727.572 411.53Z" fill="#EB922F"/>
<path d="M736.462 397.166C736.462 397.166 750.924 390.384 760.176 407.892C760.176 407.892 746.82 413.541 735.182 399.997L736.462 397.166Z" fill="#EB922F"/>
<path d="M745.547 380.221C745.547 380.221 760.357 373.007 769.052 390.105C769.052 390.105 753.623 395.42 744.323 382.927L745.547 380.221Z" fill="#EB922F"/>
<path d="M750.785 365.488C750.785 365.488 765.038 351.874 776.411 365.641C776.411 365.641 761.852 376.847 750.131 368.521L750.785 365.488Z" fill="#EB922F"/>
<path d="M755.557 346.463C755.557 346.463 769.893 332.55 781.176 347.102C781.176 347.102 765.087 358.531 755.042 349.384L755.557 346.463Z" fill="#EB922F"/>
<path d="M758.235 329.496C758.235 329.496 769.281 312.106 782.289 315.988C782.289 315.988 770.826 334.4 758.36 333.58L758.235 329.496Z" fill="#EB922F"/>
<path d="M761.49 313.469C761.49 313.469 772.62 291.571 783.152 295.383C783.152 295.383 775.124 312.217 761.205 317.163L761.49 313.469Z" fill="#EB922F"/>
<path d="M762.263 292.789C762.263 292.789 773.705 275.551 784.425 277.659C784.425 277.659 775.069 295.14 761.15 297.776L762.263 292.789Z" fill="#EB922F"/>
<path d="M763.153 275.211C763.153 275.211 772.022 255.866 779.229 255.733C779.229 255.733 774.971 274.939 763.751 278.494L763.153 275.211Z" fill="#EB922F"/>
<path d="M764.892 258.119C764.892 258.119 774.749 238.531 782.157 238.489C782.157 238.489 777.114 255.239 765.219 259.837L764.892 258.119Z" fill="#EB922F"/>
<path d="M766.374 237.418C766.374 237.418 773.747 221.21 779.855 219.374C779.855 219.374 776.168 239.129 767.188 241.717L766.374 237.418Z" fill="#EB922F"/>
<path d="M771.076 220.994L787.555 195.89C787.555 195.89 783.333 220.653 768.669 225.801L771.076 220.994Z" fill="#EB922F"/>
<path d="M782.387 193.761C782.387 193.761 801.537 180.544 802.233 178.409C802.233 178.409 792.494 196.919 774.408 200.188L782.387 193.761Z" fill="#EB922F"/>
<path d="M783.535 187.813C783.535 187.813 805.523 166.674 811.137 166.695C811.137 166.695 793.002 167.522 783.006 186.687L783.535 187.813Z" fill="#EB922F"/>
<path d="M766.589 240.555L767.389 240.659C771.521 208.32 777.545 189.184 784.348 186.84L784.084 186.074C776.871 188.579 770.805 207.423 766.589 240.555Z" fill="#444053"/>
<path d="M760.51 317.894L761.72 317.991C761.977 314.972 762.172 311.883 762.304 308.802C763.459 282.035 765.247 257.452 767.598 239.025L766.902 238.155C764.544 256.624 762.249 281.944 761.094 308.753C760.962 311.814 760.767 314.889 760.51 317.894Z" fill="#444053"/>
<path d="M667.854 464.355C668.062 464.265 689.369 454.749 711.483 432.058C724.439 418.768 735.204 403.507 743.377 386.843C753.602 366.023 759.835 340.438 761.922 315.584L760.663 316.175C755.967 371.964 730.57 410.084 710.377 430.848C688.479 453.337 667.408 462.756 667.2 462.846L667.854 464.355Z" fill="#444053"/>
<path d="M723.023 59.2914H54.6198C53.0405 59.2914 51.526 59.9188 50.4093 61.0355C49.2926 62.1521 48.6653 63.6667 48.6653 65.2459V82.5946H728.977V65.2459C728.977 63.6667 728.35 62.1521 727.233 61.0355C726.117 59.9188 724.602 59.2914 723.023 59.2914Z" fill="#3F3D56"/>
<path d="M48.6653 82.5946V473.002C48.6653 476.186 49.9302 479.24 52.1819 481.492C54.4335 483.743 57.4873 485.008 60.6716 485.008H716.971C720.155 485.008 723.209 483.743 725.461 481.492C727.712 479.24 728.977 476.186 728.977 473.002V82.5946H48.6653Z" fill="white"/>
<path opacity="0.8" d="M59.4404 73.5516C60.9771 73.5516 62.2229 72.3059 62.2229 70.7692C62.2229 69.2324 60.9771 67.9867 59.4404 67.9867C57.9037 67.9867 56.658 69.2324 56.658 70.7692C56.658 72.3059 57.9037 73.5516 59.4404 73.5516Z" fill="#FA5959"/>
<path opacity="0.8" d="M67.092 73.5516C68.6287 73.5516 69.8745 72.3059 69.8745 70.7692C69.8745 69.2324 68.6287 67.9867 67.092 67.9867C65.5553 67.9867 64.3096 69.2324 64.3096 70.7692C64.3096 72.3059 65.5553 73.5516 67.092 73.5516Z" fill="#FED253"/>
<path opacity="0.8" d="M74.7439 73.5516C76.2806 73.5516 77.5264 72.3059 77.5264 70.7692C77.5264 69.2324 76.2806 67.9867 74.7439 67.9867C73.2072 67.9867 71.9614 69.2324 71.9614 70.7692C71.9614 72.3059 73.2072 73.5516 74.7439 73.5516Z" fill="#8CCF4D"/>
<path opacity="0.05" d="M658.658 147.69H111.904V388.109H658.658V147.69Z" fill="black"/>
<path d="M654.484 149.513H116.078V384.631H654.484V149.513Z" fill="#3F3D56"/>
<path d="M262.852 210.025C252.259 210.025 241.903 213.166 233.095 219.051C224.286 224.937 217.421 233.302 213.367 243.089C209.313 252.877 208.252 263.646 210.319 274.036C212.386 284.427 217.487 293.97 224.978 301.461C232.469 308.952 242.013 314.053 252.403 316.12C262.793 318.187 273.562 317.126 283.35 313.072C293.137 309.018 301.502 302.153 307.388 293.345C313.273 284.536 316.415 274.181 316.415 263.587C316.415 256.553 315.029 249.588 312.337 243.089C309.646 236.591 305.7 230.686 300.727 225.713C295.753 220.739 289.848 216.793 283.35 214.102C276.851 211.41 269.886 210.025 262.852 210.025ZM272.459 264.874V290.236H253.524V264.874C250.904 262.89 248.973 260.134 248.003 256.994C247.034 253.854 247.075 250.489 248.121 247.373C249.167 244.258 251.166 241.55 253.834 239.631C256.502 237.713 259.705 236.681 262.991 236.681C266.278 236.681 269.481 237.713 272.149 239.631C274.817 241.55 276.815 244.258 277.861 247.373C278.908 250.489 278.949 253.854 277.979 256.994C277.01 260.134 275.079 262.89 272.459 264.874Z" fill="#EB922F"/>
<path opacity="0.05" d="M262.852 210.025C252.259 210.025 241.903 213.166 233.095 219.051C224.286 224.937 217.421 233.302 213.367 243.089C209.313 252.877 208.252 263.646 210.319 274.036C212.386 284.427 217.487 293.97 224.978 301.461C232.469 308.952 242.013 314.053 252.403 316.12C262.793 318.187 273.562 317.126 283.35 313.072C293.137 309.018 301.502 302.153 307.388 293.345C313.273 284.536 316.415 274.181 316.415 263.587C316.415 256.553 315.029 249.588 312.337 243.089C309.646 236.591 305.7 230.686 300.727 225.713C295.753 220.739 289.848 216.793 283.35 214.102C276.851 211.41 269.886 210.025 262.852 210.025ZM272.459 264.874V290.236H253.524V264.874C250.904 262.89 248.973 260.134 248.003 256.994C247.034 253.854 247.075 250.489 248.121 247.373C249.167 244.258 251.166 241.55 253.834 239.631C256.502 237.713 259.705 236.681 262.991 236.681C266.278 236.681 269.481 237.713 272.149 239.631C274.817 241.55 276.815 244.258 277.861 247.373C278.908 250.489 278.949 253.854 277.979 256.994C277.01 260.134 275.079 262.89 272.459 264.874Z" fill="black"/>
<path d="M262.852 194.721C249.232 194.721 235.917 198.76 224.592 206.327C213.267 213.894 204.441 224.649 199.228 237.233C194.016 249.817 192.652 263.663 195.31 277.022C197.967 290.381 204.526 302.651 214.157 312.282C223.788 321.914 236.059 328.472 249.417 331.13C262.776 333.787 276.623 332.423 289.206 327.211C301.79 321.998 312.545 313.172 320.112 301.847C327.679 290.522 331.718 277.207 331.718 263.587C331.718 245.323 324.463 227.806 311.548 214.891C298.633 201.976 281.117 194.721 262.852 194.721ZM275.2 265.242V297.846H250.853V265.242C247.483 262.692 244.999 259.147 243.752 255.109C242.504 251.071 242.557 246.743 243.902 242.736C245.248 238.729 247.817 235.246 251.249 232.779C254.68 230.311 258.8 228.984 263.026 228.984C267.253 228.984 271.372 230.311 274.804 232.779C278.235 235.246 280.805 238.729 282.15 242.736C283.495 246.743 283.548 251.071 282.301 255.109C281.054 259.147 278.57 262.692 275.2 265.242Z" fill="#EB922F"/>
<path d="M582.836 254.551H360.239V278.202H582.836V254.551Z" fill="white"/>
<path d="M582.836 297.679H534.838V321.33H582.836V297.679Z" fill="#EB922F"/>
<path d="M382.15 266.022H378.123L381.705 262.446C381.769 262.38 381.805 262.291 381.805 262.199C381.805 262.107 381.769 262.018 381.705 261.952C381.673 261.92 381.634 261.894 381.592 261.876C381.55 261.858 381.504 261.849 381.458 261.849C381.412 261.849 381.367 261.858 381.324 261.876C381.282 261.894 381.244 261.92 381.211 261.952L377.629 265.535V261.5C377.629 261.408 377.592 261.319 377.527 261.254C377.462 261.189 377.373 261.152 377.281 261.152C377.189 261.154 377.102 261.191 377.037 261.256C376.972 261.321 376.935 261.408 376.933 261.5V265.535L373.358 261.931C373.325 261.899 373.287 261.873 373.245 261.855C373.202 261.838 373.157 261.828 373.111 261.828C373.065 261.828 373.019 261.838 372.977 261.855C372.935 261.873 372.896 261.899 372.864 261.931C372.8 261.997 372.764 262.086 372.764 262.178C372.764 262.27 372.8 262.359 372.864 262.425L376.446 266.001H372.412C372.32 266.002 372.233 266.04 372.168 266.104C372.103 266.169 372.066 266.257 372.064 266.348C372.064 266.441 372.101 266.529 372.166 266.594C372.231 266.66 372.32 266.696 372.412 266.696H376.446L372.864 270.279C372.8 270.345 372.764 270.433 372.764 270.526C372.764 270.618 372.8 270.706 372.864 270.773C372.931 270.835 373.019 270.87 373.111 270.87C373.203 270.87 373.291 270.835 373.358 270.773L376.933 267.19V271.218C376.933 271.31 376.97 271.398 377.035 271.464C377.1 271.529 377.189 271.566 377.281 271.566C377.373 271.566 377.462 271.529 377.527 271.464C377.592 271.398 377.629 271.31 377.629 271.218V267.19L381.211 270.773C381.278 270.835 381.367 270.87 381.458 270.87C381.55 270.87 381.638 270.835 381.705 270.773C381.769 270.706 381.805 270.618 381.805 270.526C381.805 270.433 381.769 270.345 381.705 270.279L378.123 266.696H382.15C382.243 266.696 382.331 266.66 382.396 266.594C382.462 266.529 382.498 266.441 382.498 266.348C382.493 266.26 382.454 266.177 382.389 266.116C382.325 266.055 382.239 266.021 382.15 266.022Z" fill="#EB922F"/>
<path d="M396.758 266.022H392.731L396.313 262.446C396.377 262.38 396.413 262.291 396.413 262.199C396.413 262.107 396.377 262.018 396.313 261.952C396.281 261.92 396.242 261.894 396.2 261.876C396.158 261.858 396.112 261.849 396.066 261.849C396.02 261.849 395.975 261.858 395.932 261.876C395.89 261.894 395.852 261.92 395.819 261.952L392.237 265.535V261.5C392.237 261.408 392.2 261.319 392.135 261.254C392.07 261.189 391.981 261.152 391.889 261.152C391.797 261.154 391.71 261.191 391.645 261.256C391.58 261.321 391.543 261.408 391.541 261.5V265.535L387.966 261.931C387.933 261.899 387.895 261.873 387.853 261.855C387.81 261.838 387.765 261.828 387.719 261.828C387.673 261.828 387.627 261.838 387.585 261.855C387.543 261.873 387.504 261.899 387.472 261.931C387.408 261.997 387.372 262.086 387.372 262.178C387.372 262.27 387.408 262.359 387.472 262.425L391.054 266.001H387.02C386.928 266.002 386.841 266.04 386.776 266.104C386.711 266.169 386.674 266.257 386.672 266.348C386.672 266.441 386.709 266.529 386.774 266.594C386.839 266.66 386.927 266.696 387.02 266.696H391.054L387.472 270.279C387.408 270.345 387.372 270.433 387.372 270.526C387.372 270.618 387.408 270.706 387.472 270.773C387.539 270.835 387.627 270.87 387.719 270.87C387.81 270.87 387.899 270.835 387.966 270.773L391.541 267.19V271.218C391.541 271.31 391.578 271.398 391.643 271.464C391.708 271.529 391.797 271.566 391.889 271.566C391.981 271.566 392.07 271.529 392.135 271.464C392.2 271.398 392.237 271.31 392.237 271.218V267.19L395.819 270.773C395.886 270.835 395.974 270.87 396.066 270.87C396.158 270.87 396.246 270.835 396.313 270.773C396.377 270.706 396.413 270.618 396.413 270.526C396.413 270.433 396.377 270.345 396.313 270.279L392.731 266.696H396.758C396.851 266.696 396.939 266.66 397.004 266.594C397.069 266.529 397.106 266.441 397.106 266.348C397.101 266.26 397.062 266.177 396.997 266.116C396.932 266.055 396.847 266.021 396.758 266.022Z" fill="#EB922F"/>
<path d="M411.366 266.022H407.339L410.921 262.446C410.985 262.38 411.021 262.291 411.021 262.199C411.021 262.107 410.985 262.018 410.921 261.952C410.889 261.92 410.85 261.894 410.808 261.876C410.765 261.858 410.72 261.849 410.674 261.849C410.628 261.849 410.583 261.858 410.54 261.876C410.498 261.894 410.459 261.92 410.427 261.952L406.845 265.535V261.5C406.845 261.408 406.808 261.319 406.743 261.254C406.678 261.189 406.589 261.152 406.497 261.152C406.405 261.154 406.318 261.191 406.253 261.256C406.188 261.321 406.151 261.408 406.149 261.5V265.535L402.574 261.931C402.541 261.899 402.503 261.873 402.46 261.855C402.418 261.838 402.373 261.828 402.327 261.828C402.281 261.828 402.235 261.838 402.193 261.855C402.151 261.873 402.112 261.899 402.08 261.931C402.016 261.997 401.98 262.086 401.98 262.178C401.98 262.27 402.016 262.359 402.08 262.425L405.662 266.001H401.628C401.536 266.002 401.448 266.04 401.384 266.104C401.319 266.169 401.282 266.257 401.28 266.348C401.28 266.441 401.316 266.529 401.382 266.594C401.447 266.66 401.535 266.696 401.628 266.696H405.662L402.08 270.279C402.016 270.345 401.98 270.433 401.98 270.526C401.98 270.618 402.016 270.706 402.08 270.773C402.147 270.835 402.235 270.87 402.327 270.87C402.418 270.87 402.507 270.835 402.574 270.773L406.149 267.19V271.218C406.149 271.31 406.186 271.398 406.251 271.464C406.316 271.529 406.405 271.566 406.497 271.566C406.589 271.566 406.678 271.529 406.743 271.464C406.808 271.398 406.845 271.31 406.845 271.218V267.19L410.427 270.773C410.494 270.835 410.582 270.87 410.674 270.87C410.766 270.87 410.854 270.835 410.921 270.773C410.985 270.706 411.021 270.618 411.021 270.526C411.021 270.433 410.985 270.345 410.921 270.279L407.339 266.696H411.366C411.458 266.696 411.547 266.66 411.612 266.594C411.677 266.529 411.714 266.441 411.714 266.348C411.709 266.26 411.67 266.177 411.605 266.116C411.54 266.055 411.455 266.021 411.366 266.022Z" fill="#EB922F"/>
<path d="M425.974 266.022H421.946L425.529 262.446C425.593 262.38 425.629 262.291 425.629 262.199C425.629 262.107 425.593 262.018 425.529 261.952C425.497 261.92 425.458 261.894 425.416 261.876C425.373 261.858 425.328 261.849 425.282 261.849C425.236 261.849 425.191 261.858 425.148 261.876C425.106 261.894 425.067 261.92 425.035 261.952L421.453 265.535V261.5C421.453 261.408 421.416 261.319 421.351 261.254C421.285 261.189 421.197 261.152 421.105 261.152C421.013 261.154 420.926 261.191 420.861 261.256C420.796 261.321 420.759 261.408 420.757 261.5V265.535L417.182 261.931C417.149 261.899 417.111 261.873 417.068 261.855C417.026 261.838 416.98 261.828 416.935 261.828C416.889 261.828 416.843 261.838 416.801 261.855C416.758 261.873 416.72 261.899 416.688 261.931C416.623 261.997 416.588 262.086 416.588 262.178C416.588 262.27 416.623 262.359 416.688 262.425L420.27 266.001H416.236C416.144 266.002 416.056 266.04 415.992 266.104C415.927 266.169 415.889 266.257 415.888 266.348C415.888 266.441 415.924 266.529 415.99 266.594C416.055 266.66 416.143 266.696 416.236 266.696H420.27L416.688 270.279C416.623 270.345 416.588 270.433 416.588 270.526C416.588 270.618 416.623 270.706 416.688 270.773C416.755 270.835 416.843 270.87 416.935 270.87C417.026 270.87 417.115 270.835 417.182 270.773L420.757 267.19V271.218C420.757 271.31 420.794 271.398 420.859 271.464C420.924 271.529 421.013 271.566 421.105 271.566C421.197 271.566 421.285 271.529 421.351 271.464C421.416 271.398 421.453 271.31 421.453 271.218V267.19L425.035 270.773C425.102 270.835 425.19 270.87 425.282 270.87C425.374 270.87 425.462 270.835 425.529 270.773C425.593 270.706 425.629 270.618 425.629 270.526C425.629 270.433 425.593 270.345 425.529 270.279L421.946 266.696H425.974C426.066 266.696 426.155 266.66 426.22 266.594C426.285 266.529 426.322 266.441 426.322 266.348C426.317 266.26 426.278 266.177 426.213 266.116C426.148 266.055 426.063 266.021 425.974 266.022Z" fill="#EB922F"/>
<path d="M440.582 266.022H436.555L440.137 262.446C440.201 262.38 440.237 262.291 440.237 262.199C440.237 262.107 440.201 262.018 440.137 261.952C440.105 261.92 440.066 261.894 440.024 261.876C439.981 261.858 439.936 261.849 439.89 261.849C439.844 261.849 439.799 261.858 439.756 261.876C439.714 261.894 439.676 261.92 439.643 261.952L436.061 265.535V261.5C436.061 261.408 436.024 261.319 435.959 261.254C435.894 261.189 435.805 261.152 435.713 261.152C435.621 261.154 435.534 261.191 435.469 261.256C435.404 261.321 435.367 261.408 435.365 261.5V265.535L431.79 261.931C431.757 261.899 431.719 261.873 431.676 261.855C431.634 261.838 431.589 261.828 431.543 261.828C431.497 261.828 431.451 261.838 431.409 261.855C431.367 261.873 431.328 261.899 431.296 261.931C431.232 261.997 431.196 262.086 431.196 262.178C431.196 262.27 431.232 262.359 431.296 262.425L434.878 266.001H430.844C430.752 266.002 430.665 266.04 430.6 266.104C430.535 266.169 430.498 266.257 430.496 266.348C430.496 266.441 430.532 266.529 430.598 266.594C430.663 266.66 430.751 266.696 430.844 266.696H434.878L431.296 270.279C431.232 270.345 431.196 270.433 431.196 270.526C431.196 270.618 431.232 270.706 431.296 270.773C431.363 270.835 431.451 270.87 431.543 270.87C431.634 270.87 431.723 270.835 431.79 270.773L435.365 267.19V271.218C435.365 271.31 435.402 271.398 435.467 271.464C435.532 271.529 435.621 271.566 435.713 271.566C435.805 271.566 435.894 271.529 435.959 271.464C436.024 271.398 436.061 271.31 436.061 271.218V267.19L439.643 270.773C439.71 270.835 439.798 270.87 439.89 270.87C439.982 270.87 440.07 270.835 440.137 270.773C440.201 270.706 440.237 270.618 440.237 270.526C440.237 270.433 440.201 270.345 440.137 270.279L436.555 266.696H440.582C440.675 266.696 440.763 266.66 440.828 266.594C440.893 266.529 440.93 266.441 440.93 266.348C440.925 266.26 440.886 266.177 440.821 266.116C440.756 266.055 440.671 266.021 440.582 266.022Z" fill="#EB922F"/>
<path d="M455.19 266.022H451.163L454.745 262.446C454.809 262.38 454.845 262.291 454.845 262.199C454.845 262.107 454.809 262.018 454.745 261.952C454.713 261.92 454.674 261.894 454.632 261.876C454.589 261.858 454.544 261.849 454.498 261.849C454.452 261.849 454.407 261.858 454.364 261.876C454.322 261.894 454.283 261.92 454.251 261.952L450.669 265.535V261.5C450.669 261.408 450.632 261.319 450.567 261.254C450.502 261.189 450.413 261.152 450.321 261.152C450.229 261.154 450.142 261.191 450.077 261.256C450.012 261.321 449.975 261.408 449.973 261.5V265.535L446.398 261.931C446.365 261.899 446.327 261.873 446.284 261.855C446.242 261.838 446.197 261.828 446.151 261.828C446.105 261.828 446.059 261.838 446.017 261.855C445.974 261.873 445.936 261.899 445.904 261.931C445.84 261.997 445.804 262.086 445.804 262.178C445.804 262.27 445.84 262.359 445.904 262.425L449.486 266.001H445.452C445.36 266.002 445.272 266.04 445.208 266.104C445.143 266.169 445.106 266.257 445.104 266.348C445.104 266.441 445.14 266.529 445.206 266.594C445.271 266.66 445.359 266.696 445.452 266.696H449.486L445.904 270.279C445.84 270.345 445.804 270.433 445.804 270.526C445.804 270.618 445.84 270.706 445.904 270.773C445.971 270.835 446.059 270.87 446.151 270.87C446.242 270.87 446.331 270.835 446.398 270.773L449.973 267.19V271.218C449.973 271.31 450.01 271.398 450.075 271.464C450.14 271.529 450.229 271.566 450.321 271.566C450.413 271.566 450.502 271.529 450.567 271.464C450.632 271.398 450.669 271.31 450.669 271.218V267.19L454.251 270.773C454.318 270.835 454.406 270.87 454.498 270.87C454.59 270.87 454.678 270.835 454.745 270.773C454.809 270.706 454.845 270.618 454.845 270.526C454.845 270.433 454.809 270.345 454.745 270.279L451.163 266.696H455.19C455.282 266.696 455.371 266.66 455.436 266.594C455.501 266.529 455.538 266.441 455.538 266.348C455.533 266.26 455.494 266.177 455.429 266.116C455.364 266.055 455.279 266.021 455.19 266.022Z" fill="#EB922F"/>
<path d="M469.798 266.022H465.77L469.353 262.446C469.417 262.38 469.453 262.291 469.453 262.199C469.453 262.107 469.417 262.018 469.353 261.952C469.321 261.92 469.282 261.894 469.24 261.876C469.197 261.858 469.152 261.849 469.106 261.849C469.06 261.849 469.015 261.858 468.972 261.876C468.93 261.894 468.891 261.92 468.859 261.952L465.277 265.535V261.5C465.277 261.408 465.24 261.319 465.175 261.254C465.109 261.189 465.021 261.152 464.929 261.152C464.837 261.154 464.75 261.191 464.685 261.256C464.62 261.321 464.583 261.408 464.581 261.5V265.535L461.006 261.931C460.973 261.899 460.935 261.873 460.892 261.855C460.85 261.838 460.804 261.828 460.759 261.828C460.713 261.828 460.667 261.838 460.625 261.855C460.582 261.873 460.544 261.899 460.512 261.931C460.447 261.997 460.412 262.086 460.412 262.178C460.412 262.27 460.447 262.359 460.512 262.425L464.094 266.001H460.059C459.968 266.002 459.88 266.04 459.815 266.104C459.751 266.169 459.713 266.257 459.712 266.348C459.712 266.441 459.748 266.529 459.814 266.594C459.879 266.66 459.967 266.696 460.059 266.696H464.094L460.512 270.279C460.447 270.345 460.412 270.433 460.412 270.526C460.412 270.618 460.447 270.706 460.512 270.773C460.579 270.835 460.667 270.87 460.759 270.87C460.85 270.87 460.939 270.835 461.006 270.773L464.581 267.19V271.218C464.581 271.31 464.618 271.398 464.683 271.464C464.748 271.529 464.837 271.566 464.929 271.566C465.021 271.566 465.109 271.529 465.175 271.464C465.24 271.398 465.277 271.31 465.277 271.218V267.19L468.859 270.773C468.926 270.835 469.014 270.87 469.106 270.87C469.198 270.87 469.286 270.835 469.353 270.773C469.417 270.706 469.453 270.618 469.453 270.526C469.453 270.433 469.417 270.345 469.353 270.279L465.77 266.696H469.798C469.89 266.696 469.979 266.66 470.044 266.594C470.109 266.529 470.146 266.441 470.146 266.348C470.141 266.26 470.102 266.177 470.037 266.116C469.972 266.055 469.887 266.021 469.798 266.022Z" fill="#EB922F"/>
<path d="M484.406 266.022H480.378L483.961 262.446C484.025 262.38 484.061 262.291 484.061 262.199C484.061 262.107 484.025 262.018 483.961 261.952C483.928 261.92 483.89 261.894 483.848 261.876C483.805 261.858 483.76 261.849 483.714 261.849C483.668 261.849 483.622 261.858 483.58 261.876C483.538 261.894 483.499 261.92 483.467 261.952L479.885 265.535V261.5C479.885 261.408 479.848 261.319 479.783 261.254C479.717 261.189 479.629 261.152 479.537 261.152C479.445 261.154 479.358 261.191 479.293 261.256C479.228 261.321 479.191 261.408 479.189 261.5V265.535L475.613 261.931C475.581 261.899 475.543 261.873 475.5 261.855C475.458 261.838 475.412 261.828 475.366 261.828C475.321 261.828 475.275 261.838 475.233 261.855C475.19 261.873 475.152 261.899 475.12 261.931C475.055 261.997 475.019 262.086 475.019 262.178C475.019 262.27 475.055 262.359 475.12 262.425L478.702 266.001H474.667C474.576 266.002 474.488 266.04 474.423 266.104C474.359 266.169 474.321 266.257 474.32 266.348C474.32 266.441 474.356 266.529 474.421 266.594C474.487 266.66 474.575 266.696 474.667 266.696H478.702L475.12 270.279C475.055 270.345 475.019 270.433 475.019 270.526C475.019 270.618 475.055 270.706 475.12 270.773C475.187 270.835 475.275 270.87 475.366 270.87C475.458 270.87 475.546 270.835 475.613 270.773L479.189 267.19V271.218C479.189 271.31 479.226 271.398 479.291 271.464C479.356 271.529 479.444 271.566 479.537 271.566C479.629 271.566 479.717 271.529 479.783 271.464C479.848 271.398 479.885 271.31 479.885 271.218V267.19L483.467 270.773C483.534 270.835 483.622 270.87 483.714 270.87C483.806 270.87 483.894 270.835 483.961 270.773C484.025 270.706 484.061 270.618 484.061 270.526C484.061 270.433 484.025 270.345 483.961 270.279L480.378 266.696H484.406C484.498 266.696 484.587 266.66 484.652 266.594C484.717 266.529 484.754 266.441 484.754 266.348C484.748 266.26 484.709 266.177 484.645 266.116C484.58 266.055 484.495 266.021 484.406 266.022Z" fill="#EB922F"/>
<path d="M499.014 266.022H494.986L498.569 262.446C498.633 262.38 498.669 262.291 498.669 262.199C498.669 262.107 498.633 262.018 498.569 261.952C498.536 261.92 498.498 261.894 498.456 261.876C498.413 261.858 498.368 261.849 498.322 261.849C498.276 261.849 498.23 261.858 498.188 261.876C498.146 261.894 498.107 261.92 498.075 261.952L494.492 265.535V261.5C494.492 261.408 494.456 261.319 494.391 261.254C494.325 261.189 494.237 261.152 494.145 261.152C494.053 261.154 493.965 261.191 493.901 261.256C493.836 261.321 493.799 261.408 493.797 261.5V265.535L490.221 261.931C490.189 261.899 490.151 261.873 490.108 261.855C490.066 261.838 490.02 261.828 489.974 261.828C489.928 261.828 489.883 261.838 489.841 261.855C489.798 261.873 489.76 261.899 489.727 261.931C489.663 261.997 489.627 262.086 489.627 262.178C489.627 262.27 489.663 262.359 489.727 262.425L493.31 266.001H489.275C489.184 266.002 489.096 266.04 489.031 266.104C488.966 266.169 488.929 266.257 488.927 266.348C488.927 266.441 488.964 266.529 489.029 266.594C489.095 266.66 489.183 266.696 489.275 266.696H493.31L489.727 270.279C489.663 270.345 489.627 270.433 489.627 270.526C489.627 270.618 489.663 270.706 489.727 270.773C489.794 270.835 489.883 270.87 489.974 270.87C490.066 270.87 490.154 270.835 490.221 270.773L493.797 267.19V271.218C493.797 271.31 493.833 271.398 493.899 271.464C493.964 271.529 494.052 271.566 494.145 271.566C494.237 271.566 494.325 271.529 494.391 271.464C494.456 271.398 494.492 271.31 494.492 271.218V267.19L498.075 270.773C498.142 270.835 498.23 270.87 498.322 270.87C498.413 270.87 498.502 270.835 498.569 270.773C498.633 270.706 498.669 270.618 498.669 270.526C498.669 270.433 498.633 270.345 498.569 270.279L494.986 266.696H499.014C499.106 266.696 499.195 266.66 499.26 266.594C499.325 266.529 499.362 266.441 499.362 266.348C499.356 266.26 499.317 266.177 499.253 266.116C499.188 266.055 499.103 266.021 499.014 266.022Z" fill="#EB922F"/>
<path d="M513.622 266.022H509.594L513.177 262.446C513.241 262.38 513.277 262.291 513.277 262.199C513.277 262.107 513.241 262.018 513.177 261.952C513.144 261.92 513.106 261.894 513.063 261.876C513.021 261.858 512.976 261.849 512.93 261.849C512.884 261.849 512.838 261.858 512.796 261.876C512.754 261.894 512.715 261.92 512.683 261.952L509.1 265.535V261.5C509.1 261.408 509.064 261.319 508.998 261.254C508.933 261.189 508.845 261.152 508.753 261.152C508.661 261.154 508.573 261.191 508.509 261.256C508.444 261.321 508.406 261.408 508.405 261.5V265.535L504.829 261.931C504.797 261.899 504.758 261.873 504.716 261.855C504.674 261.838 504.628 261.828 504.582 261.828C504.536 261.828 504.491 261.838 504.449 261.855C504.406 261.873 504.368 261.899 504.335 261.931C504.271 261.997 504.235 262.086 504.235 262.178C504.235 262.27 504.271 262.359 504.335 262.425L507.918 266.001H503.883C503.792 266.002 503.704 266.04 503.639 266.104C503.574 266.169 503.537 266.257 503.535 266.348C503.535 266.441 503.572 266.529 503.637 266.594C503.702 266.66 503.791 266.696 503.883 266.696H507.918L504.335 270.279C504.271 270.345 504.235 270.433 504.235 270.526C504.235 270.618 504.271 270.706 504.335 270.773C504.402 270.835 504.491 270.87 504.582 270.87C504.674 270.87 504.762 270.835 504.829 270.773L508.405 267.19V271.218C508.405 271.31 508.441 271.398 508.507 271.464C508.572 271.529 508.66 271.566 508.753 271.566C508.845 271.566 508.933 271.529 508.998 271.464C509.064 271.398 509.1 271.31 509.1 271.218V267.19L512.683 270.773C512.75 270.835 512.838 270.87 512.93 270.87C513.021 270.87 513.11 270.835 513.177 270.773C513.241 270.706 513.277 270.618 513.277 270.526C513.277 270.433 513.241 270.345 513.177 270.279L509.594 266.696H513.622C513.714 266.696 513.803 266.66 513.868 266.594C513.933 266.529 513.97 266.441 513.97 266.348C513.964 266.26 513.925 266.177 513.861 266.116C513.796 266.055 513.711 266.021 513.622 266.022Z" fill="#EB922F"/>
<path d="M528.23 266.022H524.202L527.785 262.446C527.849 262.38 527.885 262.291 527.885 262.199C527.885 262.107 527.849 262.018 527.785 261.952C527.752 261.92 527.714 261.894 527.671 261.876C527.629 261.858 527.583 261.849 527.538 261.849C527.492 261.849 527.446 261.858 527.404 261.876C527.361 261.894 527.323 261.92 527.291 261.952L523.708 265.535V261.5C523.708 261.408 523.672 261.319 523.606 261.254C523.541 261.189 523.453 261.152 523.36 261.152C523.269 261.154 523.181 261.191 523.116 261.256C523.052 261.321 523.014 261.408 523.013 261.5V265.535L519.437 261.931C519.405 261.899 519.366 261.873 519.324 261.855C519.282 261.838 519.236 261.828 519.19 261.828C519.144 261.828 519.099 261.838 519.056 261.855C519.014 261.873 518.976 261.899 518.943 261.931C518.879 261.997 518.843 262.086 518.843 262.178C518.843 262.27 518.879 262.359 518.943 262.425L522.526 266.001H518.491C518.399 266.002 518.312 266.04 518.247 266.104C518.182 266.169 518.145 266.257 518.143 266.348C518.143 266.441 518.18 266.529 518.245 266.594C518.31 266.66 518.399 266.696 518.491 266.696H522.526L518.943 270.279C518.879 270.345 518.843 270.433 518.843 270.526C518.843 270.618 518.879 270.706 518.943 270.773C519.01 270.835 519.098 270.87 519.19 270.87C519.282 270.87 519.37 270.835 519.437 270.773L523.013 267.19V271.218C523.013 271.31 523.049 271.398 523.114 271.464C523.18 271.529 523.268 271.566 523.36 271.566C523.453 271.566 523.541 271.529 523.606 271.464C523.672 271.398 523.708 271.31 523.708 271.218V267.19L527.291 270.773C527.358 270.835 527.446 270.87 527.538 270.87C527.629 270.87 527.718 270.835 527.785 270.773C527.849 270.706 527.885 270.618 527.885 270.526C527.885 270.433 527.849 270.345 527.785 270.279L524.202 266.696H528.23C528.322 266.696 528.41 266.66 528.476 266.594C528.541 266.529 528.578 266.441 528.578 266.348C528.572 266.26 528.533 266.177 528.469 266.116C528.404 266.055 528.318 266.021 528.23 266.022Z" fill="#EB922F"/>
<path d="M640.217 350.643C640.197 349.802 640.092 348.966 639.904 348.146C639.278 345.795 637.866 342.95 635.542 342.24C633.143 341.506 630.826 340.527 628.628 339.319C628.21 331.862 629.922 324.231 628.057 317.003C627.362 314.36 626.214 311.828 625.908 309.122C625.525 305.755 626.443 302.166 625.101 299.063C624.044 296.615 621.72 294.89 619.223 293.985C616.726 293.081 614.034 292.837 611.383 292.594C608.044 292.323 597.235 291.043 593.464 294.027C593.204 294.229 592.971 294.463 592.769 294.723C592.685 294.837 592.611 294.958 592.546 295.084L592.511 295.14C592.436 295.285 592.373 295.436 592.324 295.592C592.271 295.763 592.231 295.937 592.205 296.114C592.205 296.169 592.205 296.225 592.205 296.281C592.205 296.336 592.205 296.524 592.205 296.649V296.837C592.205 296.962 592.205 297.088 592.205 297.22C592.205 297.352 592.205 297.317 592.205 297.366C592.254 297.992 592.344 298.618 592.344 299.237C592.352 299.545 592.324 299.854 592.261 300.155C592.029 300.976 591.637 301.742 591.106 302.409L590.981 302.59C590.904 302.701 590.828 302.806 590.758 302.917C590.689 303.028 590.633 303.112 590.578 303.209C590.522 303.307 590.466 303.369 590.418 303.46C590.35 303.574 590.29 303.693 590.237 303.814C590.237 303.884 590.16 303.946 590.132 304.016C590.045 304.204 589.975 304.4 589.924 304.6C589.761 305.205 589.746 305.84 589.882 306.451C590.069 307.231 590.392 307.973 590.835 308.642C591.009 308.927 591.197 309.205 591.391 309.484L591.878 310.144C591.787 310.79 591.739 311.44 591.732 312.092C591.733 314.27 592.227 316.42 593.179 318.379C594.131 320.339 595.515 322.056 597.228 323.403C597.503 326.34 597.473 329.299 597.137 332.23C597.075 332.842 596.998 333.461 596.915 334.074C596.831 334.686 596.769 335.089 596.685 335.597C595.667 335.743 594.63 335.664 593.645 335.367C593.191 335.165 592.727 334.986 592.254 334.832C590.23 334.324 588.164 336.341 586.16 335.729C586.16 335.827 586.105 335.917 586.07 336.007C585.652 335.747 585.171 335.606 584.679 335.597C583.489 335.541 582.522 334.679 581.66 333.865L579.009 331.368C578.837 331.215 578.683 331.042 578.55 330.853C578.408 330.582 578.3 330.295 578.23 329.997C577.785 328.557 576.707 327.41 575.664 326.317C575.466 326.068 575.204 325.878 574.905 325.768C574.79 325.751 574.673 325.751 574.558 325.768C574.487 325.671 574.41 325.578 574.328 325.49C574.148 325.283 573.955 325.088 573.751 324.905C572.485 323.737 572.359 322.735 571.26 321.427C570.302 320.18 569.432 318.867 568.659 317.497C568.568 316.767 568.443 316.015 568.29 315.257C567.939 313.521 567.429 311.821 566.767 310.179L565.375 307.098L565.215 307.258C564.207 305.755 563.129 304.934 562.162 305.129C560.541 305.463 559.741 308.607 559.998 312.718L560.555 316.892C560.555 316.996 560.603 317.101 560.631 317.205C560.531 317.7 560.48 318.203 560.478 318.707C560.478 319.292 561.021 319.723 561.306 320.245C561.763 320.951 562.004 321.775 562.002 322.617C561.967 322.916 561.876 323.201 561.863 323.493C561.9 324.147 562.128 324.775 562.516 325.302L565.995 331.145L566.69 332.369L566.732 332.425C566.951 332.852 567.271 333.22 567.664 333.496C567.8 334.959 568.189 336.388 568.812 337.719C568.93 337.983 569.062 338.233 569.201 338.484C570.137 340.021 571.238 341.451 572.485 342.748L574.14 344.605C575.775 346.428 577.41 348.257 579.183 349.941C579.818 350.616 580.586 351.154 581.437 351.52C581.854 351.686 582.308 351.74 582.753 351.675C583.197 351.611 583.617 351.43 583.969 351.151C583.969 352.014 583.969 352.876 583.969 353.739C584.227 353.755 584.477 353.839 584.692 353.984C584.906 354.128 585.078 354.327 585.19 354.56C585.302 354.794 585.35 355.053 585.329 355.31C585.307 355.568 585.217 355.816 585.068 356.027C583.607 359.777 582.133 363.561 579.921 366.921C581.482 367.845 582.93 368.949 584.234 370.211C585.08 371.149 585.832 372.167 586.48 373.251C586.543 373.765 586.592 374.273 586.619 374.781C587.134 383.073 583.927 391.302 581.055 399.204C580.227 401.444 579.323 403.788 579.392 406.119C578.847 406.455 578.326 406.829 577.834 407.238C578.404 408.727 578.182 410.056 578.119 411.649C578.098 412.604 577.903 413.547 577.542 414.431C577.239 415.044 576.905 415.641 576.54 416.219C574.738 419.398 574.342 423.175 573.98 426.806C573.765 428.997 574.613 431.675 573.618 433.637C571.9 437.004 570.377 440.593 570.14 444.336C570.132 445.178 570.025 446.016 569.82 446.833C569.605 447.529 569.222 448.12 569.027 448.801C568.827 449.715 568.78 450.655 568.888 451.584C569.021 454.918 568.525 458.248 567.427 461.399C566.558 463.882 565.598 466.54 566.28 469.093C564.601 470.855 563.565 473.132 563.337 475.555C563.319 476.175 563.245 476.792 563.115 477.398C562.902 478.018 562.622 478.613 562.28 479.172C560.88 481.722 560.224 484.615 560.388 487.519C558.301 490.351 557.258 493.843 556.638 497.314C556.019 500.785 555.748 504.319 554.955 507.748C553.898 512.283 551.985 516.867 551.609 521.514C549.355 522.954 548.382 525.744 547.95 528.38C547.519 531.016 547.449 533.785 546.343 536.22C545.773 537.486 544.952 538.619 544.41 539.913C544.029 540.943 543.749 542.008 543.575 543.092C543.241 544.79 542.949 546.682 543.359 548.309C542.769 548.934 542.081 549.458 541.321 549.861C541.432 549.429 541.523 548.998 541.599 548.56C539.805 550.187 536.549 549.617 535.116 551.572C534.686 552.202 534.518 552.975 534.648 553.727C534.778 554.478 535.195 555.15 535.812 555.599C536.26 555.873 536.745 556.081 537.252 556.218C540.73 557.331 544.305 558.451 547.881 557.86C548.303 557.815 548.713 557.684 549.084 557.478C549.549 557.135 549.932 556.693 550.204 556.184C550.74 555.335 551.275 554.486 551.804 553.638C553.085 554.02 554.388 554.324 555.706 554.549C555.839 555.662 555.936 556.775 555.985 557.888C556.68 558.027 557.612 558.069 557.939 557.422C558.038 557.177 558.079 556.913 558.058 556.65C558.058 556.156 558.127 555.502 558.169 554.834H558.308C560.43 554.92 562.542 554.493 564.464 553.589C563.72 547.426 566.175 541.402 568.304 535.573C570.551 529.437 572.478 523.191 574.418 516.944C575.81 512.548 577.347 508.291 578.71 503.887C580.426 498.322 582.149 492.757 583.879 487.193C584.63 484.744 585.388 482.323 586.251 479.889C588.067 474.962 590.221 470.167 592.699 465.538C593.395 464.223 594.09 462.922 594.661 461.559C595.356 459.897 595.85 458.158 596.407 456.439C597.619 452.914 599.079 449.478 600.775 446.158C600.824 446.068 600.859 445.984 600.907 445.901C601.471 448.203 602.034 450.541 602.41 452.857C602.918 455.697 602.958 458.602 602.528 461.455C602.194 463.396 601.561 465.315 601.638 467.284C601.742 470.004 603.196 472.473 603.913 475.096C604.374 477.058 604.635 479.063 604.692 481.078C604.886 484.208 606.584 487.721 605.387 490.622C601.666 499.811 603.467 510.19 601.346 519.838C600.254 524.791 596.908 529.444 597.172 534.508C597.358 538.102 597.673 541.687 598.118 545.263C598.225 546.391 598.519 547.493 598.988 548.525C599.265 549.068 599.584 549.589 599.941 550.083C599.634 550.201 599.377 550.514 599.154 551.175C598.584 552.914 599.155 555.071 600.699 556.045C601.328 556.381 602.006 556.616 602.709 556.74C603.655 557.009 604.634 557.145 605.617 557.144C605.923 557.127 606.227 557.09 606.528 557.032C607.603 557.484 608.701 557.879 609.818 558.215C609.818 558.5 609.874 558.785 609.909 559.07C609.911 559.22 609.944 559.367 610.006 559.502C610.068 559.637 610.158 559.758 610.27 559.857C610.444 559.938 610.636 559.971 610.827 559.954H614.604C614.604 559.641 614.604 559.321 614.604 559.008C615.036 559.053 615.473 559.007 615.887 558.873C616.3 558.739 616.681 558.519 617.004 558.229C617.339 557.803 617.576 557.309 617.7 556.782C618.729 553.29 619.752 549.796 620.767 546.299C621.985 542.434 622.492 538.38 622.263 534.334C620.92 521.514 623.87 508.652 622.91 495.797C622.332 488.071 622.729 480.302 624.092 472.675C624.405 470.95 624.788 469.197 624.927 467.479C625.233 464.237 624.858 460.961 625.087 457.74C625.164 456.613 625.317 455.493 625.456 454.373C626.409 447.422 626.908 440.417 626.951 433.401C626.93 431.076 626.786 428.754 626.52 426.444C627.245 426.26 627.904 425.874 628.419 425.331C629.038 424.525 628.878 423.391 628.871 422.361C628.871 419.899 629.908 417.575 630.742 415.252C631.814 412.047 632.692 408.781 633.372 405.472C634.091 402.804 634.483 400.06 634.54 397.298C634.54 397.02 634.527 396.742 634.499 396.463C634.761 396.282 634.979 396.044 635.139 395.768C635.32 395.36 635.433 394.925 635.473 394.481C635.723 392.707 635.98 390.926 636.231 389.145C636.416 387.87 636.6 386.597 636.78 385.327L638.992 369.891C639.18 368.548 639.375 367.213 639.563 365.877L640.14 361.884C640.203 361.411 640.272 360.938 640.321 360.493C642.018 357.655 640.398 353.871 640.217 350.643ZM621.762 408.435C620.941 406.487 620.176 404.491 620.371 402.39H620.294C620.477 401.744 620.446 401.055 620.204 400.428C619.988 399.921 619.613 399.489 619.383 398.982C619.136 398.362 619.009 397.701 619.007 397.034C618.835 392.803 619.169 388.567 620.002 384.415C620.093 383.928 620.19 383.434 620.28 382.948C620.572 382.779 620.839 382.571 621.073 382.328C621.439 381.911 621.742 381.443 621.971 380.937C622.757 379.358 623.473 377.751 624.134 376.117C624.35 375.588 624.663 374.976 625.198 374.844C625.087 378.913 625.504 383.066 623.849 386.739C623.534 387.331 623.3 387.963 623.153 388.617C623 389.653 623.431 390.704 623.278 391.733C623.202 392.269 622.972 392.763 622.882 393.291C622.813 393.551 622.814 393.824 622.885 394.083C622.956 394.342 623.094 394.578 623.285 394.766C623.378 394.831 623.478 394.882 623.585 394.919C623.543 395.197 623.508 395.483 623.48 395.754C623.425 396.324 623.397 396.86 623.362 397.194C623.202 398.895 623.139 400.605 623.174 402.313C623.174 404.157 623.244 406 623.216 407.878C623.242 408.418 623.151 408.956 622.952 409.457C622.814 409.716 622.635 409.951 622.423 410.153C622.221 409.527 621.999 408.977 621.762 408.435Z" fill="url(#paint0_linear)"/>
<path d="M566.852 327.722C568.974 327.287 569.697 322.062 568.465 316.052C567.234 310.041 564.514 305.522 562.392 305.957C560.269 306.392 559.547 311.617 560.778 317.627C562.01 323.637 564.729 328.157 566.852 327.722Z" fill="#FBBEBE"/>
<path d="M599.266 551.307C598.696 553.032 599.266 555.189 600.81 556.128C601.436 556.461 602.109 556.696 602.807 556.824C603.75 557.09 604.727 557.224 605.707 557.22C606.911 557.164 608.066 556.691 609.269 556.524C609.408 556.49 609.555 556.509 609.679 556.58C609.74 556.645 609.785 556.722 609.811 556.806C609.838 556.89 609.845 556.98 609.832 557.067C609.845 557.751 609.896 558.434 609.985 559.112C609.986 559.261 610.019 559.409 610.082 559.544C610.144 559.68 610.235 559.8 610.347 559.898C610.521 559.979 610.713 560.013 610.904 559.996H614.674C614.759 556.683 614.397 553.375 613.596 550.16C613.543 549.913 613.449 549.678 613.317 549.464C612.998 549.114 612.577 548.871 612.114 548.768C611.192 548.385 610.197 548.211 609.199 548.261C607.982 548.421 606.966 549.207 605.93 549.86C604.894 550.514 603.481 551.092 602.222 550.758C600.963 550.424 599.913 549.374 599.266 551.307Z" fill="#3F3D56"/>
<path d="M543.909 548.254C542.849 549.389 541.549 550.273 540.104 550.841L539.464 551.147C539.375 551.181 539.3 551.242 539.248 551.321C539.236 551.375 539.236 551.432 539.248 551.486C539.26 551.54 539.284 551.591 539.318 551.634C539.85 552.458 540.637 553.085 541.559 553.42C542.481 553.756 543.486 553.781 544.424 553.492C544.838 553.388 545.222 553.188 545.544 552.907C546.074 552.278 546.378 551.49 546.406 550.667C546.617 549.819 546.581 548.929 546.302 548.101C545.335 545.923 544.98 546.911 543.909 548.254Z" fill="#FBBEBE"/>
<path d="M558.364 556.824C558.385 557.087 558.345 557.351 558.245 557.596C557.918 558.236 557.007 558.201 556.298 558.062C556.19 555.702 555.904 553.353 555.442 551.036C554.093 550.973 553.119 552.253 552.395 553.401L550.531 556.358C550.261 556.867 549.881 557.309 549.418 557.651C549.045 557.855 548.637 557.985 548.215 558.034C544.653 558.625 541.057 557.505 537.62 556.392C537.114 556.256 536.63 556.05 536.181 555.78C535.567 555.33 535.152 554.66 535.023 553.91C534.893 553.16 535.059 552.39 535.485 551.76C536.925 549.812 540.159 550.368 541.954 548.754C541.767 549.89 541.459 551.002 541.036 552.073C543.436 551.711 545.05 549.513 546.983 548.045C547.469 547.633 548.054 547.355 548.681 547.238C549.15 547.199 549.622 547.248 550.072 547.384C552.302 547.946 554.388 548.972 556.193 550.396C556.924 550.973 558.065 551.787 558.385 552.678C558.725 553.742 558.364 555.69 558.364 556.824Z" fill="#3F3D56"/>
<path d="M606.215 327.312C614.152 327.312 620.587 320.878 620.587 312.941C620.587 305.004 614.152 298.569 606.215 298.569C598.278 298.569 591.844 305.004 591.844 312.941C591.844 320.878 598.278 327.312 606.215 327.312Z" fill="#FBBEBE"/>
<path d="M634.527 397.792C634.469 400.539 634.079 403.27 633.365 405.924C632.685 409.22 631.807 412.472 630.736 415.662C629.908 417.979 628.871 420.302 628.878 422.758C628.878 423.78 629.045 424.914 628.419 425.721C627.862 426.287 627.159 426.689 626.388 426.883C626.003 426.985 625.648 427.176 625.351 427.44C625.054 427.705 624.823 428.036 624.677 428.406C624.024 427.43 623.535 426.354 623.23 425.22C621.982 421.399 620.823 417.557 619.752 413.694C619.654 413.471 619.611 413.228 619.628 412.986C619.645 412.744 619.721 412.509 619.849 412.302C620.026 412.149 620.232 412.033 620.454 411.962C621.167 411.671 621.821 411.251 622.381 410.723C622.644 410.49 622.861 410.209 623.021 409.896C623.223 409.397 623.316 408.861 623.292 408.324C623.292 406.48 623.292 404.644 623.244 402.8C623.215 401.098 623.28 399.396 623.439 397.701C623.439 397.368 623.501 396.832 623.557 396.262C623.661 395.169 623.87 393.903 624.461 393.479C625.345 392.888 627.988 393.681 628.99 393.82C630.715 394.056 632.468 394.335 634.151 394.662C634.396 395.687 634.522 396.738 634.527 397.792Z" fill="#3F3D56"/>
<path d="M576.498 329.03C575.942 330.143 574.606 330.679 573.577 331.382L570.05 333.802C569.814 334.015 569.538 334.177 569.238 334.28C568.938 334.383 568.62 334.424 568.304 334.401C568.017 334.295 567.754 334.132 567.531 333.923C567.307 333.714 567.128 333.463 567.003 333.183C567.005 333.165 567.005 333.146 567.003 333.128L566.273 331.903L562.795 326.074C562.408 325.552 562.183 324.928 562.148 324.279C562.148 323.98 562.252 323.702 562.28 323.403C562.289 322.563 562.047 321.739 561.584 321.038C561.306 320.516 560.75 320.085 560.764 319.5C560.737 318.733 560.87 317.968 561.153 317.254C561.518 316.593 562.042 316.034 562.677 315.626C563.003 315.389 563.337 315.167 563.685 314.93C563.87 314.804 564.074 314.71 564.29 314.652C564.868 314.534 565.438 315.014 566.022 315.035C568.534 316.718 569.501 319.904 571.476 322.199C572.589 323.507 572.7 324.509 573.959 325.678C574.161 325.858 574.356 326.053 574.544 326.255C574.793 326.526 575.003 326.831 575.17 327.159C575.399 327.757 576.784 328.46 576.498 329.03Z" fill="#3F3D56"/>
<path d="M601.165 327.319C602.201 329.51 603.008 331.917 602.709 334.324C602.648 334.976 602.441 335.606 602.104 336.167C601.102 337.705 599.002 337.983 597.172 338.073C596.787 338.041 596.399 338.086 596.031 338.205C595.663 338.325 595.323 338.516 595.03 338.769C594.785 339.124 594.666 339.551 594.69 339.981C594.713 340.412 594.88 340.822 595.162 341.148C595.75 341.775 596.48 342.253 597.29 342.539C600.184 343.812 603.307 344.863 606.452 344.57C607.912 344.431 609.332 344.007 610.785 343.791C612.37 343.62 613.963 343.531 615.557 343.527C617.449 343.457 619.334 343.27 621.22 343.082L626.214 342.588C626.487 342.592 626.752 342.495 626.958 342.317C627.327 341.885 626.854 341.252 626.395 340.925C623.745 338.964 620.371 337.614 618.861 334.665C618.166 333.274 617.95 331.618 617.435 330.116C616.921 328.613 616.1 327.257 615.78 325.726C615.609 324.384 615.533 323.031 615.55 321.678C615.568 320.313 615.071 318.992 614.159 317.977C613.164 317.052 611.724 316.815 610.375 316.76C607.05 316.614 603.509 317.407 601.151 319.751C600.518 320.384 599.975 321.142 599.322 321.712C598.668 322.283 597.777 322.45 598.209 323.201C598.64 323.952 599.489 324.418 599.948 325.079C600.412 325.792 600.819 326.541 601.165 327.319Z" fill="#FBBEBE"/>
<path d="M629.498 347.555C628.62 352.911 627.194 358.163 625.24 363.227C624.258 365.514 623.422 367.86 622.736 370.253C622.201 372.409 622.305 374.718 621.811 376.882C621.199 379.574 620.587 382.273 620.093 384.986C619.264 389.128 618.933 393.355 619.105 397.576C619.107 398.241 619.234 398.9 619.481 399.517C619.71 400.018 620.079 400.449 620.295 400.964C620.456 401.416 620.522 401.897 620.488 402.376C620.455 402.854 620.322 403.321 620.1 403.746C619.743 404.543 619.259 405.276 618.667 405.917C612.184 407.851 605.248 407.218 598.494 407.628C592.268 408.004 585.973 409.284 579.837 408.219C579.142 405.437 580.304 402.522 581.298 399.809C584.185 391.928 587.378 383.72 586.863 375.463C586.809 374.5 586.7 373.54 586.536 372.59C585.528 366.74 586.627 360.681 588.387 355.012C589.479 351.478 589.43 347.715 589.18 344.035C589.056 342.84 589.039 341.636 589.131 340.439C589.232 339.215 589.686 338.048 590.439 337.079C590.439 337.03 590.501 336.981 590.536 336.933C590.571 336.884 590.842 336.891 591.058 336.933C591.113 336.956 591.172 336.968 591.232 336.968C591.291 336.968 591.351 336.956 591.406 336.933L591.482 336.884C591.512 336.863 591.547 336.852 591.583 336.852C591.619 336.852 591.654 336.863 591.684 336.884C591.844 336.981 591.934 337.315 592.282 337.378C592.796 337.456 593.314 337.504 593.833 337.524C594.458 337.542 595.079 337.631 595.684 337.788H595.767C596.672 337.941 597.6 337.862 598.466 337.559C599.042 337.415 599.598 337.2 600.122 336.919C600.275 336.752 601.235 336.599 601.429 336.48C602.062 336.098 601.923 334.303 602.055 333.566C602.129 332.826 602.304 332.101 602.577 331.409C602.894 330.899 603.331 330.475 603.85 330.173C604.369 329.871 604.954 329.701 605.554 329.677C606.752 329.649 607.949 329.756 609.123 329.997C611.718 330.366 614.375 330.303 616.921 330.902C618.201 331.201 619.599 331.653 620.775 331.069C621.094 331.145 621.143 331.423 621.143 331.764C621.113 332.088 621.048 332.408 620.948 332.717C620.503 334.637 622.013 336.404 623.404 337.795C623.992 338.451 624.685 339.004 625.456 339.43C626.152 339.75 626.847 339.882 627.543 340.23C628.106 340.53 628.585 340.968 628.934 341.503C629.335 342.116 629.605 342.805 629.727 343.527C629.876 344.873 629.799 346.234 629.498 347.555Z" fill="#3F3D56"/>
<path opacity="0.1" d="M629.497 347.555C628.62 352.911 627.194 358.163 625.24 363.227C624.258 365.514 623.422 367.86 622.736 370.253C622.2 372.409 622.305 374.718 621.811 376.882C621.199 379.574 620.587 382.273 620.093 384.986C619.947 385.069 619.794 385.146 619.641 385.215C618.775 385.629 617.858 385.923 616.914 386.092C615.218 386.297 613.501 386.241 611.822 385.925L601.895 384.596C597.93 384.061 593.708 383.414 590.765 380.729C589.131 379.254 588.06 377.306 586.884 375.428C586.83 374.465 586.721 373.506 586.557 372.555C585.548 366.705 586.647 360.646 588.407 354.977C589.499 351.443 589.451 347.68 589.2 344C589.076 342.805 589.06 341.601 589.152 340.404C589.252 339.181 589.707 338.013 590.459 337.044C590.663 336.984 590.869 336.938 591.079 336.905C591.219 336.876 591.36 336.858 591.503 336.849H591.705C591.939 336.85 592.172 336.878 592.4 336.933C592.874 337.083 593.339 337.262 593.791 337.468H593.875C594.471 337.665 595.098 337.754 595.725 337.732C596.643 337.732 597.589 337.586 598.508 337.524C599.642 337.347 600.803 337.555 601.805 338.115C602.452 338.635 603.065 339.195 603.641 339.792C604.337 340.338 605.12 340.764 605.958 341.051C611.946 343.336 618.589 343.196 624.475 340.661C625.04 340.34 625.682 340.176 626.332 340.188C626.813 340.282 627.268 340.476 627.668 340.758C628.085 341.002 628.496 341.238 628.92 341.454C629.321 342.067 629.591 342.756 629.713 343.478C629.872 344.839 629.8 346.218 629.497 347.555Z" fill="black"/>
<path d="M635.556 342.95C632.786 342.104 630.125 340.936 627.626 339.472C627.225 339.192 626.77 338.997 626.291 338.901C625.639 338.893 624.996 339.057 624.426 339.374C618.542 341.909 611.901 342.049 605.916 339.764C605.08 339.474 604.297 339.049 603.6 338.505C603.021 337.91 602.408 337.35 601.763 336.828C599.475 335.347 596.31 337.086 593.75 336.133C593.296 335.93 592.831 335.751 592.358 335.597C590.334 335.089 588.275 337.106 586.286 336.494C585.546 338.506 584.998 340.584 584.651 342.699C584.368 345.129 584.217 347.571 584.199 350.017C584.199 351.485 584.129 352.953 584.199 354.42C584.444 354.46 584.678 354.551 584.887 354.686C585.095 354.822 585.273 354.999 585.409 355.206C585.501 355.449 585.538 355.708 585.519 355.966C585.5 356.225 585.424 356.476 585.298 356.702C583.844 360.437 582.369 364.215 580.164 367.561C581.718 368.487 583.161 369.588 584.463 370.844C586.898 373.418 588.094 377.028 590.724 379.407C593.687 382.085 597.909 382.739 601.854 383.268L611.78 384.596C613.461 384.911 615.18 384.969 616.879 384.77C617.821 384.598 618.736 384.301 619.599 383.887C620.163 383.651 620.677 383.311 621.115 382.885C621.482 382.469 621.784 382 622.013 381.494C622.799 379.922 623.515 378.315 624.176 376.687C624.405 376.11 624.753 375.435 625.379 375.386C629.066 372.061 632.544 368.653 636.231 365.328C637.712 364.1 639.041 362.699 640.189 361.154C642.018 358.448 640.356 354.615 640.189 351.346C640.169 350.509 640.064 349.677 639.876 348.862C639.278 346.49 637.873 343.652 635.556 342.95Z" fill="#EB922F"/>
<path opacity="0.1" d="M576.498 329.03C575.942 330.143 574.606 330.679 573.577 331.382L570.05 333.802C569.814 334.015 569.538 334.177 569.238 334.28C568.938 334.383 568.62 334.424 568.304 334.4C568.017 334.295 567.754 334.132 567.531 333.923C567.307 333.714 567.128 333.463 567.003 333.183C567.003 333.023 567.003 332.849 567.003 332.682C566.977 332.119 567.052 331.556 567.226 331.02C567.571 330.233 568.107 329.545 568.784 329.016C570.094 327.776 571.651 326.828 573.354 326.234C573.62 326.131 573.908 326.102 574.189 326.151C574.297 326.179 574.4 326.223 574.495 326.283C574.744 326.554 574.955 326.858 575.121 327.187C575.399 327.757 576.784 328.46 576.498 329.03Z" fill="black"/>
<path d="M584.804 336.362C583.622 336.306 582.655 335.451 581.792 334.637L579.156 332.188C578.979 332.039 578.825 331.866 578.697 331.674C578.554 331.403 578.447 331.116 578.377 330.818C577.818 329.413 576.942 328.156 575.817 327.145C575.621 326.896 575.358 326.708 575.059 326.603C574.776 326.55 574.484 326.579 574.217 326.686C572.514 327.279 570.956 328.228 569.647 329.469C568.97 329.997 568.434 330.686 568.089 331.472C567.914 332.008 567.838 332.571 567.866 333.134C567.882 334.972 568.295 336.785 569.076 338.449C569.195 338.706 569.327 338.964 569.466 339.214C570.394 340.748 571.491 342.174 572.735 343.464L574.391 345.315C576.019 347.137 577.646 348.96 579.413 350.636C580.047 351.312 580.814 351.847 581.667 352.208C582.095 352.383 582.563 352.436 583.019 352.363C583.476 352.289 583.903 352.091 584.255 351.791C584.588 351.405 584.839 350.955 584.992 350.469C586.063 347.687 587.079 344.793 587.141 341.795C587.156 340.594 587.105 339.394 586.988 338.199C586.884 336.933 585.987 336.439 584.804 336.362Z" fill="#EB922F"/>
<path d="M626.958 433.748C626.918 440.746 626.421 447.733 625.47 454.666C625.331 455.785 625.178 456.905 625.101 458.025C624.871 461.274 625.247 464.536 624.941 467.764C624.781 469.51 624.419 471.242 624.113 472.946C622.754 480.553 622.356 488.3 622.931 496.006C623.891 508.826 620.948 521.653 622.284 534.439C622.446 536.925 622.308 539.422 621.873 541.875C621.624 543.397 621.264 544.899 620.795 546.369C619.78 549.851 618.759 553.329 617.734 556.803C617.614 557.331 617.376 557.826 617.039 558.25C616.684 558.557 616.268 558.784 615.818 558.917C615.368 559.05 614.895 559.086 614.43 559.022C610.417 558.897 606.639 557.164 602.994 555.474C602.575 555.309 602.187 555.074 601.847 554.779C601.088 553.992 601.151 552.754 600.817 551.718C600.483 550.681 599.579 549.707 599.064 548.643C598.641 547.636 598.385 546.567 598.306 545.478C597.842 541.917 597.527 538.341 597.36 534.752C597.096 529.702 600.434 525.055 601.534 520.144C603.62 510.489 601.854 500.138 605.561 490.977C606.73 488.083 605.033 484.577 604.866 481.461C604.805 479.45 604.545 477.451 604.087 475.492C603.391 472.877 601.923 470.414 601.819 467.701C601.742 465.74 602.375 463.827 602.702 461.893C603.136 459.047 603.096 456.149 602.584 453.316C602.215 450.979 601.652 448.641 601.088 446.36L600.963 446.617C599.268 449.93 597.811 453.359 596.602 456.878C596.045 458.582 595.558 460.321 594.863 461.976C594.292 463.368 593.59 464.641 592.901 465.948C590.431 470.56 588.281 475.336 586.467 480.243C585.604 482.65 584.846 485.113 584.095 487.526L578.94 504.221C577.549 508.611 576.025 512.854 574.662 517.236C572.735 523.497 570.808 529.702 568.568 535.823C566.482 541.631 563.998 547.648 564.742 553.784C562.824 554.685 560.718 555.112 558.6 555.029C555.015 554.712 551.498 553.858 548.166 552.497C546.837 552.003 545.46 551.447 544.563 550.354C543.018 548.469 543.401 545.708 543.867 543.308C544.043 542.226 544.322 541.164 544.702 540.136C545.23 538.856 546.093 537.722 546.636 536.456C547.728 534.028 547.797 531.281 548.229 528.644C548.66 526.008 549.62 523.225 551.874 521.792C552.256 517.16 554.162 512.589 555.213 508.061C556.006 504.632 556.27 501.105 556.896 497.627C557.522 494.149 558.531 490.671 560.631 487.853C560.466 484.948 561.121 482.056 562.523 479.506C562.862 478.946 563.14 478.351 563.351 477.732C563.481 477.128 563.555 476.513 563.574 475.896C563.804 473.479 564.837 471.208 566.509 469.447C565.814 466.908 566.781 464.258 567.65 461.796C568.745 458.653 569.241 455.333 569.111 452.008C569.003 451.08 569.048 450.14 569.243 449.226C569.438 448.53 569.82 447.939 570.043 447.271C570.241 446.453 570.347 445.615 570.356 444.774C570.627 441.011 572.151 437.463 573.834 434.103C574.836 432.141 573.987 429.477 574.196 427.293C574.558 423.662 574.954 419.906 576.756 416.741C577.09 416.142 577.451 415.572 577.75 414.953C578.113 414.069 578.309 413.126 578.328 412.17C578.39 410.577 578.613 409.256 578.043 407.774C581.764 404.679 586.842 403.809 591.684 403.6C596.525 403.392 601.422 403.83 606.159 402.8C607.551 402.487 608.942 402.056 610.41 401.847C613.742 401.36 617.122 402.119 620.413 402.87C620.183 404.957 620.948 406.96 621.804 408.901C625.144 416.762 626.896 425.207 626.958 433.748Z" fill="#33313F"/>
<path opacity="0.1" d="M610.577 435.341L602.584 453.316C602.215 450.979 601.652 448.641 601.089 446.36L600.963 446.617V446.242L605.318 436.663L610.577 435.341Z" fill="black"/>
<path opacity="0.1" d="M634.527 397.792C634.066 398.137 633.515 398.342 632.941 398.383C632.06 398.414 631.18 398.294 630.339 398.028L624.079 396.463C623.882 396.415 623.691 396.347 623.508 396.262C623.613 395.169 623.821 393.903 624.413 393.479C625.296 392.888 627.939 393.681 628.941 393.82C630.666 394.056 632.419 394.335 634.103 394.662C634.363 395.685 634.506 396.736 634.527 397.792Z" fill="black"/>
<path d="M639.82 356.403C639.952 356.98 640.14 357.551 640.252 358.135C640.439 359.569 640.389 361.023 640.105 362.441L639.535 366.42L638.965 370.42L636.76 385.813L636.217 389.625L635.452 394.947C635.416 395.39 635.303 395.823 635.118 396.227C634.89 396.605 634.572 396.92 634.192 397.145C633.812 397.37 633.382 397.496 632.941 397.514C632.06 397.542 631.18 397.422 630.339 397.159L624.078 395.587C623.804 395.538 623.543 395.431 623.313 395.274C623.122 395.087 622.984 394.852 622.913 394.595C622.842 394.337 622.841 394.065 622.91 393.806C623 393.277 623.23 392.784 623.306 392.255C623.459 391.225 623.028 390.168 623.181 389.145C623.331 388.494 623.565 387.865 623.877 387.274C625.964 382.662 624.753 377.278 625.463 372.27C626.101 368.328 627.766 364.624 630.29 361.53C631.848 359.576 633.637 357.82 635.619 356.298C636.398 355.693 637.636 354.448 638.617 354.212C639.876 353.947 639.612 355.526 639.82 356.403Z" fill="#EB922F"/>
<path d="M592.442 296.482C591.983 297.943 592.699 299.55 592.372 301.039C592.018 302.68 590.473 303.821 590.035 305.47C589.34 307.981 591.468 310.27 593.026 312.356C598.8 320.106 598.042 330.832 596.066 340.285C594.477 347.87 592.278 355.314 589.493 362.545C588.623 364.792 587.663 367.074 585.952 368.757C589.152 367.839 592.553 366.914 595.76 367.804C599.822 368.931 603.328 372.875 607.446 371.978C609.923 371.428 611.662 369.23 613.888 368.013C618.062 365.766 623.091 367.178 627.745 367.901C628.747 368.138 629.797 368.085 630.77 367.748C631.515 367.348 632.146 366.767 632.607 366.058C634.684 363.393 635.927 360.175 636.182 356.806C636.292 355.129 636.045 353.447 635.456 351.873C634.867 350.298 633.951 348.866 632.767 347.673C631.779 346.741 630.596 345.989 629.838 344.89C629.101 343.607 628.706 342.155 628.691 340.675C628.141 333.023 630.005 325.211 628.085 317.81C627.39 315.174 626.256 312.649 625.95 309.95C625.567 306.59 626.478 302.993 625.143 299.919C624.092 297.477 621.776 295.745 619.279 294.855C616.782 293.964 614.11 293.714 611.46 293.464C607.648 293.144 594.035 291.509 592.442 296.482Z" fill="#33313F"/>
<g opacity="0.1">
<path opacity="0.1" d="M596.066 340.285C594.484 347.839 592.298 355.252 589.527 362.455C590.007 361.502 590.411 360.5 590.793 359.505C593.582 352.275 595.781 344.831 597.367 337.246C599.349 327.785 600.108 317.073 594.334 309.317C592.943 307.466 591.155 305.463 591.218 303.293C590.704 303.949 590.304 304.687 590.035 305.477C589.34 307.988 591.468 310.277 593.026 312.363C598.8 320.106 598.042 330.832 596.066 340.285Z" fill="black"/>
<path opacity="0.1" d="M592.456 300.336C593.014 299.643 593.43 298.846 593.68 297.992C593.788 296.959 593.76 295.916 593.597 294.89C593.061 295.293 592.659 295.848 592.442 296.482C592.032 297.714 592.505 299.049 592.456 300.336Z" fill="black"/>
<path opacity="0.1" d="M633.915 362.997C633.454 363.704 632.822 364.283 632.078 364.681C631.106 365.024 630.054 365.077 629.052 364.834C624.399 364.138 619.314 362.705 615.196 364.952C612.963 366.162 611.231 368.36 608.747 368.917C604.636 369.835 601.13 365.891 597.068 364.743C594.188 363.943 591.155 364.604 588.254 365.439C587.678 366.668 586.9 367.792 585.952 368.764C589.152 367.846 592.553 366.921 595.76 367.811C599.822 368.938 603.328 372.882 607.446 371.985C609.923 371.435 611.662 369.237 613.888 368.02C618.062 365.773 623.091 367.185 627.745 367.908C628.747 368.145 629.797 368.092 630.77 367.755C631.515 367.355 632.146 366.774 632.607 366.065C633.867 364.402 634.841 362.54 635.487 360.556C635.022 361.406 634.496 362.222 633.915 362.997Z" fill="black"/>
</g>
<defs>
<linearGradient id="paint0_linear" x1="534.65" y1="426.013" x2="641.079" y2="426.013" gradientUnits="userSpaceOnUse">
<stop stop-color="#808080" stop-opacity="0.25"/>
<stop offset="0.54" stop-color="#808080" stop-opacity="0.12"/>
<stop offset="1" stop-color="#808080" stop-opacity="0.1"/>
</linearGradient>
</defs>
</svg>
