<svg width="813" height="476" viewBox="0 0 813 476" fill="none" xmlns="http://www.w3.org/2000/svg">
<path d="M617.925 474.36H264.779C253.198 474.36 242.092 469.76 233.903 461.572C225.714 453.383 221.114 442.278 221.114 430.698V268.914C221.114 266.565 221.592 264.24 222.52 262.081C223.448 259.923 224.806 257.977 226.512 256.36L413.644 78.9853C421.126 71.8936 431.043 67.9407 441.352 67.9407C451.661 67.9407 461.577 71.8936 469.059 78.9853L647.48 248.103C651.937 252.328 655.487 257.416 657.913 263.057C660.339 268.699 661.59 274.776 661.59 280.917V430.698C661.59 436.432 660.46 442.109 658.266 447.407C656.072 452.704 652.855 457.517 648.801 461.572C644.746 465.626 639.932 468.842 634.635 471.037C629.337 473.231 623.659 474.36 617.925 474.36Z" fill="#3F3D56"/>
<path opacity="0.1" d="M221.114 271.57H657.919V447.995C657.919 454.988 655.141 461.693 650.197 466.638C645.252 471.582 638.546 474.36 631.553 474.36H247.48C240.487 474.36 233.781 471.582 228.836 466.638C223.892 461.693 221.114 454.988 221.114 447.995V271.57Z" fill="black"/>
<path d="M579.293 132.554H302.493C289.224 132.554 278.467 143.31 278.467 156.578V433.361C278.467 446.629 289.224 457.384 302.493 457.384H579.293C592.562 457.384 603.319 446.629 603.319 433.361V156.578C603.319 143.31 592.562 132.554 579.293 132.554Z" fill="#EB922F"/>
<path opacity="0.1" d="M603.319 278.865V457.385H278.467V278.865L440.893 357.366L603.319 278.865Z" fill="black"/>
<path d="M440.893 367.46L232.774 266.875C231.486 266.253 230.062 265.968 228.635 266.046C227.207 266.125 225.823 266.565 224.612 267.324C223.4 268.084 222.402 269.139 221.71 270.39C221.018 271.641 220.655 273.047 220.655 274.477V447.536C220.655 450.999 221.337 454.427 222.662 457.626C223.987 460.825 225.929 463.731 228.377 466.179C230.826 468.627 233.732 470.569 236.931 471.894C240.13 473.219 243.559 473.901 247.021 473.901H634.765C638.227 473.901 641.656 473.219 644.855 471.894C648.054 470.569 650.96 468.627 653.409 466.179C655.857 463.731 657.799 460.825 659.124 457.626C660.449 454.427 661.131 450.999 661.131 447.536V277.442C661.131 275.697 660.688 273.981 659.844 272.454C658.999 270.928 657.781 269.641 656.303 268.714C654.825 267.787 653.136 267.25 651.394 267.154C649.652 267.058 647.914 267.406 646.343 268.165L440.893 367.46Z" fill="#3F3D56"/>
<path d="M390.881 162.376H312.879C309.332 162.376 306.456 165.252 306.456 168.799C306.456 172.346 309.332 175.222 312.879 175.222H390.881C394.429 175.222 397.304 172.346 397.304 168.799C397.304 165.252 394.429 162.376 390.881 162.376Z" fill="#F2F2F2"/>
<path d="M565.236 209.173H302.785C300.758 209.173 299.115 210.817 299.115 212.844C299.115 214.871 300.758 216.514 302.785 216.514H565.236C567.263 216.514 568.906 214.871 568.906 212.844C568.906 210.817 567.263 209.173 565.236 209.173Z" fill="#F2F2F2"/>
<path d="M565.236 233.948H302.785C300.758 233.948 299.115 235.592 299.115 237.619C299.115 239.646 300.758 241.289 302.785 241.289H565.236C567.263 241.289 568.906 239.646 568.906 237.619C568.906 235.592 567.263 233.948 565.236 233.948Z" fill="#F2F2F2"/>
<path d="M565.236 258.724H302.785C300.758 258.724 299.115 260.367 299.115 262.394C299.115 264.421 300.758 266.064 302.785 266.064H565.236C567.263 266.064 568.906 264.421 568.906 262.394C568.906 260.367 567.263 258.724 565.236 258.724Z" fill="#F2F2F2"/>
<path d="M55.9351 473.901H812.086" stroke="#3F3D56" stroke-width="0.949948" stroke-miterlimit="10"/>
<path d="M0 360.909C0 415.011 33.9429 458.79 75.8898 458.79L0 360.909Z" fill="#46455B"/>
<path d="M75.8898 458.79C75.8898 404.08 113.768 359.81 160.578 359.81L75.8898 458.79Z" fill="#EB922F"/>
<path d="M27.4963 365.814C27.4963 417.205 49.1411 458.79 75.8898 458.79L27.4963 365.814Z" fill="#EB922F"/>
<path d="M75.8898 458.79C75.8898 388.883 119.671 332.315 173.777 332.315L75.8898 458.79Z" fill="#46455B"/>
<path d="M59.9246 459.48C59.9246 459.48 70.687 459.148 73.9305 456.839C77.174 454.529 90.4858 451.772 91.2904 455.476C92.0951 459.18 107.464 473.898 95.3136 473.996C83.1629 474.094 67.0808 472.103 63.8435 470.131C60.6062 468.159 59.9246 459.48 59.9246 459.48Z" fill="#A8A8A8"/>
<path opacity="0.2" d="M95.5305 472.706C83.3798 472.804 67.2976 470.814 64.0604 468.842C61.595 467.34 60.6126 461.952 60.2839 459.466C60.0562 459.476 59.9246 459.48 59.9246 459.48C59.9246 459.48 60.6062 468.159 63.8435 470.131C67.0808 472.103 83.163 474.093 95.3136 473.995C98.8211 473.967 100.033 472.719 99.9661 470.871C99.4788 471.988 98.1411 472.685 95.5305 472.706Z" fill="black"/>
<path d="M660.451 64.9073C659.9 69.8206 656.152 73.7785 654.763 78.5236C652.673 85.6658 656.287 93.33 661.231 98.8923C665.22 103.333 670.051 106.938 675.443 109.499C680.836 112.059 686.683 113.523 692.646 113.808C694.397 113.961 696.162 113.769 697.84 113.241C699.337 112.639 700.686 111.717 701.791 110.541C705.515 106.803 707.513 101.623 708.31 96.408C709.106 91.1926 708.797 85.8793 708.485 80.6126C708.487 79.524 708.289 78.4442 707.902 77.4267C707.394 76.4575 706.696 75.6002 705.851 74.9059C703.17 72.4471 700.218 70.3023 697.051 68.5134C695.619 67.872 694.356 66.906 693.363 65.6919C692.765 64.6519 692.377 63.504 692.223 62.3139L691.251 57.3599C691.078 55.9323 690.59 54.5608 689.823 53.3441C688.106 51.0274 684.82 50.7121 681.939 50.5991L671.381 50.1849C668.097 50.0561 663.77 49.1144 660.564 49.7593C657.57 50.3616 658.564 53.1202 659.108 55.632C659.897 58.6647 660.347 61.7754 660.451 64.9073Z" fill="#A0616A"/>
<path opacity="0.1" d="M660.451 64.9073C659.9 69.8206 656.152 73.7785 654.763 78.5236C652.673 85.6658 656.287 93.33 661.231 98.8923C665.22 103.333 670.051 106.938 675.443 109.499C680.836 112.059 686.683 113.523 692.646 113.808C694.397 113.961 696.162 113.769 697.84 113.241C699.337 112.639 700.686 111.717 701.791 110.541C705.515 106.803 707.513 101.623 708.31 96.408C709.106 91.1926 708.797 85.8793 708.485 80.6126C708.487 79.524 708.289 78.4442 707.902 77.4267C707.394 76.4575 706.696 75.6002 705.851 74.9059C703.17 72.4471 700.218 70.3023 697.051 68.5134C695.619 67.872 694.356 66.906 693.363 65.6919C692.765 64.6519 692.377 63.504 692.223 62.3139L691.251 57.3599C691.078 55.9323 690.59 54.5608 689.823 53.3441C688.106 51.0274 684.82 50.7121 681.939 50.5991L671.381 50.1849C668.097 50.0561 663.77 49.1144 660.564 49.7593C657.57 50.3616 658.564 53.1202 659.108 55.632C659.897 58.6647 660.347 61.7754 660.451 64.9073Z" fill="black"/>
<path d="M727.613 286.059C726.117 302.459 724.621 318.856 723.125 335.25C721.954 348.152 720.761 361.107 718.464 373.843C717.671 378.232 716.742 382.598 715.639 386.926C712.572 398.945 708.122 410.691 706.687 423.011C706.642 423.366 706.604 423.729 706.566 424.092C706.405 426.816 705.89 429.508 705.033 432.099C704.315 433.98 703.212 435.694 702.434 437.553C700.885 441.269 700.681 445.379 700.492 449.405C695.045 446.341 689.081 444.303 682.898 443.392C679.914 442.946 676.59 442.629 674.558 440.4C672.307 437.938 672.556 434.169 672.934 430.86C674.12 420.587 675.304 410.318 676.485 400.055C676.87 395.64 677.62 391.263 678.728 386.972C679.136 385.544 679.627 384.139 680.126 382.734C680.813 380.8 681.508 378.866 682.029 376.88C682.781 373.67 683.306 370.411 683.601 367.128C684.817 356.794 686.283 346.483 687.567 336.157L687.635 335.613C689.561 319.961 691.027 304.234 690.604 288.469C690.543 286.135 690.445 283.8 690.294 281.459C690.082 278.067 689.773 276.269 692.583 274.147C695.688 271.805 699.775 270.166 703.325 268.632C705.237 267.801 726.283 260.33 726.774 261.97C727.761 265.466 728.28 269.078 728.315 272.711C728.33 277.17 728.096 281.626 727.613 286.059Z" fill="#605D82"/>
<path opacity="0.1" d="M718.464 373.843C717.671 378.232 716.742 382.598 715.639 386.926C712.572 398.945 708.123 410.691 706.687 423.011C706.642 423.366 706.604 423.729 706.566 424.092C697.184 410.691 689.282 396.278 680.126 382.734C680.813 380.8 681.508 378.866 682.03 376.88C682.781 373.67 683.306 370.411 683.601 367.127C684.817 356.794 686.283 346.483 687.567 336.156L687.635 335.613C688.172 337.805 688.94 339.934 689.924 341.965C696.073 354.46 710.683 360.775 717.83 372.732C718.049 373.103 718.26 373.473 718.464 373.843Z" fill="black"/>
<path d="M642.331 263.979C642.641 274 644.245 283.93 645.846 293.828L649.149 314.248C650.957 325.423 652.839 336.827 658.128 346.837C662.084 354.325 667.785 360.715 672.942 367.433C685.62 383.948 695.144 402.656 707.165 419.656C710.659 424.597 715.654 429.94 721.617 428.908C725.531 428.231 728.374 424.973 731.45 422.461C735.077 419.499 739.449 417.332 742.302 413.619C745.156 409.907 745.715 403.736 741.849 401.094C740.45 400.319 738.965 399.711 737.424 399.283C731.43 397.004 727.551 391.151 725.082 385.233C722.614 379.315 721.118 372.952 717.829 367.447C710.683 355.49 696.071 349.175 689.92 336.676C686.475 329.676 686.147 321.607 685.883 313.81L685.212 293.933C685.139 291.759 685.081 289.498 685.965 287.511C688.318 282.22 695.422 281.727 701.173 281.056C707.702 280.291 714.026 278.296 719.811 275.176C723.124 273.388 726.361 271.107 728.133 267.785C729.75 264.755 729.973 261.2 730.163 257.771L732.154 221.748C732.326 218.649 732.482 215.444 731.39 212.539C728.647 205.243 719.434 202.859 711.647 203.208C697.157 203.855 683.781 210.088 670.119 214.297C666.735 215.364 663.299 216.26 659.825 216.982C656.759 217.597 653.048 217.342 650.124 218.327C644.923 220.081 645.055 231.453 644.318 236.171C642.795 245.358 642.13 254.668 642.331 263.979Z" fill="#605D82"/>
<path d="M719.65 430.419C720.928 431.707 721.345 433.595 721.678 435.379C723.524 445.273 724.484 455.313 724.547 465.377C724.461 466.316 724.649 467.26 725.087 468.095C725.446 468.594 725.934 468.985 726.498 469.23C730.191 470.99 734.477 468.537 737.554 465.841C743.259 460.845 748.086 454.138 748.41 446.562C748.35 444.61 748.419 442.657 748.614 440.715C749.115 437.862 750.781 435.377 752.249 432.881C754.746 428.631 756.761 424.115 758.255 419.418C758.816 417.653 759.189 415.431 757.806 414.199C757.316 413.815 756.758 413.525 756.162 413.344L739.48 407.151C738.035 406.614 734.438 415.854 733.867 416.864C732.47 419.335 731.081 420.737 728.28 421.308C725.42 421.89 722.015 421.054 719.346 422.481C714.832 424.895 717.094 427.841 719.65 430.419Z" fill="#535070"/>
<path d="M693.91 436.121C693.6 435.504 693.168 434.956 692.64 434.511C691.868 434.021 690.99 433.723 690.079 433.641C686.903 433.102 683.139 432.747 680.947 435.107C678.892 437.32 679.245 440.925 677.527 443.409C676.983 444.195 676.246 444.843 675.775 445.674C675.19 446.946 674.926 448.341 675.006 449.738C674.917 453.588 674.829 457.444 675.095 461.285C675.318 464.504 675.86 467.877 677.873 470.399C681.105 474.447 686.932 475.029 692.105 475.292L696.294 475.504C697.448 475.645 698.618 475.537 699.727 475.19C700.414 474.872 701.03 474.421 701.538 473.861C702.047 473.301 702.438 472.645 702.689 471.932C704.869 466.512 701.416 460.673 699.289 455.232C696.844 448.978 697.283 442.034 693.91 436.121Z" fill="#535070"/>
<path d="M659.237 37.2226C659.186 36.6731 659.267 36.1194 659.473 35.6075C660.087 34.5226 661.689 34.8178 662.897 35.1225C667.758 36.3479 672.88 35.2387 677.884 35.525C682.889 35.8112 688.526 38.313 689.532 43.2233C693.165 40.6483 696.296 37.4311 698.772 33.7304C700.161 31.652 701.371 29.2714 701.182 26.7789C700.909 23.1837 697.893 20.4951 695.1 18.215L686.774 11.4184C685.681 10.4141 684.419 9.61167 683.046 9.04836C681.123 8.39136 679.026 8.70438 676.994 8.70569C670.934 8.70957 664.471 5.95144 659.081 8.72214C656.829 9.87952 655.135 11.8629 653.501 13.7968L646.07 22.5928C645.51 23.1534 645.102 23.8463 644.882 24.607C644.67 25.6807 645.222 26.7403 645.414 27.8176C645.765 29.7826 644.919 31.8798 645.569 33.7669C646.65 36.8997 650.454 37.3431 652.779 39.1391C653.646 39.8085 655.005 42.0771 656.037 42.0494C657.901 41.9994 659.189 38.6701 659.237 37.2226Z" fill="#3F3D56"/>
<path d="M671.846 63.1507C684.988 63.1507 695.642 52.4974 695.642 39.3559C695.642 26.2143 684.988 15.561 671.846 15.561C658.704 15.561 648.05 26.2143 648.05 39.3559C648.05 52.4974 658.704 63.1507 671.846 63.1507Z" fill="#A0616A"/>
<path d="M677.42 91.4312C676.612 89.1187 675.089 87.1235 673.071 85.735C671.053 84.3465 668.646 83.6368 666.197 83.7088C665.497 83.8392 664.773 83.7477 664.127 83.4471C663.762 83.1664 663.47 82.8015 663.276 82.3835C661.829 79.7817 660.666 77.0319 659.807 74.1815C659.427 72.9221 658.908 71.4373 657.634 71.1098C657.106 71.0408 656.57 71.1164 656.082 71.3286C655.594 71.5408 655.173 71.8817 654.864 72.3146C654.259 73.1861 653.598 74.0173 652.884 74.8027C649.891 77.4785 644.586 75.0396 641.41 77.4946C640.891 77.8956 640.462 78.4092 639.917 78.774C639.372 79.1023 638.784 79.3543 638.17 79.523C632.036 81.5255 626.023 83.8806 620.16 86.5764C622.273 99.3006 624.438 112.247 629.391 124.156C631.748 129.824 634.419 135.375 636.307 141.216C640.489 154.157 640.674 168.004 640.721 181.604C640.753 190.913 640.707 200.42 637.695 209.227C636.885 211.174 636.314 213.211 635.994 215.295C635.812 217.394 636.423 219.708 638.124 220.952C639.11 221.596 640.238 221.992 641.41 222.106C646.629 222.871 651.89 221.483 657.028 220.293C670.801 217.103 684.847 215.278 698.866 213.458L722.358 210.408C724.042 210.294 725.69 209.868 727.218 209.152C731.517 206.799 731.925 200.333 729.256 196.223C727.976 194.253 726.17 192.636 725.095 190.547C724.02 188.458 723.928 185.537 725.779 184.091C729.545 181.148 728.422 175.687 728.601 170.912C729.103 157.558 729.035 144.2 728.397 130.836C728.209 128.069 728.165 125.295 728.265 122.524C728.682 117.829 729.55 113.184 730.856 108.655L737.994 80.5505C736.129 77.604 732.559 75.7345 729.176 74.8858C725.794 74.037 722.271 73.7872 718.94 72.7551C712.116 70.6407 706.041 65.2748 698.915 65.7749C698.376 65.7846 697.845 65.914 697.363 66.1539C695.755 67.0644 696.01 69.3805 695.907 71.2248C695.68 75.3052 692.678 78.7156 689.364 81.1066C686.049 83.4977 682.264 85.2412 679.22 87.968C678.68 88.3745 678.239 88.8964 677.927 89.4957C677.616 90.0949 677.442 90.7562 677.42 91.4312Z" fill="#3F3D56"/>
<path d="M583.131 118.089C581.553 119.113 579.876 119.976 578.125 120.664C576.411 121.174 574.792 121.96 573.331 122.991C572.657 123.574 572.093 124.271 571.663 125.051C570.858 126.479 570.45 128.098 570.484 129.737C570.517 131.377 570.99 132.977 571.853 134.372C572.716 135.766 573.938 136.903 575.39 137.664C576.843 138.426 578.473 138.783 580.111 138.699C582.287 138.456 584.403 137.825 586.358 136.837L603.142 129.564C605.982 128.333 609.051 126.891 610.394 124.101C610.55 123.841 610.608 123.534 610.557 123.234C610.422 122.918 610.177 122.661 609.868 122.51C606.082 120.051 602.771 116.929 600.095 113.295C599.406 112.36 598.564 110.152 597.59 109.592C594.038 107.546 585.974 116.244 583.131 118.089Z" fill="#A0616A"/>
<path d="M762.558 112.121L768.746 119.19C770.075 120.707 771.405 122.226 772.615 123.839C775.589 127.937 777.974 132.43 779.702 137.189C781.048 140.719 782.164 144.478 781.694 148.225C781.382 150.147 780.863 152.028 780.146 153.838C779.012 157.318 777.606 160.704 775.942 163.964C774.541 166.441 772.96 168.811 771.21 171.054C766.419 177.404 761.177 183.4 755.524 188.996C753.408 191.09 752.521 194.476 751.6 197.306C749.902 202.527 745.86 206.593 741.952 210.449C740.696 211.775 739.308 212.97 737.809 214.014C735.563 215.46 732.94 216.207 730.269 216.161C729.1 216.169 727.943 215.93 726.873 215.458C724.199 214.188 722.839 211.096 722.561 208.148C722.312 205.473 722.76 202.78 723.862 200.33C727.413 192.464 736.531 189.056 742.976 183.317C746.756 179.952 749.646 175.725 752.496 171.544C754.432 168.933 756.049 166.1 757.311 163.105C758.75 159.265 758.19 154.718 759.447 150.814C759.979 149.164 760.924 147.674 761.496 146.038C762.067 144.401 762.211 142.458 761.211 141.042C760.457 140.141 759.496 139.438 758.41 138.991C754.292 136.901 749.681 134.212 748.893 129.662C748.579 127.14 749.238 124.592 750.736 122.538C752.229 120.511 753.974 118.683 755.928 117.097C757.729 115.505 760.758 113.714 762.558 112.121Z" fill="#A0616A"/>
<path d="M579.158 127.955C578.065 125.748 576.699 123.497 574.495 122.399C573.426 121.935 572.274 121.693 571.108 121.689C569.943 121.684 568.789 121.916 567.716 122.371C565.578 123.293 563.577 124.503 561.767 125.968L556.434 129.899C555.224 130.693 554.154 131.68 553.267 132.822C552.426 134.207 551.865 135.745 551.618 137.347C550.688 141 550.404 144.787 550.779 148.538C551.626 154.553 555.252 159.803 559.243 164.381C561.737 167.242 564.817 170.129 568.61 170.251C570.248 170.304 572.069 169.658 572.75 168.168C572.986 167.578 573.111 166.949 573.12 166.313C573.529 159.604 571.129 153.052 568.331 146.941C567.439 145.341 566.911 143.564 566.787 141.736C566.767 141.428 566.847 141.122 567.015 140.864C567.256 140.613 567.579 140.455 567.925 140.42C571.756 139.662 578.353 142.637 581.04 138.384C582.782 135.627 580.396 130.456 579.158 127.955Z" fill="#A0616A"/>
<path d="M657.989 29.7352C657.938 29.1858 658.019 28.6321 658.225 28.1202C658.839 27.0353 660.441 27.3305 661.649 27.6352C666.51 28.8606 671.632 27.7514 676.636 28.0377C681.641 28.3239 687.278 30.8256 688.284 35.736C691.917 33.161 695.048 29.9438 697.524 26.2431C698.913 24.1647 700.123 21.7841 699.934 19.2916C699.661 15.6965 696.645 13.0078 693.852 10.7277L685.526 3.93105C684.433 2.9268 683.171 2.12437 681.798 1.56106C679.875 0.904059 677.778 1.21707 675.746 1.21838C669.686 1.22227 663.223 -1.53586 657.833 1.23483C655.581 2.39221 653.887 4.37556 652.253 6.30947L644.822 15.1055C644.262 15.6661 643.854 16.359 643.634 17.1197C643.422 18.1934 643.974 19.253 644.166 20.3303C644.517 22.2953 643.671 24.3925 644.321 26.2796C645.402 29.4124 649.206 29.8558 651.531 31.6519C652.398 32.3212 653.757 34.5898 654.789 34.5621C656.653 34.5121 657.941 31.1828 657.989 29.7352Z" fill="#3F3D56"/>
<path d="M607.448 94.9441C606.487 95.5637 605.644 96.3487 604.957 97.2626C604.085 98.5817 603.907 100.247 603.158 101.639C601.554 104.619 597.803 105.68 595.463 108.124C595.091 108.46 594.833 108.904 594.724 109.393C594.712 110.056 594.935 110.703 595.352 111.218L606.636 128.957C610.393 129.288 613.998 126.934 617.756 127.247C619.16 127.363 620.596 127.848 621.942 127.433C622.905 127.006 623.808 126.454 624.628 125.791C626.87 124.373 629.857 124.208 631.738 122.337C633.543 120.542 633.774 117.733 633.752 115.188C633.782 112.977 633.557 110.77 633.082 108.61C631.42 101.802 626.212 96.5765 622.948 90.5451C621.358 87.6088 620.493 85.8899 617.129 87.906C613.748 89.9326 610.63 92.617 607.448 94.9441Z" fill="#3F3D56"/>
<path d="M744.492 85.9738C746.613 87.3508 748.525 89.0253 750.169 90.9459C751.888 93.1623 752.862 95.8749 754.513 98.1422C756.113 100.34 758.292 102.042 760.108 104.066C762.861 107.135 764.726 110.879 766.558 114.573C762.084 120.407 757.207 125.919 751.961 131.069C751.377 131.757 750.608 132.263 749.745 132.526C749.158 132.588 748.564 132.504 748.018 132.281C747.471 132.058 746.988 131.704 746.612 131.249C745.799 130.396 745.223 129.345 744.446 128.46C742.612 126.568 740.168 125.386 737.547 125.123C734.949 124.872 732.335 124.836 729.731 125.016C729.159 125.079 728.581 124.982 728.061 124.735C727.675 124.469 727.362 124.109 727.15 123.69C724.095 118.492 725.078 111.965 726.156 106.033L728.629 92.4198C728.988 89.8199 729.679 87.277 730.688 84.854C731.624 82.852 733.719 79.4572 736.295 80.0565C738.892 80.6606 742.308 84.4026 744.492 85.9738Z" fill="#3F3D56"/>
<circle cx="288" cy="142" r="40" fill="#1EA26B"/>
<path d="M306.333 128.667L281.125 153.667L269.667 142.303" stroke="white" stroke-linecap="round" stroke-linejoin="round"/>
</svg>
